G04 #@! TF.GenerationSoftware,KiCad,Pcbnew,(7.0.0)*
G04 #@! TF.CreationDate,2023-03-29T00:30:15-05:00*
G04 #@! TF.ProjectId,445,3434352e-6b69-4636-9164-5f7063625858,rev?*
G04 #@! TF.SameCoordinates,Original*
G04 #@! TF.FileFunction,Legend,Bot*
G04 #@! TF.FilePolarity,Positive*
%FSLAX46Y46*%
G04 Gerber Fmt 4.6, Leading zero omitted, Abs format (unit mm)*
G04 Created by KiCad (PCBNEW (7.0.0)) date 2023-03-29 00:30:15*
%MOMM*%
%LPD*%
G01*
G04 APERTURE LIST*
%ADD10C,0.150000*%
%ADD11C,0.120000*%
%ADD12C,0.127000*%
G04 APERTURE END LIST*
D10*
X128857333Y-65431380D02*
X128857333Y-66145666D01*
X128857333Y-66145666D02*
X128904952Y-66288523D01*
X128904952Y-66288523D02*
X129000190Y-66383761D01*
X129000190Y-66383761D02*
X129143047Y-66431380D01*
X129143047Y-66431380D02*
X129238285Y-66431380D01*
X128476380Y-65431380D02*
X127857333Y-65431380D01*
X127857333Y-65431380D02*
X128190666Y-65812333D01*
X128190666Y-65812333D02*
X128047809Y-65812333D01*
X128047809Y-65812333D02*
X127952571Y-65859952D01*
X127952571Y-65859952D02*
X127904952Y-65907571D01*
X127904952Y-65907571D02*
X127857333Y-66002809D01*
X127857333Y-66002809D02*
X127857333Y-66240904D01*
X127857333Y-66240904D02*
X127904952Y-66336142D01*
X127904952Y-66336142D02*
X127952571Y-66383761D01*
X127952571Y-66383761D02*
X128047809Y-66431380D01*
X128047809Y-66431380D02*
X128333523Y-66431380D01*
X128333523Y-66431380D02*
X128428761Y-66383761D01*
X128428761Y-66383761D02*
X128476380Y-66336142D01*
X168039190Y-83089809D02*
X168515380Y-83089809D01*
X167515380Y-82756476D02*
X168039190Y-83089809D01*
X168039190Y-83089809D02*
X167515380Y-83423142D01*
X168515380Y-84280285D02*
X168515380Y-83708857D01*
X168515380Y-83994571D02*
X167515380Y-83994571D01*
X167515380Y-83994571D02*
X167658238Y-83899333D01*
X167658238Y-83899333D02*
X167753476Y-83804095D01*
X167753476Y-83804095D02*
X167801095Y-83708857D01*
X151565904Y-67369380D02*
X151565904Y-68178904D01*
X151565904Y-68178904D02*
X151518285Y-68274142D01*
X151518285Y-68274142D02*
X151470666Y-68321761D01*
X151470666Y-68321761D02*
X151375428Y-68369380D01*
X151375428Y-68369380D02*
X151184952Y-68369380D01*
X151184952Y-68369380D02*
X151089714Y-68321761D01*
X151089714Y-68321761D02*
X151042095Y-68274142D01*
X151042095Y-68274142D02*
X150994476Y-68178904D01*
X150994476Y-68178904D02*
X150994476Y-67369380D01*
X150089714Y-67702714D02*
X150089714Y-68369380D01*
X150327809Y-67321761D02*
X150565904Y-68036047D01*
X150565904Y-68036047D02*
X149946857Y-68036047D01*
X180521350Y-111414762D02*
X180521350Y-112224706D01*
X180521350Y-112224706D02*
X180473707Y-112319994D01*
X180473707Y-112319994D02*
X180426063Y-112367638D01*
X180426063Y-112367638D02*
X180330775Y-112415282D01*
X180330775Y-112415282D02*
X180140200Y-112415282D01*
X180140200Y-112415282D02*
X180044912Y-112367638D01*
X180044912Y-112367638D02*
X179997269Y-112319994D01*
X179997269Y-112319994D02*
X179949625Y-112224706D01*
X179949625Y-112224706D02*
X179949625Y-111414762D01*
X178996748Y-111414762D02*
X179473186Y-111414762D01*
X179473186Y-111414762D02*
X179520830Y-111891200D01*
X179520830Y-111891200D02*
X179473186Y-111843556D01*
X179473186Y-111843556D02*
X179377899Y-111795912D01*
X179377899Y-111795912D02*
X179139680Y-111795912D01*
X179139680Y-111795912D02*
X179044392Y-111843556D01*
X179044392Y-111843556D02*
X178996748Y-111891200D01*
X178996748Y-111891200D02*
X178949105Y-111986487D01*
X178949105Y-111986487D02*
X178949105Y-112224706D01*
X178949105Y-112224706D02*
X178996748Y-112319994D01*
X178996748Y-112319994D02*
X179044392Y-112367638D01*
X179044392Y-112367638D02*
X179139680Y-112415282D01*
X179139680Y-112415282D02*
X179377899Y-112415282D01*
X179377899Y-112415282D02*
X179473186Y-112367638D01*
X179473186Y-112367638D02*
X179520830Y-112319994D01*
X126383380Y-40281905D02*
X125383380Y-40281905D01*
X125383380Y-40281905D02*
X125383380Y-40520000D01*
X125383380Y-40520000D02*
X125431000Y-40662857D01*
X125431000Y-40662857D02*
X125526238Y-40758095D01*
X125526238Y-40758095D02*
X125621476Y-40805714D01*
X125621476Y-40805714D02*
X125811952Y-40853333D01*
X125811952Y-40853333D02*
X125954809Y-40853333D01*
X125954809Y-40853333D02*
X126145285Y-40805714D01*
X126145285Y-40805714D02*
X126240523Y-40758095D01*
X126240523Y-40758095D02*
X126335761Y-40662857D01*
X126335761Y-40662857D02*
X126383380Y-40520000D01*
X126383380Y-40520000D02*
X126383380Y-40281905D01*
X125383380Y-41710476D02*
X125383380Y-41520000D01*
X125383380Y-41520000D02*
X125431000Y-41424762D01*
X125431000Y-41424762D02*
X125478619Y-41377143D01*
X125478619Y-41377143D02*
X125621476Y-41281905D01*
X125621476Y-41281905D02*
X125811952Y-41234286D01*
X125811952Y-41234286D02*
X126192904Y-41234286D01*
X126192904Y-41234286D02*
X126288142Y-41281905D01*
X126288142Y-41281905D02*
X126335761Y-41329524D01*
X126335761Y-41329524D02*
X126383380Y-41424762D01*
X126383380Y-41424762D02*
X126383380Y-41615238D01*
X126383380Y-41615238D02*
X126335761Y-41710476D01*
X126335761Y-41710476D02*
X126288142Y-41758095D01*
X126288142Y-41758095D02*
X126192904Y-41805714D01*
X126192904Y-41805714D02*
X125954809Y-41805714D01*
X125954809Y-41805714D02*
X125859571Y-41758095D01*
X125859571Y-41758095D02*
X125811952Y-41710476D01*
X125811952Y-41710476D02*
X125764333Y-41615238D01*
X125764333Y-41615238D02*
X125764333Y-41424762D01*
X125764333Y-41424762D02*
X125811952Y-41329524D01*
X125811952Y-41329524D02*
X125859571Y-41281905D01*
X125859571Y-41281905D02*
X125954809Y-41234286D01*
X129619333Y-46607380D02*
X129619333Y-47321666D01*
X129619333Y-47321666D02*
X129666952Y-47464523D01*
X129666952Y-47464523D02*
X129762190Y-47559761D01*
X129762190Y-47559761D02*
X129905047Y-47607380D01*
X129905047Y-47607380D02*
X130000285Y-47607380D01*
X128666952Y-46607380D02*
X129143142Y-46607380D01*
X129143142Y-46607380D02*
X129190761Y-47083571D01*
X129190761Y-47083571D02*
X129143142Y-47035952D01*
X129143142Y-47035952D02*
X129047904Y-46988333D01*
X129047904Y-46988333D02*
X128809809Y-46988333D01*
X128809809Y-46988333D02*
X128714571Y-47035952D01*
X128714571Y-47035952D02*
X128666952Y-47083571D01*
X128666952Y-47083571D02*
X128619333Y-47178809D01*
X128619333Y-47178809D02*
X128619333Y-47416904D01*
X128619333Y-47416904D02*
X128666952Y-47512142D01*
X128666952Y-47512142D02*
X128714571Y-47559761D01*
X128714571Y-47559761D02*
X128809809Y-47607380D01*
X128809809Y-47607380D02*
X129047904Y-47607380D01*
X129047904Y-47607380D02*
X129143142Y-47559761D01*
X129143142Y-47559761D02*
X129190761Y-47512142D01*
X161932857Y-86632142D02*
X161980476Y-86679761D01*
X161980476Y-86679761D02*
X162123333Y-86727380D01*
X162123333Y-86727380D02*
X162218571Y-86727380D01*
X162218571Y-86727380D02*
X162361428Y-86679761D01*
X162361428Y-86679761D02*
X162456666Y-86584523D01*
X162456666Y-86584523D02*
X162504285Y-86489285D01*
X162504285Y-86489285D02*
X162551904Y-86298809D01*
X162551904Y-86298809D02*
X162551904Y-86155952D01*
X162551904Y-86155952D02*
X162504285Y-85965476D01*
X162504285Y-85965476D02*
X162456666Y-85870238D01*
X162456666Y-85870238D02*
X162361428Y-85775000D01*
X162361428Y-85775000D02*
X162218571Y-85727380D01*
X162218571Y-85727380D02*
X162123333Y-85727380D01*
X162123333Y-85727380D02*
X161980476Y-85775000D01*
X161980476Y-85775000D02*
X161932857Y-85822619D01*
X160980476Y-86727380D02*
X161551904Y-86727380D01*
X161266190Y-86727380D02*
X161266190Y-85727380D01*
X161266190Y-85727380D02*
X161361428Y-85870238D01*
X161361428Y-85870238D02*
X161456666Y-85965476D01*
X161456666Y-85965476D02*
X161551904Y-86013095D01*
X160647142Y-85727380D02*
X160028095Y-85727380D01*
X160028095Y-85727380D02*
X160361428Y-86108333D01*
X160361428Y-86108333D02*
X160218571Y-86108333D01*
X160218571Y-86108333D02*
X160123333Y-86155952D01*
X160123333Y-86155952D02*
X160075714Y-86203571D01*
X160075714Y-86203571D02*
X160028095Y-86298809D01*
X160028095Y-86298809D02*
X160028095Y-86536904D01*
X160028095Y-86536904D02*
X160075714Y-86632142D01*
X160075714Y-86632142D02*
X160123333Y-86679761D01*
X160123333Y-86679761D02*
X160218571Y-86727380D01*
X160218571Y-86727380D02*
X160504285Y-86727380D01*
X160504285Y-86727380D02*
X160599523Y-86679761D01*
X160599523Y-86679761D02*
X160647142Y-86632142D01*
X129907380Y-109593142D02*
X129431190Y-109259809D01*
X129907380Y-109021714D02*
X128907380Y-109021714D01*
X128907380Y-109021714D02*
X128907380Y-109402666D01*
X128907380Y-109402666D02*
X128955000Y-109497904D01*
X128955000Y-109497904D02*
X129002619Y-109545523D01*
X129002619Y-109545523D02*
X129097857Y-109593142D01*
X129097857Y-109593142D02*
X129240714Y-109593142D01*
X129240714Y-109593142D02*
X129335952Y-109545523D01*
X129335952Y-109545523D02*
X129383571Y-109497904D01*
X129383571Y-109497904D02*
X129431190Y-109402666D01*
X129431190Y-109402666D02*
X129431190Y-109021714D01*
X129907380Y-110545523D02*
X129907380Y-109974095D01*
X129907380Y-110259809D02*
X128907380Y-110259809D01*
X128907380Y-110259809D02*
X129050238Y-110164571D01*
X129050238Y-110164571D02*
X129145476Y-110069333D01*
X129145476Y-110069333D02*
X129193095Y-109974095D01*
X128907380Y-111450285D02*
X128907380Y-110974095D01*
X128907380Y-110974095D02*
X129383571Y-110926476D01*
X129383571Y-110926476D02*
X129335952Y-110974095D01*
X129335952Y-110974095D02*
X129288333Y-111069333D01*
X129288333Y-111069333D02*
X129288333Y-111307428D01*
X129288333Y-111307428D02*
X129335952Y-111402666D01*
X129335952Y-111402666D02*
X129383571Y-111450285D01*
X129383571Y-111450285D02*
X129478809Y-111497904D01*
X129478809Y-111497904D02*
X129716904Y-111497904D01*
X129716904Y-111497904D02*
X129812142Y-111450285D01*
X129812142Y-111450285D02*
X129859761Y-111402666D01*
X129859761Y-111402666D02*
X129907380Y-111307428D01*
X129907380Y-111307428D02*
X129907380Y-111069333D01*
X129907380Y-111069333D02*
X129859761Y-110974095D01*
X129859761Y-110974095D02*
X129812142Y-110926476D01*
X170175380Y-79899095D02*
X170984904Y-79899095D01*
X170984904Y-79899095D02*
X171080142Y-79946714D01*
X171080142Y-79946714D02*
X171127761Y-79994333D01*
X171127761Y-79994333D02*
X171175380Y-80089571D01*
X171175380Y-80089571D02*
X171175380Y-80280047D01*
X171175380Y-80280047D02*
X171127761Y-80375285D01*
X171127761Y-80375285D02*
X171080142Y-80422904D01*
X171080142Y-80422904D02*
X170984904Y-80470523D01*
X170984904Y-80470523D02*
X170175380Y-80470523D01*
X170175380Y-80851476D02*
X170175380Y-81470523D01*
X170175380Y-81470523D02*
X170556333Y-81137190D01*
X170556333Y-81137190D02*
X170556333Y-81280047D01*
X170556333Y-81280047D02*
X170603952Y-81375285D01*
X170603952Y-81375285D02*
X170651571Y-81422904D01*
X170651571Y-81422904D02*
X170746809Y-81470523D01*
X170746809Y-81470523D02*
X170984904Y-81470523D01*
X170984904Y-81470523D02*
X171080142Y-81422904D01*
X171080142Y-81422904D02*
X171127761Y-81375285D01*
X171127761Y-81375285D02*
X171175380Y-81280047D01*
X171175380Y-81280047D02*
X171175380Y-80994333D01*
X171175380Y-80994333D02*
X171127761Y-80899095D01*
X171127761Y-80899095D02*
X171080142Y-80851476D01*
X185025380Y-81002667D02*
X184025380Y-81002667D01*
X184025380Y-81002667D02*
X184739666Y-81336000D01*
X184739666Y-81336000D02*
X184025380Y-81669333D01*
X184025380Y-81669333D02*
X185025380Y-81669333D01*
X184025380Y-82336000D02*
X184025380Y-82526476D01*
X184025380Y-82526476D02*
X184073000Y-82621714D01*
X184073000Y-82621714D02*
X184168238Y-82716952D01*
X184168238Y-82716952D02*
X184358714Y-82764571D01*
X184358714Y-82764571D02*
X184692047Y-82764571D01*
X184692047Y-82764571D02*
X184882523Y-82716952D01*
X184882523Y-82716952D02*
X184977761Y-82621714D01*
X184977761Y-82621714D02*
X185025380Y-82526476D01*
X185025380Y-82526476D02*
X185025380Y-82336000D01*
X185025380Y-82336000D02*
X184977761Y-82240762D01*
X184977761Y-82240762D02*
X184882523Y-82145524D01*
X184882523Y-82145524D02*
X184692047Y-82097905D01*
X184692047Y-82097905D02*
X184358714Y-82097905D01*
X184358714Y-82097905D02*
X184168238Y-82145524D01*
X184168238Y-82145524D02*
X184073000Y-82240762D01*
X184073000Y-82240762D02*
X184025380Y-82336000D01*
X184930142Y-83764571D02*
X184977761Y-83716952D01*
X184977761Y-83716952D02*
X185025380Y-83574095D01*
X185025380Y-83574095D02*
X185025380Y-83478857D01*
X185025380Y-83478857D02*
X184977761Y-83336000D01*
X184977761Y-83336000D02*
X184882523Y-83240762D01*
X184882523Y-83240762D02*
X184787285Y-83193143D01*
X184787285Y-83193143D02*
X184596809Y-83145524D01*
X184596809Y-83145524D02*
X184453952Y-83145524D01*
X184453952Y-83145524D02*
X184263476Y-83193143D01*
X184263476Y-83193143D02*
X184168238Y-83240762D01*
X184168238Y-83240762D02*
X184073000Y-83336000D01*
X184073000Y-83336000D02*
X184025380Y-83478857D01*
X184025380Y-83478857D02*
X184025380Y-83574095D01*
X184025380Y-83574095D02*
X184073000Y-83716952D01*
X184073000Y-83716952D02*
X184120619Y-83764571D01*
X184025380Y-84097905D02*
X184025380Y-84716952D01*
X184025380Y-84716952D02*
X184406333Y-84383619D01*
X184406333Y-84383619D02*
X184406333Y-84526476D01*
X184406333Y-84526476D02*
X184453952Y-84621714D01*
X184453952Y-84621714D02*
X184501571Y-84669333D01*
X184501571Y-84669333D02*
X184596809Y-84716952D01*
X184596809Y-84716952D02*
X184834904Y-84716952D01*
X184834904Y-84716952D02*
X184930142Y-84669333D01*
X184930142Y-84669333D02*
X184977761Y-84621714D01*
X184977761Y-84621714D02*
X185025380Y-84526476D01*
X185025380Y-84526476D02*
X185025380Y-84240762D01*
X185025380Y-84240762D02*
X184977761Y-84145524D01*
X184977761Y-84145524D02*
X184930142Y-84097905D01*
X184025380Y-85336000D02*
X184025380Y-85431238D01*
X184025380Y-85431238D02*
X184073000Y-85526476D01*
X184073000Y-85526476D02*
X184120619Y-85574095D01*
X184120619Y-85574095D02*
X184215857Y-85621714D01*
X184215857Y-85621714D02*
X184406333Y-85669333D01*
X184406333Y-85669333D02*
X184644428Y-85669333D01*
X184644428Y-85669333D02*
X184834904Y-85621714D01*
X184834904Y-85621714D02*
X184930142Y-85574095D01*
X184930142Y-85574095D02*
X184977761Y-85526476D01*
X184977761Y-85526476D02*
X185025380Y-85431238D01*
X185025380Y-85431238D02*
X185025380Y-85336000D01*
X185025380Y-85336000D02*
X184977761Y-85240762D01*
X184977761Y-85240762D02*
X184930142Y-85193143D01*
X184930142Y-85193143D02*
X184834904Y-85145524D01*
X184834904Y-85145524D02*
X184644428Y-85097905D01*
X184644428Y-85097905D02*
X184406333Y-85097905D01*
X184406333Y-85097905D02*
X184215857Y-85145524D01*
X184215857Y-85145524D02*
X184120619Y-85193143D01*
X184120619Y-85193143D02*
X184073000Y-85240762D01*
X184073000Y-85240762D02*
X184025380Y-85336000D01*
X184120619Y-86050286D02*
X184073000Y-86097905D01*
X184073000Y-86097905D02*
X184025380Y-86193143D01*
X184025380Y-86193143D02*
X184025380Y-86431238D01*
X184025380Y-86431238D02*
X184073000Y-86526476D01*
X184073000Y-86526476D02*
X184120619Y-86574095D01*
X184120619Y-86574095D02*
X184215857Y-86621714D01*
X184215857Y-86621714D02*
X184311095Y-86621714D01*
X184311095Y-86621714D02*
X184453952Y-86574095D01*
X184453952Y-86574095D02*
X185025380Y-86002667D01*
X185025380Y-86002667D02*
X185025380Y-86621714D01*
X185025380Y-87574095D02*
X185025380Y-87002667D01*
X185025380Y-87288381D02*
X184025380Y-87288381D01*
X184025380Y-87288381D02*
X184168238Y-87193143D01*
X184168238Y-87193143D02*
X184263476Y-87097905D01*
X184263476Y-87097905D02*
X184311095Y-87002667D01*
X185025380Y-88002667D02*
X184025380Y-88002667D01*
X184025380Y-88002667D02*
X184739666Y-88336000D01*
X184739666Y-88336000D02*
X184025380Y-88669333D01*
X184025380Y-88669333D02*
X185025380Y-88669333D01*
X125748142Y-109811142D02*
X125795761Y-109763523D01*
X125795761Y-109763523D02*
X125843380Y-109620666D01*
X125843380Y-109620666D02*
X125843380Y-109525428D01*
X125843380Y-109525428D02*
X125795761Y-109382571D01*
X125795761Y-109382571D02*
X125700523Y-109287333D01*
X125700523Y-109287333D02*
X125605285Y-109239714D01*
X125605285Y-109239714D02*
X125414809Y-109192095D01*
X125414809Y-109192095D02*
X125271952Y-109192095D01*
X125271952Y-109192095D02*
X125081476Y-109239714D01*
X125081476Y-109239714D02*
X124986238Y-109287333D01*
X124986238Y-109287333D02*
X124891000Y-109382571D01*
X124891000Y-109382571D02*
X124843380Y-109525428D01*
X124843380Y-109525428D02*
X124843380Y-109620666D01*
X124843380Y-109620666D02*
X124891000Y-109763523D01*
X124891000Y-109763523D02*
X124938619Y-109811142D01*
X125843380Y-110763523D02*
X125843380Y-110192095D01*
X125843380Y-110477809D02*
X124843380Y-110477809D01*
X124843380Y-110477809D02*
X124986238Y-110382571D01*
X124986238Y-110382571D02*
X125081476Y-110287333D01*
X125081476Y-110287333D02*
X125129095Y-110192095D01*
X125176714Y-111620666D02*
X125843380Y-111620666D01*
X124795761Y-111382571D02*
X125510047Y-111144476D01*
X125510047Y-111144476D02*
X125510047Y-111763523D01*
X145241380Y-60317142D02*
X144765190Y-59983809D01*
X145241380Y-59745714D02*
X144241380Y-59745714D01*
X144241380Y-59745714D02*
X144241380Y-60126666D01*
X144241380Y-60126666D02*
X144289000Y-60221904D01*
X144289000Y-60221904D02*
X144336619Y-60269523D01*
X144336619Y-60269523D02*
X144431857Y-60317142D01*
X144431857Y-60317142D02*
X144574714Y-60317142D01*
X144574714Y-60317142D02*
X144669952Y-60269523D01*
X144669952Y-60269523D02*
X144717571Y-60221904D01*
X144717571Y-60221904D02*
X144765190Y-60126666D01*
X144765190Y-60126666D02*
X144765190Y-59745714D01*
X145241380Y-61269523D02*
X145241380Y-60698095D01*
X145241380Y-60983809D02*
X144241380Y-60983809D01*
X144241380Y-60983809D02*
X144384238Y-60888571D01*
X144384238Y-60888571D02*
X144479476Y-60793333D01*
X144479476Y-60793333D02*
X144527095Y-60698095D01*
X144574714Y-62126666D02*
X145241380Y-62126666D01*
X144193761Y-61888571D02*
X144908047Y-61650476D01*
X144908047Y-61650476D02*
X144908047Y-62269523D01*
X161932857Y-97300142D02*
X161980476Y-97347761D01*
X161980476Y-97347761D02*
X162123333Y-97395380D01*
X162123333Y-97395380D02*
X162218571Y-97395380D01*
X162218571Y-97395380D02*
X162361428Y-97347761D01*
X162361428Y-97347761D02*
X162456666Y-97252523D01*
X162456666Y-97252523D02*
X162504285Y-97157285D01*
X162504285Y-97157285D02*
X162551904Y-96966809D01*
X162551904Y-96966809D02*
X162551904Y-96823952D01*
X162551904Y-96823952D02*
X162504285Y-96633476D01*
X162504285Y-96633476D02*
X162456666Y-96538238D01*
X162456666Y-96538238D02*
X162361428Y-96443000D01*
X162361428Y-96443000D02*
X162218571Y-96395380D01*
X162218571Y-96395380D02*
X162123333Y-96395380D01*
X162123333Y-96395380D02*
X161980476Y-96443000D01*
X161980476Y-96443000D02*
X161932857Y-96490619D01*
X160980476Y-97395380D02*
X161551904Y-97395380D01*
X161266190Y-97395380D02*
X161266190Y-96395380D01*
X161266190Y-96395380D02*
X161361428Y-96538238D01*
X161361428Y-96538238D02*
X161456666Y-96633476D01*
X161456666Y-96633476D02*
X161551904Y-96681095D01*
X160599523Y-96490619D02*
X160551904Y-96443000D01*
X160551904Y-96443000D02*
X160456666Y-96395380D01*
X160456666Y-96395380D02*
X160218571Y-96395380D01*
X160218571Y-96395380D02*
X160123333Y-96443000D01*
X160123333Y-96443000D02*
X160075714Y-96490619D01*
X160075714Y-96490619D02*
X160028095Y-96585857D01*
X160028095Y-96585857D02*
X160028095Y-96681095D01*
X160028095Y-96681095D02*
X160075714Y-96823952D01*
X160075714Y-96823952D02*
X160647142Y-97395380D01*
X160647142Y-97395380D02*
X160028095Y-97395380D01*
X131493380Y-100250666D02*
X132207666Y-100250666D01*
X132207666Y-100250666D02*
X132350523Y-100203047D01*
X132350523Y-100203047D02*
X132445761Y-100107809D01*
X132445761Y-100107809D02*
X132493380Y-99964952D01*
X132493380Y-99964952D02*
X132493380Y-99869714D01*
X131826714Y-101155428D02*
X132493380Y-101155428D01*
X131445761Y-100917333D02*
X132160047Y-100679238D01*
X132160047Y-100679238D02*
X132160047Y-101298285D01*
X135953332Y-107539761D02*
X135810475Y-107587380D01*
X135810475Y-107587380D02*
X135572380Y-107587380D01*
X135572380Y-107587380D02*
X135477142Y-107539761D01*
X135477142Y-107539761D02*
X135429523Y-107492142D01*
X135429523Y-107492142D02*
X135381904Y-107396904D01*
X135381904Y-107396904D02*
X135381904Y-107301666D01*
X135381904Y-107301666D02*
X135429523Y-107206428D01*
X135429523Y-107206428D02*
X135477142Y-107158809D01*
X135477142Y-107158809D02*
X135572380Y-107111190D01*
X135572380Y-107111190D02*
X135762856Y-107063571D01*
X135762856Y-107063571D02*
X135858094Y-107015952D01*
X135858094Y-107015952D02*
X135905713Y-106968333D01*
X135905713Y-106968333D02*
X135953332Y-106873095D01*
X135953332Y-106873095D02*
X135953332Y-106777857D01*
X135953332Y-106777857D02*
X135905713Y-106682619D01*
X135905713Y-106682619D02*
X135858094Y-106635000D01*
X135858094Y-106635000D02*
X135762856Y-106587380D01*
X135762856Y-106587380D02*
X135524761Y-106587380D01*
X135524761Y-106587380D02*
X135381904Y-106635000D01*
X135048570Y-106587380D02*
X134810475Y-107587380D01*
X134810475Y-107587380D02*
X134619999Y-106873095D01*
X134619999Y-106873095D02*
X134429523Y-107587380D01*
X134429523Y-107587380D02*
X134191428Y-106587380D01*
X133286666Y-107587380D02*
X133858094Y-107587380D01*
X133572380Y-107587380D02*
X133572380Y-106587380D01*
X133572380Y-106587380D02*
X133667618Y-106730238D01*
X133667618Y-106730238D02*
X133762856Y-106825476D01*
X133762856Y-106825476D02*
X133858094Y-106873095D01*
D11*
X129854000Y-93024000D02*
X127194000Y-93024000D01*
X129854000Y-70104000D02*
X129854000Y-93024000D01*
X129854000Y-70104000D02*
X127194000Y-70104000D01*
X128524000Y-67504000D02*
X127194000Y-67504000D01*
X127194000Y-70104000D02*
X127194000Y-93024000D01*
X127194000Y-67504000D02*
X127194000Y-68834000D01*
X165623000Y-93903000D02*
X165623000Y-87653000D01*
X170673000Y-93903000D02*
X170673000Y-87653000D01*
X165623000Y-93903000D02*
G75*
G03*
X170673000Y-93903000I2525000J0D01*
G01*
X170673000Y-87653000D02*
G75*
G03*
X165623000Y-87653000I-2525000J0D01*
G01*
X145144000Y-101152000D02*
X139844000Y-101152000D01*
X145144000Y-65472000D02*
X145144000Y-101152000D01*
X143494000Y-65472000D02*
X145144000Y-65472000D01*
X139844000Y-101152000D02*
X139844000Y-65472000D01*
X139844000Y-65472000D02*
X141494000Y-65472000D01*
X141494000Y-65472000D02*
G75*
G03*
X143494000Y-65472000I1000000J0D01*
G01*
D12*
X182774000Y-114201000D02*
X182774000Y-113001000D01*
X182774000Y-113001000D02*
X137774000Y-113001000D01*
X181774000Y-128001000D02*
X165774000Y-128001000D01*
X181774000Y-114201000D02*
X182774000Y-114201000D01*
X181774000Y-114201000D02*
X181774000Y-128001000D01*
X165774000Y-114201000D02*
X181774000Y-114201000D01*
X165774000Y-114201000D02*
X165774000Y-128001000D01*
X154774000Y-128001000D02*
X138774000Y-128001000D01*
X154774000Y-114201000D02*
X165774000Y-114201000D01*
X154774000Y-114201000D02*
X154774000Y-128001000D01*
X138774000Y-114201000D02*
X154774000Y-114201000D01*
X138774000Y-114201000D02*
X138774000Y-128001000D01*
X137774000Y-114201000D02*
X138774000Y-114201000D01*
X137774000Y-113001000D02*
X137774000Y-114201000D01*
D11*
X129016000Y-38660000D02*
X129016000Y-42670000D01*
X127016000Y-38660000D02*
X129016000Y-38660000D01*
X127016000Y-38660000D02*
X127016000Y-42670000D01*
X135236000Y-53840000D02*
X134236000Y-53340000D01*
X135236000Y-52840000D02*
X135236000Y-53840000D01*
X134236000Y-53340000D02*
X135236000Y-52840000D01*
X133846000Y-63630000D02*
X133846000Y-48130000D01*
X133846000Y-53830000D02*
X132536000Y-53830000D01*
X133846000Y-48130000D02*
X124726000Y-48130000D01*
X132536000Y-62330000D02*
X132536000Y-57930000D01*
X132536000Y-57930000D02*
X133846000Y-57930000D01*
X132536000Y-57930000D02*
X132536000Y-57930000D01*
X132536000Y-53830000D02*
X132536000Y-49430000D01*
X132536000Y-49430000D02*
X126036000Y-49430000D01*
X126036000Y-62330000D02*
X132536000Y-62330000D01*
X126036000Y-49430000D02*
X126036000Y-62330000D01*
X124726000Y-63630000D02*
X133846000Y-63630000D01*
X124726000Y-48130000D02*
X124726000Y-63630000D01*
X162025000Y-88958748D02*
X162025000Y-89481252D01*
X160555000Y-88958748D02*
X160555000Y-89481252D01*
X127429500Y-110346258D02*
X127429500Y-109871742D01*
X128474500Y-110346258D02*
X128474500Y-109871742D01*
X182880000Y-81915000D02*
X182880000Y-87757000D01*
X181486854Y-81915000D02*
X182880000Y-81915000D01*
X178946854Y-81915000D02*
X180209146Y-81915000D01*
X176837550Y-81915000D02*
X177669146Y-81915000D01*
X173736000Y-81915000D02*
X174698450Y-81915000D01*
X182880000Y-87757000D02*
X181486854Y-87757000D01*
X180209146Y-87757000D02*
X178946854Y-87757000D01*
X177669146Y-87757000D02*
X176406854Y-87757000D01*
X175129146Y-87757000D02*
X173736000Y-87757000D01*
X173736000Y-87757000D02*
X173736000Y-81915000D01*
X123782000Y-110561836D02*
X123782000Y-110346164D01*
X124502000Y-110561836D02*
X124502000Y-110346164D01*
X146826500Y-60722742D02*
X146826500Y-61197258D01*
X145781500Y-60722742D02*
X145781500Y-61197258D01*
X162025000Y-93784748D02*
X162025000Y-94307252D01*
X160555000Y-93784748D02*
X160555000Y-94307252D01*
X130006000Y-104794000D02*
X126006000Y-104794000D01*
X125016000Y-104504000D02*
X125016000Y-96664000D01*
X131036000Y-104504000D02*
X125016000Y-104504000D01*
X130436000Y-103924000D02*
X130436000Y-102324000D01*
X131036000Y-103924000D02*
X130436000Y-103924000D01*
X125016000Y-103124000D02*
X126016000Y-103124000D01*
X126016000Y-103124000D02*
X126546000Y-102874000D01*
X126016000Y-103124000D02*
X126016000Y-98044000D01*
X125016000Y-102874000D02*
X126016000Y-102874000D01*
X126546000Y-102874000D02*
X126546000Y-98294000D01*
X130436000Y-102324000D02*
X131036000Y-102324000D01*
X130436000Y-101384000D02*
X130436000Y-99784000D01*
X131036000Y-101384000D02*
X130436000Y-101384000D01*
X130436000Y-99784000D02*
X131036000Y-99784000D01*
X130436000Y-98844000D02*
X130436000Y-97244000D01*
X131036000Y-98844000D02*
X130436000Y-98844000D01*
X125016000Y-98294000D02*
X126016000Y-98294000D01*
X126546000Y-98294000D02*
X126016000Y-98044000D01*
X126016000Y-98044000D02*
X125016000Y-98044000D01*
X130436000Y-97244000D02*
X131036000Y-97244000D01*
X125016000Y-96664000D02*
X131036000Y-96664000D01*
X131036000Y-96664000D02*
X131036000Y-104504000D01*
X136240000Y-110340000D02*
X133000000Y-110340000D01*
X136240000Y-110240000D02*
X136240000Y-110340000D01*
X136240000Y-108100000D02*
X136240000Y-108200000D01*
X136240000Y-108100000D02*
X133000000Y-108100000D01*
X133000000Y-110240000D02*
X133000000Y-110340000D01*
X133000000Y-108100000D02*
X133000000Y-108200000D01*
M02*
