G04 #@! TF.GenerationSoftware,KiCad,Pcbnew,(7.0.0)*
G04 #@! TF.CreationDate,2023-03-29T00:30:15-05:00*
G04 #@! TF.ProjectId,445,3434352e-6b69-4636-9164-5f7063625858,rev?*
G04 #@! TF.SameCoordinates,Original*
G04 #@! TF.FileFunction,Soldermask,Bot*
G04 #@! TF.FilePolarity,Negative*
%FSLAX46Y46*%
G04 Gerber Fmt 4.6, Leading zero omitted, Abs format (unit mm)*
G04 Created by KiCad (PCBNEW (7.0.0)) date 2023-03-29 00:30:15*
%MOMM*%
%LPD*%
G01*
G04 APERTURE LIST*
G04 Aperture macros list*
%AMRoundRect*
0 Rectangle with rounded corners*
0 $1 Rounding radius*
0 $2 $3 $4 $5 $6 $7 $8 $9 X,Y pos of 4 corners*
0 Add a 4 corners polygon primitive as box body*
4,1,4,$2,$3,$4,$5,$6,$7,$8,$9,$2,$3,0*
0 Add four circle primitives for the rounded corners*
1,1,$1+$1,$2,$3*
1,1,$1+$1,$4,$5*
1,1,$1+$1,$6,$7*
1,1,$1+$1,$8,$9*
0 Add four rect primitives between the rounded corners*
20,1,$1+$1,$2,$3,$4,$5,0*
20,1,$1+$1,$4,$5,$6,$7,0*
20,1,$1+$1,$6,$7,$8,$9,0*
20,1,$1+$1,$8,$9,$2,$3,0*%
G04 Aperture macros list end*
%ADD10C,3.200000*%
%ADD11C,1.500000*%
%ADD12R,1.701800X1.701800*%
%ADD13C,1.701800*%
%ADD14C,3.600000*%
%ADD15C,9.000000*%
%ADD16C,14.000000*%
%ADD17R,2.000000X1.905000*%
%ADD18O,2.000000X1.905000*%
%ADD19R,1.300000X1.300000*%
%ADD20C,1.300000*%
%ADD21R,1.700000X1.700000*%
%ADD22O,1.700000X1.700000*%
%ADD23R,1.600000X1.600000*%
%ADD24O,1.600000X1.600000*%
%ADD25C,1.530000*%
%ADD26RoundRect,0.225000X-0.375000X0.225000X-0.375000X-0.225000X0.375000X-0.225000X0.375000X0.225000X0*%
%ADD27RoundRect,0.250000X0.600000X0.600000X-0.600000X0.600000X-0.600000X-0.600000X0.600000X-0.600000X0*%
%ADD28C,1.700000*%
%ADD29RoundRect,0.250000X-0.475000X0.250000X-0.475000X-0.250000X0.475000X-0.250000X0.475000X0.250000X0*%
%ADD30RoundRect,0.200000X0.275000X-0.200000X0.275000X0.200000X-0.275000X0.200000X-0.275000X-0.200000X0*%
%ADD31R,1.524000X1.524000*%
%ADD32C,1.524000*%
%ADD33RoundRect,0.140000X0.170000X-0.140000X0.170000X0.140000X-0.170000X0.140000X-0.170000X-0.140000X0*%
%ADD34RoundRect,0.200000X-0.275000X0.200000X-0.275000X-0.200000X0.275000X-0.200000X0.275000X0.200000X0*%
%ADD35RoundRect,0.250000X0.845000X-0.620000X0.845000X0.620000X-0.845000X0.620000X-0.845000X-0.620000X0*%
%ADD36O,2.190000X1.740000*%
%ADD37R,0.550000X1.500000*%
G04 APERTURE END LIST*
D10*
X119126000Y-33782000D03*
D11*
X206294000Y-75692000D03*
X180294000Y-75692000D03*
D12*
X186175999Y-47745999D03*
D13*
X188876000Y-47746000D03*
X191576000Y-47746000D03*
X194276000Y-47746000D03*
X196976000Y-47746000D03*
X199676000Y-47746000D03*
X198116000Y-35546000D03*
X194616000Y-35546000D03*
X191116000Y-35546000D03*
X187616000Y-35546000D03*
D10*
X207518000Y-34290000D03*
D14*
X150876000Y-53594000D03*
X169418000Y-65913000D03*
D10*
X207518000Y-123444000D03*
D15*
X203454000Y-110236000D03*
D16*
X203454000Y-110236000D03*
D14*
X199644000Y-67564000D03*
X162306000Y-77978000D03*
X178054000Y-40894000D03*
D17*
X184586999Y-102869999D03*
D18*
X184586999Y-100329999D03*
X184586999Y-97789999D03*
D19*
X177799999Y-47233999D03*
D20*
X179070000Y-48514000D03*
X177800000Y-49774000D03*
D10*
X119380000Y-122682000D03*
D14*
X207264000Y-50546000D03*
X146050000Y-39370000D03*
D15*
X203454000Y-93726000D03*
D16*
X203454000Y-93726000D03*
D21*
X128523999Y-68833999D03*
D22*
X128523999Y-71373999D03*
X128523999Y-73913999D03*
X128523999Y-76453999D03*
X128523999Y-78993999D03*
X128523999Y-81533999D03*
X128523999Y-84073999D03*
X128523999Y-86613999D03*
X128523999Y-89153999D03*
X128523999Y-91693999D03*
D11*
X168148000Y-93218000D03*
X168148000Y-88338000D03*
D23*
X146303999Y-66801999D03*
D24*
X146303999Y-69341999D03*
X146303999Y-71881999D03*
X146303999Y-74421999D03*
X146303999Y-76961999D03*
X146303999Y-79501999D03*
X146303999Y-82041999D03*
X146303999Y-84581999D03*
X146303999Y-87121999D03*
X146303999Y-89661999D03*
X146303999Y-92201999D03*
X146303999Y-94741999D03*
X146303999Y-97281999D03*
X146303999Y-99821999D03*
X138683999Y-99821999D03*
X138683999Y-97281999D03*
X138683999Y-94741999D03*
X138683999Y-92201999D03*
X138683999Y-89661999D03*
X138683999Y-87121999D03*
X138683999Y-84581999D03*
X138683999Y-82041999D03*
X138683999Y-79501999D03*
X138683999Y-76961999D03*
X138683999Y-74421999D03*
X138683999Y-71881999D03*
X138683999Y-69341999D03*
X138683999Y-66801999D03*
D25*
X164084000Y-108731000D03*
X161544000Y-108731000D03*
X159004000Y-108731000D03*
X156464000Y-108731000D03*
D26*
X128016000Y-39370000D03*
X128016000Y-42670000D03*
D27*
X130556000Y-53340000D03*
D28*
X128016000Y-53340000D03*
X130556000Y-55880000D03*
X128016000Y-55880000D03*
X130556000Y-58420000D03*
X128016000Y-58420000D03*
D29*
X161290000Y-88270000D03*
X161290000Y-90170000D03*
D30*
X127952000Y-110934000D03*
X127952000Y-109284000D03*
D31*
X175767999Y-81025999D03*
D32*
X178308000Y-81026000D03*
X180848000Y-81026000D03*
X180848000Y-88646000D03*
X178308000Y-88646000D03*
X175768000Y-88646000D03*
D33*
X124142000Y-110934000D03*
X124142000Y-109974000D03*
D34*
X146304000Y-60135000D03*
X146304000Y-61785000D03*
D29*
X161290000Y-93096000D03*
X161290000Y-94996000D03*
D35*
X128006000Y-103124000D03*
D36*
X128005999Y-100583999D03*
X128005999Y-98043999D03*
D37*
X136244999Y-109219999D03*
X132994999Y-109219999D03*
M02*
