M48
INCH,TZ
T1C0.0157
T2C0.0295
T3C0.0315
T4C0.0320
T5C0.0394
T6C0.0402
T7C0.0431
T8C0.0433
T9C0.0469
T10C0.0787
T11C0.3150
%
G90
G05
T1
X48900Y-42500
X51900Y-15500
X52300Y-16800
X53000Y-16100
X54300Y-23000
X54600Y-17600
X54700Y-19000
X58710Y-12955
X59000Y-18800
X60500Y-33100
X62500Y-25400
X62800Y-35500
X63245Y-21350
X63445Y-23350
X63500Y-38900
X64110Y-13155
X65600Y-41200
X68000Y-21196
X70200Y-24000
X71000Y-25200
X72000Y-25200
X73100Y-26800
X73300Y-15400
X73300Y-16400
X73300Y-26400
X73400Y-27200
X73600Y-26800
X73800Y-26400
X73900Y-27200
X74100Y-26800
X74300Y-15400
X74300Y-16400
X74400Y-27200
X75200Y-42000
X75200Y-42900
X75200Y-43800
X75200Y-44700
X75400Y-15400
X75400Y-16400
X76000Y-42400
X76000Y-43300
X76000Y-44200
X76500Y-15400
X76500Y-16400
X76800Y-42000
X76800Y-42900
X76800Y-43800
X76800Y-44600
X77400Y-15400
X77400Y-16400
X78100Y-21700
X78500Y-15400
X78500Y-16400
X79200Y-31200
X79200Y-32000
X79200Y-32800
X79200Y-33600
X79200Y-34400
X80100Y-30900
X80100Y-31500
X80100Y-32200
X80100Y-32800
X80100Y-33400
X80100Y-34100
X81000Y-31200
X81000Y-31900
X81000Y-32800
X81000Y-33600
X81000Y-34300
T2
X70000Y-18596
X70000Y-19596
X70500Y-19100
T3
X54600Y-26300
X54600Y-27300
X54600Y-28300
X54600Y-29300
X54600Y-30300
X54600Y-31300
X54600Y-32300
X54600Y-33300
X54600Y-34300
X54600Y-35300
X54600Y-36300
X54600Y-37300
X54600Y-38300
X54600Y-39300
X57600Y-26300
X57600Y-27300
X57600Y-28300
X57600Y-29300
X57600Y-30300
X57600Y-31300
X57600Y-32300
X57600Y-33300
X57600Y-34300
X57600Y-35300
X57600Y-36300
X57600Y-37300
X57600Y-38300
X57600Y-39300
X66200Y-34779
X66200Y-36700
T4
X69200Y-31900
X69200Y-34900
X70200Y-31900
X70200Y-34900
X71200Y-31900
X71200Y-34900
T5
X50400Y-21000
X50400Y-22000
X50400Y-23000
X50600Y-27100
X50600Y-28100
X50600Y-29100
X50600Y-30100
X50600Y-31100
X50600Y-32100
X50600Y-33100
X50600Y-34100
X50600Y-35100
X50600Y-36100
X51400Y-21000
X51400Y-22000
X51400Y-23000
X70982Y-29800
X81218Y-29800
T6
X61600Y-42807
X62600Y-42807
X63600Y-42807
X64600Y-42807
T7
X73298Y-18798
X73865Y-13994
X74361Y-18798
X75243Y-13994
X75424Y-18798
X76487Y-18798
X76620Y-13994
X77550Y-18798
X77998Y-13994
X78613Y-18798
T8
X72672Y-38500
X72672Y-39500
X72672Y-40500
T9
X50396Y-38600
X50396Y-39600
X50396Y-40600
T10
X57500Y-15500
X59400Y-21100
X63900Y-30700
X66700Y-25950
X70100Y-16100
X78600Y-26600
X81600Y-19900
T11
X80100Y-36900
X80100Y-43400
T0
M30
