G04 #@! TF.GenerationSoftware,KiCad,Pcbnew,(7.0.0)*
G04 #@! TF.CreationDate,2023-03-08T04:37:20-06:00*
G04 #@! TF.ProjectId,445,3434352e-6b69-4636-9164-5f7063625858,rev?*
G04 #@! TF.SameCoordinates,Original*
G04 #@! TF.FileFunction,Paste,Top*
G04 #@! TF.FilePolarity,Positive*
%FSLAX46Y46*%
G04 Gerber Fmt 4.6, Leading zero omitted, Abs format (unit mm)*
G04 Created by KiCad (PCBNEW (7.0.0)) date 2023-03-08 04:37:20*
%MOMM*%
%LPD*%
G01*
G04 APERTURE LIST*
G04 Aperture macros list*
%AMRoundRect*
0 Rectangle with rounded corners*
0 $1 Rounding radius*
0 $2 $3 $4 $5 $6 $7 $8 $9 X,Y pos of 4 corners*
0 Add a 4 corners polygon primitive as box body*
4,1,4,$2,$3,$4,$5,$6,$7,$8,$9,$2,$3,0*
0 Add four circle primitives for the rounded corners*
1,1,$1+$1,$2,$3*
1,1,$1+$1,$4,$5*
1,1,$1+$1,$6,$7*
1,1,$1+$1,$8,$9*
0 Add four rect primitives between the rounded corners*
20,1,$1+$1,$2,$3,$4,$5,0*
20,1,$1+$1,$4,$5,$6,$7,0*
20,1,$1+$1,$6,$7,$8,$9,0*
20,1,$1+$1,$8,$9,$2,$3,0*%
G04 Aperture macros list end*
%ADD10R,2.895600X2.400300*%
%ADD11R,1.200000X0.400000*%
%ADD12R,1.850000X0.500000*%
%ADD13RoundRect,0.225000X0.225000X0.250000X-0.225000X0.250000X-0.225000X-0.250000X0.225000X-0.250000X0*%
%ADD14RoundRect,0.200000X-0.200000X-0.275000X0.200000X-0.275000X0.200000X0.275000X-0.200000X0.275000X0*%
%ADD15RoundRect,0.280000X-0.570000X-0.280000X0.570000X-0.280000X0.570000X0.280000X-0.570000X0.280000X0*%
%ADD16R,1.300000X0.400000*%
%ADD17RoundRect,0.225000X0.375000X-0.225000X0.375000X0.225000X-0.375000X0.225000X-0.375000X-0.225000X0*%
%ADD18O,2.200001X0.599999*%
%ADD19RoundRect,0.200000X0.275000X-0.200000X0.275000X0.200000X-0.275000X0.200000X-0.275000X-0.200000X0*%
%ADD20RoundRect,0.250000X0.475000X-0.250000X0.475000X0.250000X-0.475000X0.250000X-0.475000X-0.250000X0*%
%ADD21RoundRect,0.250000X0.262500X0.450000X-0.262500X0.450000X-0.262500X-0.450000X0.262500X-0.450000X0*%
%ADD22RoundRect,0.200000X-0.275000X0.200000X-0.275000X-0.200000X0.275000X-0.200000X0.275000X0.200000X0*%
%ADD23RoundRect,0.250000X-0.450000X0.262500X-0.450000X-0.262500X0.450000X-0.262500X0.450000X0.262500X0*%
%ADD24R,0.914400X1.905000*%
%ADD25RoundRect,0.225000X-0.250000X0.225000X-0.250000X-0.225000X0.250000X-0.225000X0.250000X0.225000X0*%
%ADD26R,1.168400X0.457200*%
%ADD27RoundRect,0.200000X0.200000X0.275000X-0.200000X0.275000X-0.200000X-0.275000X0.200000X-0.275000X0*%
%ADD28RoundRect,0.225000X0.250000X-0.225000X0.250000X0.225000X-0.250000X0.225000X-0.250000X-0.225000X0*%
%ADD29RoundRect,0.140000X0.170000X-0.140000X0.170000X0.140000X-0.170000X0.140000X-0.170000X-0.140000X0*%
%ADD30RoundRect,0.225000X-0.225000X-0.250000X0.225000X-0.250000X0.225000X0.250000X-0.225000X0.250000X0*%
%ADD31R,2.260600X5.511800*%
%ADD32RoundRect,0.135000X-0.135000X-0.185000X0.135000X-0.185000X0.135000X0.185000X-0.135000X0.185000X0*%
%ADD33R,0.400000X1.300000*%
%ADD34RoundRect,0.140000X-0.170000X0.140000X-0.170000X-0.140000X0.170000X-0.140000X0.170000X0.140000X0*%
%ADD35R,1.500000X0.550000*%
%ADD36R,2.057400X2.260600*%
%ADD37R,0.762000X1.219200*%
G04 APERTURE END LIST*
D10*
X179069999Y-60718699D03*
X179069999Y-54609999D03*
D11*
X167049999Y-43349999D03*
X167049999Y-43999999D03*
X167049999Y-44649999D03*
X168949999Y-44649999D03*
X168949999Y-43349999D03*
D12*
X199874999Y-60939999D03*
X199874999Y-58439999D03*
X193824999Y-58439999D03*
X193824999Y-60939999D03*
D13*
X185700000Y-88900000D03*
X184150000Y-88900000D03*
D14*
X173500000Y-71000000D03*
X175150000Y-71000000D03*
D15*
X204850000Y-66695000D03*
X204850000Y-68695000D03*
X204850000Y-70695000D03*
X204850000Y-72695000D03*
X193930000Y-72695000D03*
X193930000Y-70695000D03*
X193930000Y-68695000D03*
X193930000Y-66695000D03*
D16*
X174599999Y-35299999D03*
X174599999Y-34649999D03*
X174599999Y-33999999D03*
X172999999Y-33999999D03*
X172999999Y-34649999D03*
X172999999Y-35299999D03*
D17*
X179000000Y-51150000D03*
X179000000Y-47850000D03*
D18*
X207289999Y-76199999D03*
X207289999Y-77469999D03*
X207289999Y-78739999D03*
X207289999Y-80009999D03*
X212089999Y-80009999D03*
X212089999Y-78739999D03*
X212089999Y-76199999D03*
D19*
X141000000Y-42650000D03*
X141000000Y-41000000D03*
X210820000Y-90170000D03*
X210820000Y-91820000D03*
D20*
X141000000Y-63900000D03*
X141000000Y-62000000D03*
D21*
X213002500Y-71120000D03*
X211177500Y-71120000D03*
D22*
X147000000Y-34000000D03*
X147000000Y-35650000D03*
X204470000Y-91440000D03*
X204470000Y-93090000D03*
D23*
X207010000Y-91995000D03*
X207010000Y-90170000D03*
D24*
X207009999Y-96519999D03*
X203606399Y-96519999D03*
D25*
X196850000Y-80505000D03*
X196850000Y-82055000D03*
D26*
X194157599Y-88899999D03*
X191922399Y-88899999D03*
D16*
X140999999Y-33999999D03*
X140999999Y-34649999D03*
X140999999Y-35299999D03*
X142599999Y-35299999D03*
X142599999Y-34649999D03*
X142599999Y-33999999D03*
D27*
X194056000Y-92202000D03*
X192406000Y-92202000D03*
X173545000Y-63500000D03*
X171895000Y-63500000D03*
D14*
X192215000Y-76200000D03*
X193865000Y-76200000D03*
D19*
X150000000Y-35650000D03*
X150000000Y-34000000D03*
D27*
X199770000Y-88900000D03*
X198120000Y-88900000D03*
D28*
X175260000Y-59970000D03*
X175260000Y-58420000D03*
D29*
X140500000Y-58980000D03*
X140500000Y-58020000D03*
D30*
X171170000Y-45720000D03*
X172720000Y-45720000D03*
D14*
X162175000Y-45000000D03*
X163825000Y-45000000D03*
D29*
X143500000Y-39460000D03*
X143500000Y-38500000D03*
D16*
X160799999Y-82649999D03*
X160799999Y-81999999D03*
X160799999Y-81349999D03*
X159199999Y-81349999D03*
X159199999Y-81999999D03*
X159199999Y-82649999D03*
D14*
X171895000Y-67310000D03*
X173545000Y-67310000D03*
D31*
X210819999Y-59689999D03*
X205866999Y-59689999D03*
D32*
X204980000Y-88900000D03*
X203960000Y-88900000D03*
D33*
X209549999Y-86359999D03*
X208899999Y-86359999D03*
X208249999Y-86359999D03*
X208249999Y-84759999D03*
X208899999Y-84759999D03*
X209549999Y-84759999D03*
D29*
X158000000Y-44960000D03*
X158000000Y-44000000D03*
D19*
X168910000Y-51625000D03*
X168910000Y-49975000D03*
D20*
X138500000Y-63900000D03*
X138500000Y-62000000D03*
D34*
X147000000Y-37520000D03*
X147000000Y-38480000D03*
D14*
X198565000Y-76200000D03*
X200215000Y-76200000D03*
D35*
X165999999Y-59749999D03*
X165999999Y-56499999D03*
D36*
X182752999Y-66039999D03*
X186689999Y-66039999D03*
D30*
X182880000Y-69850000D03*
X184430000Y-69850000D03*
D16*
X138599999Y-81999999D03*
X138599999Y-81349999D03*
X138599999Y-80699999D03*
X136999999Y-80699999D03*
X136999999Y-81349999D03*
X136999999Y-81999999D03*
D37*
X201523599Y-78333599D03*
X201523599Y-81686399D03*
M02*
