M48
INCH,TZ
T1C0.0157
T2C0.0315
T3C0.0320
T4C0.0394
T5C0.0402
T6C0.0433
T7C0.0469
T8C0.0591
T9C0.1102
%
G90
G05
T1
X56299Y-16142
X56890Y-15551
X56890Y-32254
X57278Y-13577
X57283Y-13976
X57351Y-15090
X57480Y-20079
X58000Y-17000
X58268Y-18701
X58268Y-31890
X58858Y-17913
X60236Y-35039
X60827Y-24409
X61024Y-33465
X61417Y-32254
X61811Y-31102
X62205Y-18504
X62795Y-30118
X63780Y-31102
X64000Y-17000
X64173Y-19291
X64961Y-16535
X65940Y-25000
X65945Y-14567
X66339Y-31693
X66535Y-13583
X66535Y-16339
X66535Y-26378
X71457Y-16339
X75120Y-34100
X77260Y-33320
X77660Y-36280
X78260Y-36960
X79320Y-35860
X79780Y-35500
X80000Y-29500
X81620Y-28740
X84000Y-29000
X84500Y-27000
X85000Y-24500
X85900Y-30360
X88000Y-26195
T2
X52756Y-25244
X52756Y-27165
X56693Y-17835
X56693Y-18835
X56693Y-19835
X56693Y-20835
X56693Y-21835
X56693Y-22835
X56693Y-23835
X56693Y-24835
X56693Y-25835
X56693Y-26835
X56693Y-27835
X56693Y-28835
X56693Y-29835
X56693Y-30835
X59693Y-17835
X59693Y-18835
X59693Y-19835
X59693Y-20835
X59693Y-21835
X59693Y-22835
X59693Y-23835
X59693Y-24835
X59693Y-25835
X59693Y-26835
X59693Y-27835
X59693Y-28835
X59693Y-29835
X59693Y-30835
T3
X71500Y-30000
X71500Y-31000
X71500Y-32000
X74500Y-30000
X74500Y-31000
X74500Y-32000
T4
X62388Y-13483
X62388Y-14483
X63388Y-13483
X63388Y-14483
X64388Y-13483
X64388Y-14483
X75591Y-21260
X85827Y-21260
T5
X59236Y-36614
X60236Y-36614
X61236Y-36614
X62236Y-36614
T6
X87370Y-26969
X88370Y-26969
X89370Y-26969
T7
X62992Y-23213
X62992Y-24213
X62992Y-25213
T8
X87205Y-30906
X87598Y-21260
X88780Y-30906
X89173Y-21260
T9
X66142Y-28346
X70000Y-17000
X74120Y-24000
X74500Y-28000
X77800Y-38280
X84500Y-34000
T0
M30
