G04 #@! TF.GenerationSoftware,KiCad,Pcbnew,(7.0.0)*
G04 #@! TF.CreationDate,2023-03-08T04:37:20-06:00*
G04 #@! TF.ProjectId,445,3434352e-6b69-4636-9164-5f7063625858,rev?*
G04 #@! TF.SameCoordinates,Original*
G04 #@! TF.FileFunction,Soldermask,Top*
G04 #@! TF.FilePolarity,Negative*
%FSLAX46Y46*%
G04 Gerber Fmt 4.6, Leading zero omitted, Abs format (unit mm)*
G04 Created by KiCad (PCBNEW (7.0.0)) date 2023-03-08 04:37:20*
%MOMM*%
%LPD*%
G01*
G04 APERTURE LIST*
G04 Aperture macros list*
%AMRoundRect*
0 Rectangle with rounded corners*
0 $1 Rounding radius*
0 $2 $3 $4 $5 $6 $7 $8 $9 X,Y pos of 4 corners*
0 Add a 4 corners polygon primitive as box body*
4,1,4,$2,$3,$4,$5,$6,$7,$8,$9,$2,$3,0*
0 Add four circle primitives for the rounded corners*
1,1,$1+$1,$2,$3*
1,1,$1+$1,$4,$5*
1,1,$1+$1,$6,$7*
1,1,$1+$1,$8,$9*
0 Add four rect primitives between the rounded corners*
20,1,$1+$1,$2,$3,$4,$5,0*
20,1,$1+$1,$4,$5,$6,$7,0*
20,1,$1+$1,$6,$7,$8,$9,0*
20,1,$1+$1,$8,$9,$2,$3,0*%
G04 Aperture macros list end*
%ADD10R,2.895600X2.400300*%
%ADD11C,3.200000*%
%ADD12R,1.200000X0.400000*%
%ADD13C,1.500000*%
%ADD14R,1.850000X0.500000*%
%ADD15RoundRect,0.225000X0.225000X0.250000X-0.225000X0.250000X-0.225000X-0.250000X0.225000X-0.250000X0*%
%ADD16RoundRect,0.200000X-0.200000X-0.275000X0.200000X-0.275000X0.200000X0.275000X-0.200000X0.275000X0*%
%ADD17RoundRect,0.280000X-0.570000X-0.280000X0.570000X-0.280000X0.570000X0.280000X-0.570000X0.280000X0*%
%ADD18R,1.600000X1.600000*%
%ADD19O,1.600000X1.600000*%
%ADD20R,1.300000X0.400000*%
%ADD21C,1.530000*%
%ADD22RoundRect,0.225000X0.375000X-0.225000X0.375000X0.225000X-0.375000X0.225000X-0.375000X-0.225000X0*%
%ADD23O,2.200001X0.599999*%
%ADD24RoundRect,0.250000X-0.600000X0.600000X-0.600000X-0.600000X0.600000X-0.600000X0.600000X0.600000X0*%
%ADD25C,1.700000*%
%ADD26RoundRect,0.200000X0.275000X-0.200000X0.275000X0.200000X-0.275000X0.200000X-0.275000X-0.200000X0*%
%ADD27RoundRect,0.250000X0.475000X-0.250000X0.475000X0.250000X-0.475000X0.250000X-0.475000X-0.250000X0*%
%ADD28RoundRect,0.250000X0.262500X0.450000X-0.262500X0.450000X-0.262500X-0.450000X0.262500X-0.450000X0*%
%ADD29RoundRect,0.200000X-0.275000X0.200000X-0.275000X-0.200000X0.275000X-0.200000X0.275000X0.200000X0*%
%ADD30RoundRect,0.250000X-0.450000X0.262500X-0.450000X-0.262500X0.450000X-0.262500X0.450000X0.262500X0*%
%ADD31R,0.914400X1.905000*%
%ADD32C,4.800000*%
%ADD33RoundRect,0.225000X-0.250000X0.225000X-0.250000X-0.225000X0.250000X-0.225000X0.250000X0.225000X0*%
%ADD34R,1.168400X0.457200*%
%ADD35RoundRect,0.200000X0.200000X0.275000X-0.200000X0.275000X-0.200000X-0.275000X0.200000X-0.275000X0*%
%ADD36C,3.000000*%
%ADD37RoundRect,0.225000X0.250000X-0.225000X0.250000X0.225000X-0.250000X0.225000X-0.250000X-0.225000X0*%
%ADD38RoundRect,0.140000X0.170000X-0.140000X0.170000X0.140000X-0.170000X0.140000X-0.170000X-0.140000X0*%
%ADD39RoundRect,0.225000X-0.225000X-0.250000X0.225000X-0.250000X0.225000X0.250000X-0.225000X0.250000X0*%
%ADD40R,1.905000X2.000000*%
%ADD41O,1.905000X2.000000*%
%ADD42R,1.524000X1.524000*%
%ADD43C,1.524000*%
%ADD44R,2.260600X5.511800*%
%ADD45RoundRect,0.135000X-0.135000X-0.185000X0.135000X-0.185000X0.135000X0.185000X-0.135000X0.185000X0*%
%ADD46R,0.400000X1.300000*%
%ADD47RoundRect,0.250000X0.845000X-0.620000X0.845000X0.620000X-0.845000X0.620000X-0.845000X-0.620000X0*%
%ADD48O,2.190000X1.740000*%
%ADD49RoundRect,0.140000X-0.170000X0.140000X-0.170000X-0.140000X0.170000X-0.140000X0.170000X0.140000X0*%
%ADD50R,1.500000X0.550000*%
%ADD51R,2.057400X2.260600*%
%ADD52R,0.762000X1.219200*%
G04 APERTURE END LIST*
D10*
X179069999Y-60718699D03*
X179069999Y-54609999D03*
D11*
X135000000Y-36000000D03*
D12*
X167049999Y-43349999D03*
X167049999Y-43999999D03*
X167049999Y-44649999D03*
X168949999Y-44649999D03*
X168949999Y-43349999D03*
D13*
X134000000Y-69000000D03*
X134000000Y-64120000D03*
D14*
X199874999Y-60939999D03*
X199874999Y-58439999D03*
X193824999Y-58439999D03*
X193824999Y-60939999D03*
D15*
X185700000Y-88900000D03*
X184150000Y-88900000D03*
D16*
X173500000Y-71000000D03*
X175150000Y-71000000D03*
D13*
X218000000Y-54000000D03*
X192000000Y-54000000D03*
D17*
X204850000Y-66695000D03*
X204850000Y-68695000D03*
X204850000Y-70695000D03*
X204850000Y-72695000D03*
X193930000Y-72695000D03*
X193930000Y-70695000D03*
X193930000Y-68695000D03*
X193930000Y-66695000D03*
D11*
X224000000Y-36000000D03*
D18*
X143999999Y-45299999D03*
D19*
X143999999Y-47839999D03*
X143999999Y-50379999D03*
X143999999Y-52919999D03*
X143999999Y-55459999D03*
X143999999Y-57999999D03*
X143999999Y-60539999D03*
X143999999Y-63079999D03*
X143999999Y-65619999D03*
X143999999Y-68159999D03*
X143999999Y-70699999D03*
X143999999Y-73239999D03*
X143999999Y-75779999D03*
X143999999Y-78319999D03*
X151619999Y-78319999D03*
X151619999Y-75779999D03*
X151619999Y-73239999D03*
X151619999Y-70699999D03*
X151619999Y-68159999D03*
X151619999Y-65619999D03*
X151619999Y-63079999D03*
X151619999Y-60539999D03*
X151619999Y-57999999D03*
X151619999Y-55459999D03*
X151619999Y-52919999D03*
X151619999Y-50379999D03*
X151619999Y-47839999D03*
X151619999Y-45299999D03*
D20*
X174599999Y-35299999D03*
X174599999Y-34649999D03*
X174599999Y-33999999D03*
X172999999Y-33999999D03*
X172999999Y-34649999D03*
X172999999Y-35299999D03*
D21*
X150460000Y-93000000D03*
X153000000Y-93000000D03*
X155540000Y-93000000D03*
X158080000Y-93000000D03*
D22*
X179000000Y-51150000D03*
X179000000Y-47850000D03*
D23*
X207289999Y-76199999D03*
X207289999Y-77469999D03*
X207289999Y-78739999D03*
X207289999Y-80009999D03*
X212089999Y-80009999D03*
X212089999Y-78739999D03*
X212089999Y-76199999D03*
D24*
X163545000Y-34247500D03*
D25*
X163545000Y-36787500D03*
X161005000Y-34247500D03*
X161005000Y-36787500D03*
X158465000Y-34247500D03*
X158465000Y-36787500D03*
D26*
X141000000Y-42650000D03*
X141000000Y-41000000D03*
X210820000Y-90170000D03*
X210820000Y-91820000D03*
D27*
X141000000Y-63900000D03*
X141000000Y-62000000D03*
D28*
X213002500Y-71120000D03*
X211177500Y-71120000D03*
D29*
X147000000Y-34000000D03*
X147000000Y-35650000D03*
X204470000Y-91440000D03*
X204470000Y-93090000D03*
D30*
X207010000Y-91995000D03*
X207010000Y-90170000D03*
D31*
X207009999Y-96519999D03*
X203606399Y-96519999D03*
D32*
X177800000Y-43180000D03*
D33*
X196850000Y-80505000D03*
X196850000Y-82055000D03*
D34*
X194157599Y-88899999D03*
X191922399Y-88899999D03*
D32*
X197612000Y-97231200D03*
D20*
X140999999Y-33999999D03*
X140999999Y-34649999D03*
X140999999Y-35299999D03*
X142599999Y-35299999D03*
X142599999Y-34649999D03*
X142599999Y-33999999D03*
D35*
X194056000Y-92202000D03*
X192406000Y-92202000D03*
D11*
X225000000Y-93000000D03*
D35*
X173545000Y-63500000D03*
X171895000Y-63500000D03*
D16*
X192215000Y-76200000D03*
X193865000Y-76200000D03*
D26*
X150000000Y-35650000D03*
X150000000Y-34000000D03*
D36*
X221500000Y-78500000D03*
X225500000Y-78500000D03*
D32*
X188264800Y-60960000D03*
X168000000Y-72000000D03*
D35*
X199770000Y-88900000D03*
X198120000Y-88900000D03*
D37*
X175260000Y-59970000D03*
X175260000Y-58420000D03*
D38*
X140500000Y-58980000D03*
X140500000Y-58020000D03*
D39*
X171170000Y-45720000D03*
X172720000Y-45720000D03*
D16*
X162175000Y-45000000D03*
X163825000Y-45000000D03*
D38*
X143500000Y-39460000D03*
X143500000Y-38500000D03*
D40*
X226999999Y-68499999D03*
D41*
X224459999Y-68499999D03*
X221919999Y-68499999D03*
D20*
X160799999Y-82649999D03*
X160799999Y-81999999D03*
X160799999Y-81349999D03*
X159199999Y-81349999D03*
X159199999Y-81999999D03*
X159199999Y-82649999D03*
D16*
X171895000Y-67310000D03*
X173545000Y-67310000D03*
D42*
X181609999Y-76199999D03*
D43*
X181610000Y-78740000D03*
X181610000Y-81280000D03*
X189230000Y-81280000D03*
X189230000Y-78740000D03*
X189230000Y-76200000D03*
D44*
X210819999Y-59689999D03*
X205866999Y-59689999D03*
D45*
X204980000Y-88900000D03*
X203960000Y-88900000D03*
D46*
X209549999Y-86359999D03*
X208899999Y-86359999D03*
X208249999Y-86359999D03*
X208249999Y-84759999D03*
X208899999Y-84759999D03*
X209549999Y-84759999D03*
D11*
X134000000Y-91500000D03*
D38*
X158000000Y-44960000D03*
X158000000Y-44000000D03*
D26*
X168910000Y-51625000D03*
X168910000Y-49975000D03*
D27*
X138500000Y-63900000D03*
X138500000Y-62000000D03*
D32*
X214630000Y-86360000D03*
D47*
X160000000Y-64040000D03*
D48*
X159999999Y-61499999D03*
X159999999Y-58959999D03*
D49*
X147000000Y-37520000D03*
X147000000Y-38480000D03*
D32*
X189230000Y-71120000D03*
D16*
X198565000Y-76200000D03*
X200215000Y-76200000D03*
D50*
X165999999Y-59749999D03*
X165999999Y-56499999D03*
D36*
X222500000Y-54000000D03*
X226500000Y-54000000D03*
D51*
X182752999Y-66039999D03*
X186689999Y-66039999D03*
D39*
X182880000Y-69850000D03*
X184430000Y-69850000D03*
D20*
X138599999Y-81999999D03*
X138599999Y-81349999D03*
X138599999Y-80699999D03*
X136999999Y-80699999D03*
X136999999Y-81349999D03*
X136999999Y-81999999D03*
D52*
X201523599Y-78333599D03*
X201523599Y-81686399D03*
M02*
