G04 #@! TF.GenerationSoftware,KiCad,Pcbnew,(7.0.0)*
G04 #@! TF.CreationDate,2023-03-08T04:37:20-06:00*
G04 #@! TF.ProjectId,445,3434352e-6b69-4636-9164-5f7063625858,rev?*
G04 #@! TF.SameCoordinates,Original*
G04 #@! TF.FileFunction,Legend,Top*
G04 #@! TF.FilePolarity,Positive*
%FSLAX46Y46*%
G04 Gerber Fmt 4.6, Leading zero omitted, Abs format (unit mm)*
G04 Created by KiCad (PCBNEW (7.0.0)) date 2023-03-08 04:37:20*
%MOMM*%
%LPD*%
G01*
G04 APERTURE LIST*
%ADD10C,0.150000*%
%ADD11C,0.254000*%
%ADD12C,0.120000*%
%ADD13C,0.200000*%
%ADD14C,0.100000*%
%ADD15C,0.127000*%
%ADD16C,0.152400*%
G04 APERTURE END LIST*
D10*
X182333333Y-57772142D02*
X182285714Y-57819761D01*
X182285714Y-57819761D02*
X182142857Y-57867380D01*
X182142857Y-57867380D02*
X182047619Y-57867380D01*
X182047619Y-57867380D02*
X181904762Y-57819761D01*
X181904762Y-57819761D02*
X181809524Y-57724523D01*
X181809524Y-57724523D02*
X181761905Y-57629285D01*
X181761905Y-57629285D02*
X181714286Y-57438809D01*
X181714286Y-57438809D02*
X181714286Y-57295952D01*
X181714286Y-57295952D02*
X181761905Y-57105476D01*
X181761905Y-57105476D02*
X181809524Y-57010238D01*
X181809524Y-57010238D02*
X181904762Y-56915000D01*
X181904762Y-56915000D02*
X182047619Y-56867380D01*
X182047619Y-56867380D02*
X182142857Y-56867380D01*
X182142857Y-56867380D02*
X182285714Y-56915000D01*
X182285714Y-56915000D02*
X182333333Y-56962619D01*
X183190476Y-56867380D02*
X183000000Y-56867380D01*
X183000000Y-56867380D02*
X182904762Y-56915000D01*
X182904762Y-56915000D02*
X182857143Y-56962619D01*
X182857143Y-56962619D02*
X182761905Y-57105476D01*
X182761905Y-57105476D02*
X182714286Y-57295952D01*
X182714286Y-57295952D02*
X182714286Y-57676904D01*
X182714286Y-57676904D02*
X182761905Y-57772142D01*
X182761905Y-57772142D02*
X182809524Y-57819761D01*
X182809524Y-57819761D02*
X182904762Y-57867380D01*
X182904762Y-57867380D02*
X183095238Y-57867380D01*
X183095238Y-57867380D02*
X183190476Y-57819761D01*
X183190476Y-57819761D02*
X183238095Y-57772142D01*
X183238095Y-57772142D02*
X183285714Y-57676904D01*
X183285714Y-57676904D02*
X183285714Y-57438809D01*
X183285714Y-57438809D02*
X183238095Y-57343571D01*
X183238095Y-57343571D02*
X183190476Y-57295952D01*
X183190476Y-57295952D02*
X183095238Y-57248333D01*
X183095238Y-57248333D02*
X182904762Y-57248333D01*
X182904762Y-57248333D02*
X182809524Y-57295952D01*
X182809524Y-57295952D02*
X182761905Y-57343571D01*
X182761905Y-57343571D02*
X182714286Y-57438809D01*
X181809524Y-58462619D02*
X181857143Y-58415000D01*
X181857143Y-58415000D02*
X181952381Y-58367380D01*
X181952381Y-58367380D02*
X182190476Y-58367380D01*
X182190476Y-58367380D02*
X182285714Y-58415000D01*
X182285714Y-58415000D02*
X182333333Y-58462619D01*
X182333333Y-58462619D02*
X182380952Y-58557857D01*
X182380952Y-58557857D02*
X182380952Y-58653095D01*
X182380952Y-58653095D02*
X182333333Y-58795952D01*
X182333333Y-58795952D02*
X181761905Y-59367380D01*
X181761905Y-59367380D02*
X182380952Y-59367380D01*
X182761905Y-58462619D02*
X182809524Y-58415000D01*
X182809524Y-58415000D02*
X182904762Y-58367380D01*
X182904762Y-58367380D02*
X183142857Y-58367380D01*
X183142857Y-58367380D02*
X183238095Y-58415000D01*
X183238095Y-58415000D02*
X183285714Y-58462619D01*
X183285714Y-58462619D02*
X183333333Y-58557857D01*
X183333333Y-58557857D02*
X183333333Y-58653095D01*
X183333333Y-58653095D02*
X183285714Y-58795952D01*
X183285714Y-58795952D02*
X182714286Y-59367380D01*
X182714286Y-59367380D02*
X183333333Y-59367380D01*
X183952381Y-58367380D02*
X184047619Y-58367380D01*
X184047619Y-58367380D02*
X184142857Y-58415000D01*
X184142857Y-58415000D02*
X184190476Y-58462619D01*
X184190476Y-58462619D02*
X184238095Y-58557857D01*
X184238095Y-58557857D02*
X184285714Y-58748333D01*
X184285714Y-58748333D02*
X184285714Y-58986428D01*
X184285714Y-58986428D02*
X184238095Y-59176904D01*
X184238095Y-59176904D02*
X184190476Y-59272142D01*
X184190476Y-59272142D02*
X184142857Y-59319761D01*
X184142857Y-59319761D02*
X184047619Y-59367380D01*
X184047619Y-59367380D02*
X183952381Y-59367380D01*
X183952381Y-59367380D02*
X183857143Y-59319761D01*
X183857143Y-59319761D02*
X183809524Y-59272142D01*
X183809524Y-59272142D02*
X183761905Y-59176904D01*
X183761905Y-59176904D02*
X183714286Y-58986428D01*
X183714286Y-58986428D02*
X183714286Y-58748333D01*
X183714286Y-58748333D02*
X183761905Y-58557857D01*
X183761905Y-58557857D02*
X183809524Y-58462619D01*
X183809524Y-58462619D02*
X183857143Y-58415000D01*
X183857143Y-58415000D02*
X183952381Y-58367380D01*
X185142857Y-58700714D02*
X185142857Y-59367380D01*
X184714286Y-58700714D02*
X184714286Y-59224523D01*
X184714286Y-59224523D02*
X184761905Y-59319761D01*
X184761905Y-59319761D02*
X184857143Y-59367380D01*
X184857143Y-59367380D02*
X185000000Y-59367380D01*
X185000000Y-59367380D02*
X185095238Y-59319761D01*
X185095238Y-59319761D02*
X185142857Y-59272142D01*
X134238095Y-32167380D02*
X134238095Y-31167380D01*
X134238095Y-31643571D02*
X134809523Y-31643571D01*
X134809523Y-32167380D02*
X134809523Y-31167380D01*
X135809523Y-32167380D02*
X135238095Y-32167380D01*
X135523809Y-32167380D02*
X135523809Y-31167380D01*
X135523809Y-31167380D02*
X135428571Y-31310238D01*
X135428571Y-31310238D02*
X135333333Y-31405476D01*
X135333333Y-31405476D02*
X135238095Y-31453095D01*
D11*
X167032380Y-43196573D02*
X167032380Y-44224669D01*
X167032380Y-44224669D02*
X167092857Y-44345621D01*
X167092857Y-44345621D02*
X167153333Y-44406097D01*
X167153333Y-44406097D02*
X167274285Y-44466573D01*
X167274285Y-44466573D02*
X167516190Y-44466573D01*
X167516190Y-44466573D02*
X167637142Y-44406097D01*
X167637142Y-44406097D02*
X167697619Y-44345621D01*
X167697619Y-44345621D02*
X167758095Y-44224669D01*
X167758095Y-44224669D02*
X167758095Y-43196573D01*
X168302380Y-43317526D02*
X168362856Y-43257050D01*
X168362856Y-43257050D02*
X168483809Y-43196573D01*
X168483809Y-43196573D02*
X168786190Y-43196573D01*
X168786190Y-43196573D02*
X168907142Y-43257050D01*
X168907142Y-43257050D02*
X168967618Y-43317526D01*
X168967618Y-43317526D02*
X169028095Y-43438478D01*
X169028095Y-43438478D02*
X169028095Y-43559430D01*
X169028095Y-43559430D02*
X168967618Y-43740859D01*
X168967618Y-43740859D02*
X168241904Y-44466573D01*
X168241904Y-44466573D02*
X169028095Y-44466573D01*
D10*
X137891190Y-69976190D02*
X138367380Y-69976190D01*
X137367380Y-70309523D02*
X137891190Y-69976190D01*
X137891190Y-69976190D02*
X137367380Y-69642857D01*
X138367380Y-68785714D02*
X138367380Y-69357142D01*
X138367380Y-69071428D02*
X137367380Y-69071428D01*
X137367380Y-69071428D02*
X137510238Y-69166666D01*
X137510238Y-69166666D02*
X137605476Y-69261904D01*
X137605476Y-69261904D02*
X137653095Y-69357142D01*
D11*
X195912618Y-60156573D02*
X195912618Y-58886573D01*
X195912618Y-58886573D02*
X196214999Y-58886573D01*
X196214999Y-58886573D02*
X196396428Y-58947050D01*
X196396428Y-58947050D02*
X196517380Y-59068002D01*
X196517380Y-59068002D02*
X196577857Y-59188954D01*
X196577857Y-59188954D02*
X196638333Y-59430859D01*
X196638333Y-59430859D02*
X196638333Y-59612288D01*
X196638333Y-59612288D02*
X196577857Y-59854192D01*
X196577857Y-59854192D02*
X196517380Y-59975145D01*
X196517380Y-59975145D02*
X196396428Y-60096097D01*
X196396428Y-60096097D02*
X196214999Y-60156573D01*
X196214999Y-60156573D02*
X195912618Y-60156573D01*
X197122142Y-59007526D02*
X197182618Y-58947050D01*
X197182618Y-58947050D02*
X197303571Y-58886573D01*
X197303571Y-58886573D02*
X197605952Y-58886573D01*
X197605952Y-58886573D02*
X197726904Y-58947050D01*
X197726904Y-58947050D02*
X197787380Y-59007526D01*
X197787380Y-59007526D02*
X197847857Y-59128478D01*
X197847857Y-59128478D02*
X197847857Y-59249430D01*
X197847857Y-59249430D02*
X197787380Y-59430859D01*
X197787380Y-59430859D02*
X197061666Y-60156573D01*
X197061666Y-60156573D02*
X197847857Y-60156573D01*
D10*
X184758333Y-87172142D02*
X184710714Y-87219761D01*
X184710714Y-87219761D02*
X184567857Y-87267380D01*
X184567857Y-87267380D02*
X184472619Y-87267380D01*
X184472619Y-87267380D02*
X184329762Y-87219761D01*
X184329762Y-87219761D02*
X184234524Y-87124523D01*
X184234524Y-87124523D02*
X184186905Y-87029285D01*
X184186905Y-87029285D02*
X184139286Y-86838809D01*
X184139286Y-86838809D02*
X184139286Y-86695952D01*
X184139286Y-86695952D02*
X184186905Y-86505476D01*
X184186905Y-86505476D02*
X184234524Y-86410238D01*
X184234524Y-86410238D02*
X184329762Y-86315000D01*
X184329762Y-86315000D02*
X184472619Y-86267380D01*
X184472619Y-86267380D02*
X184567857Y-86267380D01*
X184567857Y-86267380D02*
X184710714Y-86315000D01*
X184710714Y-86315000D02*
X184758333Y-86362619D01*
X185710714Y-87267380D02*
X185139286Y-87267380D01*
X185425000Y-87267380D02*
X185425000Y-86267380D01*
X185425000Y-86267380D02*
X185329762Y-86410238D01*
X185329762Y-86410238D02*
X185234524Y-86505476D01*
X185234524Y-86505476D02*
X185139286Y-86553095D01*
X174158333Y-69937380D02*
X173825000Y-69461190D01*
X173586905Y-69937380D02*
X173586905Y-68937380D01*
X173586905Y-68937380D02*
X173967857Y-68937380D01*
X173967857Y-68937380D02*
X174063095Y-68985000D01*
X174063095Y-68985000D02*
X174110714Y-69032619D01*
X174110714Y-69032619D02*
X174158333Y-69127857D01*
X174158333Y-69127857D02*
X174158333Y-69270714D01*
X174158333Y-69270714D02*
X174110714Y-69365952D01*
X174110714Y-69365952D02*
X174063095Y-69413571D01*
X174063095Y-69413571D02*
X173967857Y-69461190D01*
X173967857Y-69461190D02*
X173586905Y-69461190D01*
X174729762Y-69365952D02*
X174634524Y-69318333D01*
X174634524Y-69318333D02*
X174586905Y-69270714D01*
X174586905Y-69270714D02*
X174539286Y-69175476D01*
X174539286Y-69175476D02*
X174539286Y-69127857D01*
X174539286Y-69127857D02*
X174586905Y-69032619D01*
X174586905Y-69032619D02*
X174634524Y-68985000D01*
X174634524Y-68985000D02*
X174729762Y-68937380D01*
X174729762Y-68937380D02*
X174920238Y-68937380D01*
X174920238Y-68937380D02*
X175015476Y-68985000D01*
X175015476Y-68985000D02*
X175063095Y-69032619D01*
X175063095Y-69032619D02*
X175110714Y-69127857D01*
X175110714Y-69127857D02*
X175110714Y-69175476D01*
X175110714Y-69175476D02*
X175063095Y-69270714D01*
X175063095Y-69270714D02*
X175015476Y-69318333D01*
X175015476Y-69318333D02*
X174920238Y-69365952D01*
X174920238Y-69365952D02*
X174729762Y-69365952D01*
X174729762Y-69365952D02*
X174634524Y-69413571D01*
X174634524Y-69413571D02*
X174586905Y-69461190D01*
X174586905Y-69461190D02*
X174539286Y-69556428D01*
X174539286Y-69556428D02*
X174539286Y-69746904D01*
X174539286Y-69746904D02*
X174586905Y-69842142D01*
X174586905Y-69842142D02*
X174634524Y-69889761D01*
X174634524Y-69889761D02*
X174729762Y-69937380D01*
X174729762Y-69937380D02*
X174920238Y-69937380D01*
X174920238Y-69937380D02*
X175015476Y-69889761D01*
X175015476Y-69889761D02*
X175063095Y-69842142D01*
X175063095Y-69842142D02*
X175110714Y-69746904D01*
X175110714Y-69746904D02*
X175110714Y-69556428D01*
X175110714Y-69556428D02*
X175063095Y-69461190D01*
X175063095Y-69461190D02*
X175015476Y-69413571D01*
X175015476Y-69413571D02*
X174920238Y-69365952D01*
D11*
X204183571Y-50466573D02*
X203760237Y-49861811D01*
X203457856Y-50466573D02*
X203457856Y-49196573D01*
X203457856Y-49196573D02*
X203941666Y-49196573D01*
X203941666Y-49196573D02*
X204062618Y-49257050D01*
X204062618Y-49257050D02*
X204123095Y-49317526D01*
X204123095Y-49317526D02*
X204183571Y-49438478D01*
X204183571Y-49438478D02*
X204183571Y-49619907D01*
X204183571Y-49619907D02*
X204123095Y-49740859D01*
X204123095Y-49740859D02*
X204062618Y-49801335D01*
X204062618Y-49801335D02*
X203941666Y-49861811D01*
X203941666Y-49861811D02*
X203457856Y-49861811D01*
X205393095Y-50466573D02*
X204667380Y-50466573D01*
X205030237Y-50466573D02*
X205030237Y-49196573D01*
X205030237Y-49196573D02*
X204909285Y-49378002D01*
X204909285Y-49378002D02*
X204788333Y-49498954D01*
X204788333Y-49498954D02*
X204667380Y-49559430D01*
X206481666Y-49196573D02*
X206239761Y-49196573D01*
X206239761Y-49196573D02*
X206118809Y-49257050D01*
X206118809Y-49257050D02*
X206058333Y-49317526D01*
X206058333Y-49317526D02*
X205937380Y-49498954D01*
X205937380Y-49498954D02*
X205876904Y-49740859D01*
X205876904Y-49740859D02*
X205876904Y-50224669D01*
X205876904Y-50224669D02*
X205937380Y-50345621D01*
X205937380Y-50345621D02*
X205997857Y-50406097D01*
X205997857Y-50406097D02*
X206118809Y-50466573D01*
X206118809Y-50466573D02*
X206360714Y-50466573D01*
X206360714Y-50466573D02*
X206481666Y-50406097D01*
X206481666Y-50406097D02*
X206542142Y-50345621D01*
X206542142Y-50345621D02*
X206602619Y-50224669D01*
X206602619Y-50224669D02*
X206602619Y-49922288D01*
X206602619Y-49922288D02*
X206542142Y-49801335D01*
X206542142Y-49801335D02*
X206481666Y-49740859D01*
X206481666Y-49740859D02*
X206360714Y-49680383D01*
X206360714Y-49680383D02*
X206118809Y-49680383D01*
X206118809Y-49680383D02*
X205997857Y-49740859D01*
X205997857Y-49740859D02*
X205937380Y-49801335D01*
X205937380Y-49801335D02*
X205876904Y-49922288D01*
D10*
X223238095Y-32167380D02*
X223238095Y-31167380D01*
X223238095Y-31643571D02*
X223809523Y-31643571D01*
X223809523Y-32167380D02*
X223809523Y-31167380D01*
X224238095Y-31262619D02*
X224285714Y-31215000D01*
X224285714Y-31215000D02*
X224380952Y-31167380D01*
X224380952Y-31167380D02*
X224619047Y-31167380D01*
X224619047Y-31167380D02*
X224714285Y-31215000D01*
X224714285Y-31215000D02*
X224761904Y-31262619D01*
X224761904Y-31262619D02*
X224809523Y-31357857D01*
X224809523Y-31357857D02*
X224809523Y-31453095D01*
X224809523Y-31453095D02*
X224761904Y-31595952D01*
X224761904Y-31595952D02*
X224190476Y-32167380D01*
X224190476Y-32167380D02*
X224809523Y-32167380D01*
X138738095Y-45867380D02*
X138738095Y-46676904D01*
X138738095Y-46676904D02*
X138785714Y-46772142D01*
X138785714Y-46772142D02*
X138833333Y-46819761D01*
X138833333Y-46819761D02*
X138928571Y-46867380D01*
X138928571Y-46867380D02*
X139119047Y-46867380D01*
X139119047Y-46867380D02*
X139214285Y-46819761D01*
X139214285Y-46819761D02*
X139261904Y-46772142D01*
X139261904Y-46772142D02*
X139309523Y-46676904D01*
X139309523Y-46676904D02*
X139309523Y-45867380D01*
X140214285Y-46200714D02*
X140214285Y-46867380D01*
X139976190Y-45819761D02*
X139738095Y-46534047D01*
X139738095Y-46534047D02*
X140357142Y-46534047D01*
D11*
X172378809Y-38266573D02*
X171774047Y-38266573D01*
X171774047Y-38266573D02*
X171774047Y-36996573D01*
X172802142Y-37601335D02*
X173225476Y-37601335D01*
X173406904Y-38266573D02*
X172802142Y-38266573D01*
X172802142Y-38266573D02*
X172802142Y-36996573D01*
X172802142Y-36996573D02*
X173406904Y-36996573D01*
X173951190Y-38266573D02*
X173951190Y-36996573D01*
X173951190Y-36996573D02*
X174253571Y-36996573D01*
X174253571Y-36996573D02*
X174435000Y-37057050D01*
X174435000Y-37057050D02*
X174555952Y-37178002D01*
X174555952Y-37178002D02*
X174616429Y-37298954D01*
X174616429Y-37298954D02*
X174676905Y-37540859D01*
X174676905Y-37540859D02*
X174676905Y-37722288D01*
X174676905Y-37722288D02*
X174616429Y-37964192D01*
X174616429Y-37964192D02*
X174555952Y-38085145D01*
X174555952Y-38085145D02*
X174435000Y-38206097D01*
X174435000Y-38206097D02*
X174253571Y-38266573D01*
X174253571Y-38266573D02*
X173951190Y-38266573D01*
X175160714Y-37117526D02*
X175221190Y-37057050D01*
X175221190Y-37057050D02*
X175342143Y-36996573D01*
X175342143Y-36996573D02*
X175644524Y-36996573D01*
X175644524Y-36996573D02*
X175765476Y-37057050D01*
X175765476Y-37057050D02*
X175825952Y-37117526D01*
X175825952Y-37117526D02*
X175886429Y-37238478D01*
X175886429Y-37238478D02*
X175886429Y-37359430D01*
X175886429Y-37359430D02*
X175825952Y-37540859D01*
X175825952Y-37540859D02*
X175100238Y-38266573D01*
X175100238Y-38266573D02*
X175886429Y-38266573D01*
D10*
X134022649Y-95683762D02*
X134022649Y-96493706D01*
X134022649Y-96493706D02*
X134070292Y-96588994D01*
X134070292Y-96588994D02*
X134117936Y-96636638D01*
X134117936Y-96636638D02*
X134213224Y-96684282D01*
X134213224Y-96684282D02*
X134403799Y-96684282D01*
X134403799Y-96684282D02*
X134499087Y-96636638D01*
X134499087Y-96636638D02*
X134546730Y-96588994D01*
X134546730Y-96588994D02*
X134594374Y-96493706D01*
X134594374Y-96493706D02*
X134594374Y-95683762D01*
X135547251Y-95683762D02*
X135070813Y-95683762D01*
X135070813Y-95683762D02*
X135023169Y-96160200D01*
X135023169Y-96160200D02*
X135070813Y-96112556D01*
X135070813Y-96112556D02*
X135166100Y-96064912D01*
X135166100Y-96064912D02*
X135404319Y-96064912D01*
X135404319Y-96064912D02*
X135499607Y-96112556D01*
X135499607Y-96112556D02*
X135547251Y-96160200D01*
X135547251Y-96160200D02*
X135594894Y-96255487D01*
X135594894Y-96255487D02*
X135594894Y-96493706D01*
X135594894Y-96493706D02*
X135547251Y-96588994D01*
X135547251Y-96588994D02*
X135499607Y-96636638D01*
X135499607Y-96636638D02*
X135404319Y-96684282D01*
X135404319Y-96684282D02*
X135166100Y-96684282D01*
X135166100Y-96684282D02*
X135070813Y-96636638D01*
X135070813Y-96636638D02*
X135023169Y-96588994D01*
X177367380Y-50238094D02*
X176367380Y-50238094D01*
X176367380Y-50238094D02*
X176367380Y-49999999D01*
X176367380Y-49999999D02*
X176415000Y-49857142D01*
X176415000Y-49857142D02*
X176510238Y-49761904D01*
X176510238Y-49761904D02*
X176605476Y-49714285D01*
X176605476Y-49714285D02*
X176795952Y-49666666D01*
X176795952Y-49666666D02*
X176938809Y-49666666D01*
X176938809Y-49666666D02*
X177129285Y-49714285D01*
X177129285Y-49714285D02*
X177224523Y-49761904D01*
X177224523Y-49761904D02*
X177319761Y-49857142D01*
X177319761Y-49857142D02*
X177367380Y-49999999D01*
X177367380Y-49999999D02*
X177367380Y-50238094D01*
X176367380Y-48809523D02*
X176367380Y-48999999D01*
X176367380Y-48999999D02*
X176415000Y-49095237D01*
X176415000Y-49095237D02*
X176462619Y-49142856D01*
X176462619Y-49142856D02*
X176605476Y-49238094D01*
X176605476Y-49238094D02*
X176795952Y-49285713D01*
X176795952Y-49285713D02*
X177176904Y-49285713D01*
X177176904Y-49285713D02*
X177272142Y-49238094D01*
X177272142Y-49238094D02*
X177319761Y-49190475D01*
X177319761Y-49190475D02*
X177367380Y-49095237D01*
X177367380Y-49095237D02*
X177367380Y-48904761D01*
X177367380Y-48904761D02*
X177319761Y-48809523D01*
X177319761Y-48809523D02*
X177272142Y-48761904D01*
X177272142Y-48761904D02*
X177176904Y-48714285D01*
X177176904Y-48714285D02*
X176938809Y-48714285D01*
X176938809Y-48714285D02*
X176843571Y-48761904D01*
X176843571Y-48761904D02*
X176795952Y-48809523D01*
X176795952Y-48809523D02*
X176748333Y-48904761D01*
X176748333Y-48904761D02*
X176748333Y-49095237D01*
X176748333Y-49095237D02*
X176795952Y-49190475D01*
X176795952Y-49190475D02*
X176843571Y-49238094D01*
X176843571Y-49238094D02*
X176938809Y-49285713D01*
X208991295Y-76075380D02*
X208991295Y-76884904D01*
X208991295Y-76884904D02*
X209038914Y-76980142D01*
X209038914Y-76980142D02*
X209086533Y-77027761D01*
X209086533Y-77027761D02*
X209181771Y-77075380D01*
X209181771Y-77075380D02*
X209372247Y-77075380D01*
X209372247Y-77075380D02*
X209467485Y-77027761D01*
X209467485Y-77027761D02*
X209515104Y-76980142D01*
X209515104Y-76980142D02*
X209562723Y-76884904D01*
X209562723Y-76884904D02*
X209562723Y-76075380D01*
X210562723Y-77075380D02*
X209991295Y-77075380D01*
X210277009Y-77075380D02*
X210277009Y-76075380D01*
X210277009Y-76075380D02*
X210181771Y-76218238D01*
X210181771Y-76218238D02*
X210086533Y-76313476D01*
X210086533Y-76313476D02*
X209991295Y-76361095D01*
X205637333Y-81561780D02*
X205637333Y-82371304D01*
X205637333Y-82371304D02*
X205684952Y-82466542D01*
X205684952Y-82466542D02*
X205732571Y-82514161D01*
X205732571Y-82514161D02*
X205827809Y-82561780D01*
X205827809Y-82561780D02*
X206018285Y-82561780D01*
X206018285Y-82561780D02*
X206113523Y-82514161D01*
X206113523Y-82514161D02*
X206161142Y-82466542D01*
X206161142Y-82466542D02*
X206208761Y-82371304D01*
X206208761Y-82371304D02*
X206208761Y-81561780D01*
X207256380Y-82466542D02*
X207208761Y-82514161D01*
X207208761Y-82514161D02*
X207065904Y-82561780D01*
X207065904Y-82561780D02*
X206970666Y-82561780D01*
X206970666Y-82561780D02*
X206827809Y-82514161D01*
X206827809Y-82514161D02*
X206732571Y-82418923D01*
X206732571Y-82418923D02*
X206684952Y-82323685D01*
X206684952Y-82323685D02*
X206637333Y-82133209D01*
X206637333Y-82133209D02*
X206637333Y-81990352D01*
X206637333Y-81990352D02*
X206684952Y-81799876D01*
X206684952Y-81799876D02*
X206732571Y-81704638D01*
X206732571Y-81704638D02*
X206827809Y-81609400D01*
X206827809Y-81609400D02*
X206970666Y-81561780D01*
X206970666Y-81561780D02*
X207065904Y-81561780D01*
X207065904Y-81561780D02*
X207208761Y-81609400D01*
X207208761Y-81609400D02*
X207256380Y-81657019D01*
X208256380Y-82466542D02*
X208208761Y-82514161D01*
X208208761Y-82514161D02*
X208065904Y-82561780D01*
X208065904Y-82561780D02*
X207970666Y-82561780D01*
X207970666Y-82561780D02*
X207827809Y-82514161D01*
X207827809Y-82514161D02*
X207732571Y-82418923D01*
X207732571Y-82418923D02*
X207684952Y-82323685D01*
X207684952Y-82323685D02*
X207637333Y-82133209D01*
X207637333Y-82133209D02*
X207637333Y-81990352D01*
X207637333Y-81990352D02*
X207684952Y-81799876D01*
X207684952Y-81799876D02*
X207732571Y-81704638D01*
X207732571Y-81704638D02*
X207827809Y-81609400D01*
X207827809Y-81609400D02*
X207970666Y-81561780D01*
X207970666Y-81561780D02*
X208065904Y-81561780D01*
X208065904Y-81561780D02*
X208208761Y-81609400D01*
X208208761Y-81609400D02*
X208256380Y-81657019D01*
X208637333Y-81657019D02*
X208684952Y-81609400D01*
X208684952Y-81609400D02*
X208780190Y-81561780D01*
X208780190Y-81561780D02*
X209018285Y-81561780D01*
X209018285Y-81561780D02*
X209113523Y-81609400D01*
X209113523Y-81609400D02*
X209161142Y-81657019D01*
X209161142Y-81657019D02*
X209208761Y-81752257D01*
X209208761Y-81752257D02*
X209208761Y-81847495D01*
X209208761Y-81847495D02*
X209161142Y-81990352D01*
X209161142Y-81990352D02*
X208589714Y-82561780D01*
X208589714Y-82561780D02*
X209208761Y-82561780D01*
X209780190Y-81990352D02*
X209684952Y-81942733D01*
X209684952Y-81942733D02*
X209637333Y-81895114D01*
X209637333Y-81895114D02*
X209589714Y-81799876D01*
X209589714Y-81799876D02*
X209589714Y-81752257D01*
X209589714Y-81752257D02*
X209637333Y-81657019D01*
X209637333Y-81657019D02*
X209684952Y-81609400D01*
X209684952Y-81609400D02*
X209780190Y-81561780D01*
X209780190Y-81561780D02*
X209970666Y-81561780D01*
X209970666Y-81561780D02*
X210065904Y-81609400D01*
X210065904Y-81609400D02*
X210113523Y-81657019D01*
X210113523Y-81657019D02*
X210161142Y-81752257D01*
X210161142Y-81752257D02*
X210161142Y-81799876D01*
X210161142Y-81799876D02*
X210113523Y-81895114D01*
X210113523Y-81895114D02*
X210065904Y-81942733D01*
X210065904Y-81942733D02*
X209970666Y-81990352D01*
X209970666Y-81990352D02*
X209780190Y-81990352D01*
X209780190Y-81990352D02*
X209684952Y-82037971D01*
X209684952Y-82037971D02*
X209637333Y-82085590D01*
X209637333Y-82085590D02*
X209589714Y-82180828D01*
X209589714Y-82180828D02*
X209589714Y-82371304D01*
X209589714Y-82371304D02*
X209637333Y-82466542D01*
X209637333Y-82466542D02*
X209684952Y-82514161D01*
X209684952Y-82514161D02*
X209780190Y-82561780D01*
X209780190Y-82561780D02*
X209970666Y-82561780D01*
X209970666Y-82561780D02*
X210065904Y-82514161D01*
X210065904Y-82514161D02*
X210113523Y-82466542D01*
X210113523Y-82466542D02*
X210161142Y-82371304D01*
X210161142Y-82371304D02*
X210161142Y-82180828D01*
X210161142Y-82180828D02*
X210113523Y-82085590D01*
X210113523Y-82085590D02*
X210065904Y-82037971D01*
X210065904Y-82037971D02*
X209970666Y-81990352D01*
X210494476Y-81561780D02*
X211161142Y-81561780D01*
X211161142Y-81561780D02*
X210732571Y-82561780D01*
X211494476Y-81657019D02*
X211542095Y-81609400D01*
X211542095Y-81609400D02*
X211637333Y-81561780D01*
X211637333Y-81561780D02*
X211875428Y-81561780D01*
X211875428Y-81561780D02*
X211970666Y-81609400D01*
X211970666Y-81609400D02*
X212018285Y-81657019D01*
X212018285Y-81657019D02*
X212065904Y-81752257D01*
X212065904Y-81752257D02*
X212065904Y-81847495D01*
X212065904Y-81847495D02*
X212018285Y-81990352D01*
X212018285Y-81990352D02*
X211446857Y-82561780D01*
X211446857Y-82561780D02*
X212065904Y-82561780D01*
X212684952Y-81561780D02*
X212780190Y-81561780D01*
X212780190Y-81561780D02*
X212875428Y-81609400D01*
X212875428Y-81609400D02*
X212923047Y-81657019D01*
X212923047Y-81657019D02*
X212970666Y-81752257D01*
X212970666Y-81752257D02*
X213018285Y-81942733D01*
X213018285Y-81942733D02*
X213018285Y-82180828D01*
X213018285Y-82180828D02*
X212970666Y-82371304D01*
X212970666Y-82371304D02*
X212923047Y-82466542D01*
X212923047Y-82466542D02*
X212875428Y-82514161D01*
X212875428Y-82514161D02*
X212780190Y-82561780D01*
X212780190Y-82561780D02*
X212684952Y-82561780D01*
X212684952Y-82561780D02*
X212589714Y-82514161D01*
X212589714Y-82514161D02*
X212542095Y-82466542D01*
X212542095Y-82466542D02*
X212494476Y-82371304D01*
X212494476Y-82371304D02*
X212446857Y-82180828D01*
X212446857Y-82180828D02*
X212446857Y-81942733D01*
X212446857Y-81942733D02*
X212494476Y-81752257D01*
X212494476Y-81752257D02*
X212542095Y-81657019D01*
X212542095Y-81657019D02*
X212589714Y-81609400D01*
X212589714Y-81609400D02*
X212684952Y-81561780D01*
X213446857Y-82561780D02*
X213446857Y-81561780D01*
X213446857Y-81561780D02*
X213684952Y-81561780D01*
X213684952Y-81561780D02*
X213827809Y-81609400D01*
X213827809Y-81609400D02*
X213923047Y-81704638D01*
X213923047Y-81704638D02*
X213970666Y-81799876D01*
X213970666Y-81799876D02*
X214018285Y-81990352D01*
X214018285Y-81990352D02*
X214018285Y-82133209D01*
X214018285Y-82133209D02*
X213970666Y-82323685D01*
X213970666Y-82323685D02*
X213923047Y-82418923D01*
X213923047Y-82418923D02*
X213827809Y-82514161D01*
X213827809Y-82514161D02*
X213684952Y-82561780D01*
X213684952Y-82561780D02*
X213446857Y-82561780D01*
X209690000Y-77472380D02*
X209690000Y-77710476D01*
X209451905Y-77615238D02*
X209690000Y-77710476D01*
X209690000Y-77710476D02*
X209928095Y-77615238D01*
X209547143Y-77900952D02*
X209690000Y-77710476D01*
X209690000Y-77710476D02*
X209832857Y-77900952D01*
X169012380Y-35850833D02*
X169726666Y-35850833D01*
X169726666Y-35850833D02*
X169869523Y-35898452D01*
X169869523Y-35898452D02*
X169964761Y-35993690D01*
X169964761Y-35993690D02*
X170012380Y-36136547D01*
X170012380Y-36136547D02*
X170012380Y-36231785D01*
X169012380Y-34898452D02*
X169012380Y-35374642D01*
X169012380Y-35374642D02*
X169488571Y-35422261D01*
X169488571Y-35422261D02*
X169440952Y-35374642D01*
X169440952Y-35374642D02*
X169393333Y-35279404D01*
X169393333Y-35279404D02*
X169393333Y-35041309D01*
X169393333Y-35041309D02*
X169440952Y-34946071D01*
X169440952Y-34946071D02*
X169488571Y-34898452D01*
X169488571Y-34898452D02*
X169583809Y-34850833D01*
X169583809Y-34850833D02*
X169821904Y-34850833D01*
X169821904Y-34850833D02*
X169917142Y-34898452D01*
X169917142Y-34898452D02*
X169964761Y-34946071D01*
X169964761Y-34946071D02*
X170012380Y-35041309D01*
X170012380Y-35041309D02*
X170012380Y-35279404D01*
X170012380Y-35279404D02*
X169964761Y-35374642D01*
X169964761Y-35374642D02*
X169917142Y-35422261D01*
X139937380Y-42467857D02*
X139461190Y-42801190D01*
X139937380Y-43039285D02*
X138937380Y-43039285D01*
X138937380Y-43039285D02*
X138937380Y-42658333D01*
X138937380Y-42658333D02*
X138985000Y-42563095D01*
X138985000Y-42563095D02*
X139032619Y-42515476D01*
X139032619Y-42515476D02*
X139127857Y-42467857D01*
X139127857Y-42467857D02*
X139270714Y-42467857D01*
X139270714Y-42467857D02*
X139365952Y-42515476D01*
X139365952Y-42515476D02*
X139413571Y-42563095D01*
X139413571Y-42563095D02*
X139461190Y-42658333D01*
X139461190Y-42658333D02*
X139461190Y-43039285D01*
X139937380Y-41515476D02*
X139937380Y-42086904D01*
X139937380Y-41801190D02*
X138937380Y-41801190D01*
X138937380Y-41801190D02*
X139080238Y-41896428D01*
X139080238Y-41896428D02*
X139175476Y-41991666D01*
X139175476Y-41991666D02*
X139223095Y-42086904D01*
X139032619Y-41134523D02*
X138985000Y-41086904D01*
X138985000Y-41086904D02*
X138937380Y-40991666D01*
X138937380Y-40991666D02*
X138937380Y-40753571D01*
X138937380Y-40753571D02*
X138985000Y-40658333D01*
X138985000Y-40658333D02*
X139032619Y-40610714D01*
X139032619Y-40610714D02*
X139127857Y-40563095D01*
X139127857Y-40563095D02*
X139223095Y-40563095D01*
X139223095Y-40563095D02*
X139365952Y-40610714D01*
X139365952Y-40610714D02*
X139937380Y-41182142D01*
X139937380Y-41182142D02*
X139937380Y-40563095D01*
X213367380Y-91166666D02*
X212891190Y-91499999D01*
X213367380Y-91738094D02*
X212367380Y-91738094D01*
X212367380Y-91738094D02*
X212367380Y-91357142D01*
X212367380Y-91357142D02*
X212415000Y-91261904D01*
X212415000Y-91261904D02*
X212462619Y-91214285D01*
X212462619Y-91214285D02*
X212557857Y-91166666D01*
X212557857Y-91166666D02*
X212700714Y-91166666D01*
X212700714Y-91166666D02*
X212795952Y-91214285D01*
X212795952Y-91214285D02*
X212843571Y-91261904D01*
X212843571Y-91261904D02*
X212891190Y-91357142D01*
X212891190Y-91357142D02*
X212891190Y-91738094D01*
X212700714Y-90309523D02*
X213367380Y-90309523D01*
X212319761Y-90547618D02*
X213034047Y-90785713D01*
X213034047Y-90785713D02*
X213034047Y-90166666D01*
X140357142Y-60772142D02*
X140309523Y-60819761D01*
X140309523Y-60819761D02*
X140166666Y-60867380D01*
X140166666Y-60867380D02*
X140071428Y-60867380D01*
X140071428Y-60867380D02*
X139928571Y-60819761D01*
X139928571Y-60819761D02*
X139833333Y-60724523D01*
X139833333Y-60724523D02*
X139785714Y-60629285D01*
X139785714Y-60629285D02*
X139738095Y-60438809D01*
X139738095Y-60438809D02*
X139738095Y-60295952D01*
X139738095Y-60295952D02*
X139785714Y-60105476D01*
X139785714Y-60105476D02*
X139833333Y-60010238D01*
X139833333Y-60010238D02*
X139928571Y-59915000D01*
X139928571Y-59915000D02*
X140071428Y-59867380D01*
X140071428Y-59867380D02*
X140166666Y-59867380D01*
X140166666Y-59867380D02*
X140309523Y-59915000D01*
X140309523Y-59915000D02*
X140357142Y-59962619D01*
X141309523Y-60867380D02*
X140738095Y-60867380D01*
X141023809Y-60867380D02*
X141023809Y-59867380D01*
X141023809Y-59867380D02*
X140928571Y-60010238D01*
X140928571Y-60010238D02*
X140833333Y-60105476D01*
X140833333Y-60105476D02*
X140738095Y-60153095D01*
X141642857Y-59867380D02*
X142261904Y-59867380D01*
X142261904Y-59867380D02*
X141928571Y-60248333D01*
X141928571Y-60248333D02*
X142071428Y-60248333D01*
X142071428Y-60248333D02*
X142166666Y-60295952D01*
X142166666Y-60295952D02*
X142214285Y-60343571D01*
X142214285Y-60343571D02*
X142261904Y-60438809D01*
X142261904Y-60438809D02*
X142261904Y-60676904D01*
X142261904Y-60676904D02*
X142214285Y-60772142D01*
X142214285Y-60772142D02*
X142166666Y-60819761D01*
X142166666Y-60819761D02*
X142071428Y-60867380D01*
X142071428Y-60867380D02*
X141785714Y-60867380D01*
X141785714Y-60867380D02*
X141690476Y-60819761D01*
X141690476Y-60819761D02*
X141642857Y-60772142D01*
X211565833Y-73487380D02*
X211232500Y-73011190D01*
X210994405Y-73487380D02*
X210994405Y-72487380D01*
X210994405Y-72487380D02*
X211375357Y-72487380D01*
X211375357Y-72487380D02*
X211470595Y-72535000D01*
X211470595Y-72535000D02*
X211518214Y-72582619D01*
X211518214Y-72582619D02*
X211565833Y-72677857D01*
X211565833Y-72677857D02*
X211565833Y-72820714D01*
X211565833Y-72820714D02*
X211518214Y-72915952D01*
X211518214Y-72915952D02*
X211470595Y-72963571D01*
X211470595Y-72963571D02*
X211375357Y-73011190D01*
X211375357Y-73011190D02*
X210994405Y-73011190D01*
X212470595Y-72487380D02*
X211994405Y-72487380D01*
X211994405Y-72487380D02*
X211946786Y-72963571D01*
X211946786Y-72963571D02*
X211994405Y-72915952D01*
X211994405Y-72915952D02*
X212089643Y-72868333D01*
X212089643Y-72868333D02*
X212327738Y-72868333D01*
X212327738Y-72868333D02*
X212422976Y-72915952D01*
X212422976Y-72915952D02*
X212470595Y-72963571D01*
X212470595Y-72963571D02*
X212518214Y-73058809D01*
X212518214Y-73058809D02*
X212518214Y-73296904D01*
X212518214Y-73296904D02*
X212470595Y-73392142D01*
X212470595Y-73392142D02*
X212422976Y-73439761D01*
X212422976Y-73439761D02*
X212327738Y-73487380D01*
X212327738Y-73487380D02*
X212089643Y-73487380D01*
X212089643Y-73487380D02*
X211994405Y-73439761D01*
X211994405Y-73439761D02*
X211946786Y-73392142D01*
X148797380Y-35642857D02*
X148321190Y-35976190D01*
X148797380Y-36214285D02*
X147797380Y-36214285D01*
X147797380Y-36214285D02*
X147797380Y-35833333D01*
X147797380Y-35833333D02*
X147845000Y-35738095D01*
X147845000Y-35738095D02*
X147892619Y-35690476D01*
X147892619Y-35690476D02*
X147987857Y-35642857D01*
X147987857Y-35642857D02*
X148130714Y-35642857D01*
X148130714Y-35642857D02*
X148225952Y-35690476D01*
X148225952Y-35690476D02*
X148273571Y-35738095D01*
X148273571Y-35738095D02*
X148321190Y-35833333D01*
X148321190Y-35833333D02*
X148321190Y-36214285D01*
X148797380Y-34690476D02*
X148797380Y-35261904D01*
X148797380Y-34976190D02*
X147797380Y-34976190D01*
X147797380Y-34976190D02*
X147940238Y-35071428D01*
X147940238Y-35071428D02*
X148035476Y-35166666D01*
X148035476Y-35166666D02*
X148083095Y-35261904D01*
X148797380Y-33738095D02*
X148797380Y-34309523D01*
X148797380Y-34023809D02*
X147797380Y-34023809D01*
X147797380Y-34023809D02*
X147940238Y-34119047D01*
X147940238Y-34119047D02*
X148035476Y-34214285D01*
X148035476Y-34214285D02*
X148083095Y-34309523D01*
X206742142Y-92431666D02*
X206789761Y-92479285D01*
X206789761Y-92479285D02*
X206837380Y-92622142D01*
X206837380Y-92622142D02*
X206837380Y-92717380D01*
X206837380Y-92717380D02*
X206789761Y-92860237D01*
X206789761Y-92860237D02*
X206694523Y-92955475D01*
X206694523Y-92955475D02*
X206599285Y-93003094D01*
X206599285Y-93003094D02*
X206408809Y-93050713D01*
X206408809Y-93050713D02*
X206265952Y-93050713D01*
X206265952Y-93050713D02*
X206075476Y-93003094D01*
X206075476Y-93003094D02*
X205980238Y-92955475D01*
X205980238Y-92955475D02*
X205885000Y-92860237D01*
X205885000Y-92860237D02*
X205837380Y-92717380D01*
X205837380Y-92717380D02*
X205837380Y-92622142D01*
X205837380Y-92622142D02*
X205885000Y-92479285D01*
X205885000Y-92479285D02*
X205932619Y-92431666D01*
X205932619Y-92050713D02*
X205885000Y-92003094D01*
X205885000Y-92003094D02*
X205837380Y-91907856D01*
X205837380Y-91907856D02*
X205837380Y-91669761D01*
X205837380Y-91669761D02*
X205885000Y-91574523D01*
X205885000Y-91574523D02*
X205932619Y-91526904D01*
X205932619Y-91526904D02*
X206027857Y-91479285D01*
X206027857Y-91479285D02*
X206123095Y-91479285D01*
X206123095Y-91479285D02*
X206265952Y-91526904D01*
X206265952Y-91526904D02*
X206837380Y-92098332D01*
X206837380Y-92098332D02*
X206837380Y-91479285D01*
X209027380Y-91166666D02*
X208551190Y-91499999D01*
X209027380Y-91738094D02*
X208027380Y-91738094D01*
X208027380Y-91738094D02*
X208027380Y-91357142D01*
X208027380Y-91357142D02*
X208075000Y-91261904D01*
X208075000Y-91261904D02*
X208122619Y-91214285D01*
X208122619Y-91214285D02*
X208217857Y-91166666D01*
X208217857Y-91166666D02*
X208360714Y-91166666D01*
X208360714Y-91166666D02*
X208455952Y-91214285D01*
X208455952Y-91214285D02*
X208503571Y-91261904D01*
X208503571Y-91261904D02*
X208551190Y-91357142D01*
X208551190Y-91357142D02*
X208551190Y-91738094D01*
X208027380Y-90309523D02*
X208027380Y-90499999D01*
X208027380Y-90499999D02*
X208075000Y-90595237D01*
X208075000Y-90595237D02*
X208122619Y-90642856D01*
X208122619Y-90642856D02*
X208265476Y-90738094D01*
X208265476Y-90738094D02*
X208455952Y-90785713D01*
X208455952Y-90785713D02*
X208836904Y-90785713D01*
X208836904Y-90785713D02*
X208932142Y-90738094D01*
X208932142Y-90738094D02*
X208979761Y-90690475D01*
X208979761Y-90690475D02*
X209027380Y-90595237D01*
X209027380Y-90595237D02*
X209027380Y-90404761D01*
X209027380Y-90404761D02*
X208979761Y-90309523D01*
X208979761Y-90309523D02*
X208932142Y-90261904D01*
X208932142Y-90261904D02*
X208836904Y-90214285D01*
X208836904Y-90214285D02*
X208598809Y-90214285D01*
X208598809Y-90214285D02*
X208503571Y-90261904D01*
X208503571Y-90261904D02*
X208455952Y-90309523D01*
X208455952Y-90309523D02*
X208408333Y-90404761D01*
X208408333Y-90404761D02*
X208408333Y-90595237D01*
X208408333Y-90595237D02*
X208455952Y-90690475D01*
X208455952Y-90690475D02*
X208503571Y-90738094D01*
X208503571Y-90738094D02*
X208598809Y-90785713D01*
X205675580Y-99758094D02*
X204675580Y-99758094D01*
X204675580Y-99758094D02*
X204675580Y-99519999D01*
X204675580Y-99519999D02*
X204723200Y-99377142D01*
X204723200Y-99377142D02*
X204818438Y-99281904D01*
X204818438Y-99281904D02*
X204913676Y-99234285D01*
X204913676Y-99234285D02*
X205104152Y-99186666D01*
X205104152Y-99186666D02*
X205247009Y-99186666D01*
X205247009Y-99186666D02*
X205437485Y-99234285D01*
X205437485Y-99234285D02*
X205532723Y-99281904D01*
X205532723Y-99281904D02*
X205627961Y-99377142D01*
X205627961Y-99377142D02*
X205675580Y-99519999D01*
X205675580Y-99519999D02*
X205675580Y-99758094D01*
X205008914Y-98329523D02*
X205675580Y-98329523D01*
X204627961Y-98567618D02*
X205342247Y-98805713D01*
X205342247Y-98805713D02*
X205342247Y-98186666D01*
X202768200Y-95887380D02*
X202768200Y-96125476D01*
X202530105Y-96030238D02*
X202768200Y-96125476D01*
X202768200Y-96125476D02*
X203006295Y-96030238D01*
X202625343Y-96315952D02*
X202768200Y-96125476D01*
X202768200Y-96125476D02*
X202911057Y-96315952D01*
X202768200Y-95887380D02*
X202768200Y-96125476D01*
X202530105Y-96030238D02*
X202768200Y-96125476D01*
X202768200Y-96125476D02*
X203006295Y-96030238D01*
X202625343Y-96315952D02*
X202768200Y-96125476D01*
X202768200Y-96125476D02*
X202911057Y-96315952D01*
X177038095Y-46047380D02*
X177609523Y-46047380D01*
X177323809Y-47047380D02*
X177323809Y-46047380D01*
X177942857Y-47047380D02*
X177942857Y-46047380D01*
X177942857Y-46047380D02*
X178323809Y-46047380D01*
X178323809Y-46047380D02*
X178419047Y-46095000D01*
X178419047Y-46095000D02*
X178466666Y-46142619D01*
X178466666Y-46142619D02*
X178514285Y-46237857D01*
X178514285Y-46237857D02*
X178514285Y-46380714D01*
X178514285Y-46380714D02*
X178466666Y-46475952D01*
X178466666Y-46475952D02*
X178419047Y-46523571D01*
X178419047Y-46523571D02*
X178323809Y-46571190D01*
X178323809Y-46571190D02*
X177942857Y-46571190D01*
X179419047Y-46047380D02*
X178942857Y-46047380D01*
X178942857Y-46047380D02*
X178895238Y-46523571D01*
X178895238Y-46523571D02*
X178942857Y-46475952D01*
X178942857Y-46475952D02*
X179038095Y-46428333D01*
X179038095Y-46428333D02*
X179276190Y-46428333D01*
X179276190Y-46428333D02*
X179371428Y-46475952D01*
X179371428Y-46475952D02*
X179419047Y-46523571D01*
X179419047Y-46523571D02*
X179466666Y-46618809D01*
X179466666Y-46618809D02*
X179466666Y-46856904D01*
X179466666Y-46856904D02*
X179419047Y-46952142D01*
X179419047Y-46952142D02*
X179371428Y-46999761D01*
X179371428Y-46999761D02*
X179276190Y-47047380D01*
X179276190Y-47047380D02*
X179038095Y-47047380D01*
X179038095Y-47047380D02*
X178942857Y-46999761D01*
X178942857Y-46999761D02*
X178895238Y-46952142D01*
X198552142Y-81446666D02*
X198599761Y-81494285D01*
X198599761Y-81494285D02*
X198647380Y-81637142D01*
X198647380Y-81637142D02*
X198647380Y-81732380D01*
X198647380Y-81732380D02*
X198599761Y-81875237D01*
X198599761Y-81875237D02*
X198504523Y-81970475D01*
X198504523Y-81970475D02*
X198409285Y-82018094D01*
X198409285Y-82018094D02*
X198218809Y-82065713D01*
X198218809Y-82065713D02*
X198075952Y-82065713D01*
X198075952Y-82065713D02*
X197885476Y-82018094D01*
X197885476Y-82018094D02*
X197790238Y-81970475D01*
X197790238Y-81970475D02*
X197695000Y-81875237D01*
X197695000Y-81875237D02*
X197647380Y-81732380D01*
X197647380Y-81732380D02*
X197647380Y-81637142D01*
X197647380Y-81637142D02*
X197695000Y-81494285D01*
X197695000Y-81494285D02*
X197742619Y-81446666D01*
X198075952Y-80875237D02*
X198028333Y-80970475D01*
X198028333Y-80970475D02*
X197980714Y-81018094D01*
X197980714Y-81018094D02*
X197885476Y-81065713D01*
X197885476Y-81065713D02*
X197837857Y-81065713D01*
X197837857Y-81065713D02*
X197742619Y-81018094D01*
X197742619Y-81018094D02*
X197695000Y-80970475D01*
X197695000Y-80970475D02*
X197647380Y-80875237D01*
X197647380Y-80875237D02*
X197647380Y-80684761D01*
X197647380Y-80684761D02*
X197695000Y-80589523D01*
X197695000Y-80589523D02*
X197742619Y-80541904D01*
X197742619Y-80541904D02*
X197837857Y-80494285D01*
X197837857Y-80494285D02*
X197885476Y-80494285D01*
X197885476Y-80494285D02*
X197980714Y-80541904D01*
X197980714Y-80541904D02*
X198028333Y-80589523D01*
X198028333Y-80589523D02*
X198075952Y-80684761D01*
X198075952Y-80684761D02*
X198075952Y-80875237D01*
X198075952Y-80875237D02*
X198123571Y-80970475D01*
X198123571Y-80970475D02*
X198171190Y-81018094D01*
X198171190Y-81018094D02*
X198266428Y-81065713D01*
X198266428Y-81065713D02*
X198456904Y-81065713D01*
X198456904Y-81065713D02*
X198552142Y-81018094D01*
X198552142Y-81018094D02*
X198599761Y-80970475D01*
X198599761Y-80970475D02*
X198647380Y-80875237D01*
X198647380Y-80875237D02*
X198647380Y-80684761D01*
X198647380Y-80684761D02*
X198599761Y-80589523D01*
X198599761Y-80589523D02*
X198552142Y-80541904D01*
X198552142Y-80541904D02*
X198456904Y-80494285D01*
X198456904Y-80494285D02*
X198266428Y-80494285D01*
X198266428Y-80494285D02*
X198171190Y-80541904D01*
X198171190Y-80541904D02*
X198123571Y-80589523D01*
X198123571Y-80589523D02*
X198075952Y-80684761D01*
X192301905Y-87267380D02*
X192301905Y-86267380D01*
X192301905Y-86267380D02*
X192540000Y-86267380D01*
X192540000Y-86267380D02*
X192682857Y-86315000D01*
X192682857Y-86315000D02*
X192778095Y-86410238D01*
X192778095Y-86410238D02*
X192825714Y-86505476D01*
X192825714Y-86505476D02*
X192873333Y-86695952D01*
X192873333Y-86695952D02*
X192873333Y-86838809D01*
X192873333Y-86838809D02*
X192825714Y-87029285D01*
X192825714Y-87029285D02*
X192778095Y-87124523D01*
X192778095Y-87124523D02*
X192682857Y-87219761D01*
X192682857Y-87219761D02*
X192540000Y-87267380D01*
X192540000Y-87267380D02*
X192301905Y-87267380D01*
X193825714Y-87267380D02*
X193254286Y-87267380D01*
X193540000Y-87267380D02*
X193540000Y-86267380D01*
X193540000Y-86267380D02*
X193444762Y-86410238D01*
X193444762Y-86410238D02*
X193349524Y-86505476D01*
X193349524Y-86505476D02*
X193254286Y-86553095D01*
X195122800Y-88267380D02*
X195122800Y-88505476D01*
X194884705Y-88410238D02*
X195122800Y-88505476D01*
X195122800Y-88505476D02*
X195360895Y-88410238D01*
X194979943Y-88695952D02*
X195122800Y-88505476D01*
X195122800Y-88505476D02*
X195265657Y-88695952D01*
X195122799Y-89532619D02*
X195122799Y-89294523D01*
X195360894Y-89389761D02*
X195122799Y-89294523D01*
X195122799Y-89294523D02*
X194884704Y-89389761D01*
X195265656Y-89104047D02*
X195122799Y-89294523D01*
X195122799Y-89294523D02*
X194979942Y-89104047D01*
X190738095Y-97867380D02*
X191309523Y-97867380D01*
X191023809Y-98867380D02*
X191023809Y-97867380D01*
X191642857Y-98867380D02*
X191642857Y-97867380D01*
X191642857Y-97867380D02*
X192023809Y-97867380D01*
X192023809Y-97867380D02*
X192119047Y-97915000D01*
X192119047Y-97915000D02*
X192166666Y-97962619D01*
X192166666Y-97962619D02*
X192214285Y-98057857D01*
X192214285Y-98057857D02*
X192214285Y-98200714D01*
X192214285Y-98200714D02*
X192166666Y-98295952D01*
X192166666Y-98295952D02*
X192119047Y-98343571D01*
X192119047Y-98343571D02*
X192023809Y-98391190D01*
X192023809Y-98391190D02*
X191642857Y-98391190D01*
X192595238Y-97962619D02*
X192642857Y-97915000D01*
X192642857Y-97915000D02*
X192738095Y-97867380D01*
X192738095Y-97867380D02*
X192976190Y-97867380D01*
X192976190Y-97867380D02*
X193071428Y-97915000D01*
X193071428Y-97915000D02*
X193119047Y-97962619D01*
X193119047Y-97962619D02*
X193166666Y-98057857D01*
X193166666Y-98057857D02*
X193166666Y-98153095D01*
X193166666Y-98153095D02*
X193119047Y-98295952D01*
X193119047Y-98295952D02*
X192547619Y-98867380D01*
X192547619Y-98867380D02*
X193166666Y-98867380D01*
D11*
X140378809Y-31966573D02*
X139774047Y-31966573D01*
X139774047Y-31966573D02*
X139774047Y-30696573D01*
X140802142Y-31301335D02*
X141225476Y-31301335D01*
X141406904Y-31966573D02*
X140802142Y-31966573D01*
X140802142Y-31966573D02*
X140802142Y-30696573D01*
X140802142Y-30696573D02*
X141406904Y-30696573D01*
X141951190Y-31966573D02*
X141951190Y-30696573D01*
X141951190Y-30696573D02*
X142253571Y-30696573D01*
X142253571Y-30696573D02*
X142435000Y-30757050D01*
X142435000Y-30757050D02*
X142555952Y-30878002D01*
X142555952Y-30878002D02*
X142616429Y-30998954D01*
X142616429Y-30998954D02*
X142676905Y-31240859D01*
X142676905Y-31240859D02*
X142676905Y-31422288D01*
X142676905Y-31422288D02*
X142616429Y-31664192D01*
X142616429Y-31664192D02*
X142555952Y-31785145D01*
X142555952Y-31785145D02*
X142435000Y-31906097D01*
X142435000Y-31906097D02*
X142253571Y-31966573D01*
X142253571Y-31966573D02*
X141951190Y-31966573D01*
X143886429Y-31966573D02*
X143160714Y-31966573D01*
X143523571Y-31966573D02*
X143523571Y-30696573D01*
X143523571Y-30696573D02*
X143402619Y-30878002D01*
X143402619Y-30878002D02*
X143281667Y-30998954D01*
X143281667Y-30998954D02*
X143160714Y-31059430D01*
D10*
X193064333Y-93999380D02*
X192731000Y-93523190D01*
X192492905Y-93999380D02*
X192492905Y-92999380D01*
X192492905Y-92999380D02*
X192873857Y-92999380D01*
X192873857Y-92999380D02*
X192969095Y-93047000D01*
X192969095Y-93047000D02*
X193016714Y-93094619D01*
X193016714Y-93094619D02*
X193064333Y-93189857D01*
X193064333Y-93189857D02*
X193064333Y-93332714D01*
X193064333Y-93332714D02*
X193016714Y-93427952D01*
X193016714Y-93427952D02*
X192969095Y-93475571D01*
X192969095Y-93475571D02*
X192873857Y-93523190D01*
X192873857Y-93523190D02*
X192492905Y-93523190D01*
X193445286Y-93094619D02*
X193492905Y-93047000D01*
X193492905Y-93047000D02*
X193588143Y-92999380D01*
X193588143Y-92999380D02*
X193826238Y-92999380D01*
X193826238Y-92999380D02*
X193921476Y-93047000D01*
X193921476Y-93047000D02*
X193969095Y-93094619D01*
X193969095Y-93094619D02*
X194016714Y-93189857D01*
X194016714Y-93189857D02*
X194016714Y-93285095D01*
X194016714Y-93285095D02*
X193969095Y-93427952D01*
X193969095Y-93427952D02*
X193397667Y-93999380D01*
X193397667Y-93999380D02*
X194016714Y-93999380D01*
X224238095Y-89167380D02*
X224238095Y-88167380D01*
X224238095Y-88643571D02*
X224809523Y-88643571D01*
X224809523Y-89167380D02*
X224809523Y-88167380D01*
X225714285Y-88500714D02*
X225714285Y-89167380D01*
X225476190Y-88119761D02*
X225238095Y-88834047D01*
X225238095Y-88834047D02*
X225857142Y-88834047D01*
X171886666Y-64297380D02*
X171886666Y-65011666D01*
X171886666Y-65011666D02*
X171839047Y-65154523D01*
X171839047Y-65154523D02*
X171743809Y-65249761D01*
X171743809Y-65249761D02*
X171600952Y-65297380D01*
X171600952Y-65297380D02*
X171505714Y-65297380D01*
X172362857Y-65297380D02*
X172362857Y-64297380D01*
X172362857Y-64297380D02*
X172743809Y-64297380D01*
X172743809Y-64297380D02*
X172839047Y-64345000D01*
X172839047Y-64345000D02*
X172886666Y-64392619D01*
X172886666Y-64392619D02*
X172934285Y-64487857D01*
X172934285Y-64487857D02*
X172934285Y-64630714D01*
X172934285Y-64630714D02*
X172886666Y-64725952D01*
X172886666Y-64725952D02*
X172839047Y-64773571D01*
X172839047Y-64773571D02*
X172743809Y-64821190D01*
X172743809Y-64821190D02*
X172362857Y-64821190D01*
X173886666Y-65297380D02*
X173315238Y-65297380D01*
X173600952Y-65297380D02*
X173600952Y-64297380D01*
X173600952Y-64297380D02*
X173505714Y-64440238D01*
X173505714Y-64440238D02*
X173410476Y-64535476D01*
X173410476Y-64535476D02*
X173315238Y-64583095D01*
X192873333Y-75137380D02*
X192540000Y-74661190D01*
X192301905Y-75137380D02*
X192301905Y-74137380D01*
X192301905Y-74137380D02*
X192682857Y-74137380D01*
X192682857Y-74137380D02*
X192778095Y-74185000D01*
X192778095Y-74185000D02*
X192825714Y-74232619D01*
X192825714Y-74232619D02*
X192873333Y-74327857D01*
X192873333Y-74327857D02*
X192873333Y-74470714D01*
X192873333Y-74470714D02*
X192825714Y-74565952D01*
X192825714Y-74565952D02*
X192778095Y-74613571D01*
X192778095Y-74613571D02*
X192682857Y-74661190D01*
X192682857Y-74661190D02*
X192301905Y-74661190D01*
X193349524Y-75137380D02*
X193540000Y-75137380D01*
X193540000Y-75137380D02*
X193635238Y-75089761D01*
X193635238Y-75089761D02*
X193682857Y-75042142D01*
X193682857Y-75042142D02*
X193778095Y-74899285D01*
X193778095Y-74899285D02*
X193825714Y-74708809D01*
X193825714Y-74708809D02*
X193825714Y-74327857D01*
X193825714Y-74327857D02*
X193778095Y-74232619D01*
X193778095Y-74232619D02*
X193730476Y-74185000D01*
X193730476Y-74185000D02*
X193635238Y-74137380D01*
X193635238Y-74137380D02*
X193444762Y-74137380D01*
X193444762Y-74137380D02*
X193349524Y-74185000D01*
X193349524Y-74185000D02*
X193301905Y-74232619D01*
X193301905Y-74232619D02*
X193254286Y-74327857D01*
X193254286Y-74327857D02*
X193254286Y-74565952D01*
X193254286Y-74565952D02*
X193301905Y-74661190D01*
X193301905Y-74661190D02*
X193349524Y-74708809D01*
X193349524Y-74708809D02*
X193444762Y-74756428D01*
X193444762Y-74756428D02*
X193635238Y-74756428D01*
X193635238Y-74756428D02*
X193730476Y-74708809D01*
X193730476Y-74708809D02*
X193778095Y-74661190D01*
X193778095Y-74661190D02*
X193825714Y-74565952D01*
X149357142Y-32367380D02*
X149023809Y-31891190D01*
X148785714Y-32367380D02*
X148785714Y-31367380D01*
X148785714Y-31367380D02*
X149166666Y-31367380D01*
X149166666Y-31367380D02*
X149261904Y-31415000D01*
X149261904Y-31415000D02*
X149309523Y-31462619D01*
X149309523Y-31462619D02*
X149357142Y-31557857D01*
X149357142Y-31557857D02*
X149357142Y-31700714D01*
X149357142Y-31700714D02*
X149309523Y-31795952D01*
X149309523Y-31795952D02*
X149261904Y-31843571D01*
X149261904Y-31843571D02*
X149166666Y-31891190D01*
X149166666Y-31891190D02*
X148785714Y-31891190D01*
X150309523Y-32367380D02*
X149738095Y-32367380D01*
X150023809Y-32367380D02*
X150023809Y-31367380D01*
X150023809Y-31367380D02*
X149928571Y-31510238D01*
X149928571Y-31510238D02*
X149833333Y-31605476D01*
X149833333Y-31605476D02*
X149738095Y-31653095D01*
X150642857Y-31367380D02*
X151261904Y-31367380D01*
X151261904Y-31367380D02*
X150928571Y-31748333D01*
X150928571Y-31748333D02*
X151071428Y-31748333D01*
X151071428Y-31748333D02*
X151166666Y-31795952D01*
X151166666Y-31795952D02*
X151214285Y-31843571D01*
X151214285Y-31843571D02*
X151261904Y-31938809D01*
X151261904Y-31938809D02*
X151261904Y-32176904D01*
X151261904Y-32176904D02*
X151214285Y-32272142D01*
X151214285Y-32272142D02*
X151166666Y-32319761D01*
X151166666Y-32319761D02*
X151071428Y-32367380D01*
X151071428Y-32367380D02*
X150785714Y-32367380D01*
X150785714Y-32367380D02*
X150690476Y-32319761D01*
X150690476Y-32319761D02*
X150642857Y-32272142D01*
X223166666Y-74307380D02*
X223166666Y-75021666D01*
X223166666Y-75021666D02*
X223119047Y-75164523D01*
X223119047Y-75164523D02*
X223023809Y-75259761D01*
X223023809Y-75259761D02*
X222880952Y-75307380D01*
X222880952Y-75307380D02*
X222785714Y-75307380D01*
X223595238Y-74402619D02*
X223642857Y-74355000D01*
X223642857Y-74355000D02*
X223738095Y-74307380D01*
X223738095Y-74307380D02*
X223976190Y-74307380D01*
X223976190Y-74307380D02*
X224071428Y-74355000D01*
X224071428Y-74355000D02*
X224119047Y-74402619D01*
X224119047Y-74402619D02*
X224166666Y-74497857D01*
X224166666Y-74497857D02*
X224166666Y-74593095D01*
X224166666Y-74593095D02*
X224119047Y-74735952D01*
X224119047Y-74735952D02*
X223547619Y-75307380D01*
X223547619Y-75307380D02*
X224166666Y-75307380D01*
X187502895Y-63827380D02*
X188074323Y-63827380D01*
X187788609Y-64827380D02*
X187788609Y-63827380D01*
X188407657Y-64827380D02*
X188407657Y-63827380D01*
X188407657Y-63827380D02*
X188788609Y-63827380D01*
X188788609Y-63827380D02*
X188883847Y-63875000D01*
X188883847Y-63875000D02*
X188931466Y-63922619D01*
X188931466Y-63922619D02*
X188979085Y-64017857D01*
X188979085Y-64017857D02*
X188979085Y-64160714D01*
X188979085Y-64160714D02*
X188931466Y-64255952D01*
X188931466Y-64255952D02*
X188883847Y-64303571D01*
X188883847Y-64303571D02*
X188788609Y-64351190D01*
X188788609Y-64351190D02*
X188407657Y-64351190D01*
X189312419Y-63827380D02*
X189931466Y-63827380D01*
X189931466Y-63827380D02*
X189598133Y-64208333D01*
X189598133Y-64208333D02*
X189740990Y-64208333D01*
X189740990Y-64208333D02*
X189836228Y-64255952D01*
X189836228Y-64255952D02*
X189883847Y-64303571D01*
X189883847Y-64303571D02*
X189931466Y-64398809D01*
X189931466Y-64398809D02*
X189931466Y-64636904D01*
X189931466Y-64636904D02*
X189883847Y-64732142D01*
X189883847Y-64732142D02*
X189836228Y-64779761D01*
X189836228Y-64779761D02*
X189740990Y-64827380D01*
X189740990Y-64827380D02*
X189455276Y-64827380D01*
X189455276Y-64827380D02*
X189360038Y-64779761D01*
X189360038Y-64779761D02*
X189312419Y-64732142D01*
X167238095Y-74867380D02*
X167809523Y-74867380D01*
X167523809Y-75867380D02*
X167523809Y-74867380D01*
X168142857Y-75867380D02*
X168142857Y-74867380D01*
X168142857Y-74867380D02*
X168523809Y-74867380D01*
X168523809Y-74867380D02*
X168619047Y-74915000D01*
X168619047Y-74915000D02*
X168666666Y-74962619D01*
X168666666Y-74962619D02*
X168714285Y-75057857D01*
X168714285Y-75057857D02*
X168714285Y-75200714D01*
X168714285Y-75200714D02*
X168666666Y-75295952D01*
X168666666Y-75295952D02*
X168619047Y-75343571D01*
X168619047Y-75343571D02*
X168523809Y-75391190D01*
X168523809Y-75391190D02*
X168142857Y-75391190D01*
X169285714Y-75295952D02*
X169190476Y-75248333D01*
X169190476Y-75248333D02*
X169142857Y-75200714D01*
X169142857Y-75200714D02*
X169095238Y-75105476D01*
X169095238Y-75105476D02*
X169095238Y-75057857D01*
X169095238Y-75057857D02*
X169142857Y-74962619D01*
X169142857Y-74962619D02*
X169190476Y-74915000D01*
X169190476Y-74915000D02*
X169285714Y-74867380D01*
X169285714Y-74867380D02*
X169476190Y-74867380D01*
X169476190Y-74867380D02*
X169571428Y-74915000D01*
X169571428Y-74915000D02*
X169619047Y-74962619D01*
X169619047Y-74962619D02*
X169666666Y-75057857D01*
X169666666Y-75057857D02*
X169666666Y-75105476D01*
X169666666Y-75105476D02*
X169619047Y-75200714D01*
X169619047Y-75200714D02*
X169571428Y-75248333D01*
X169571428Y-75248333D02*
X169476190Y-75295952D01*
X169476190Y-75295952D02*
X169285714Y-75295952D01*
X169285714Y-75295952D02*
X169190476Y-75343571D01*
X169190476Y-75343571D02*
X169142857Y-75391190D01*
X169142857Y-75391190D02*
X169095238Y-75486428D01*
X169095238Y-75486428D02*
X169095238Y-75676904D01*
X169095238Y-75676904D02*
X169142857Y-75772142D01*
X169142857Y-75772142D02*
X169190476Y-75819761D01*
X169190476Y-75819761D02*
X169285714Y-75867380D01*
X169285714Y-75867380D02*
X169476190Y-75867380D01*
X169476190Y-75867380D02*
X169571428Y-75819761D01*
X169571428Y-75819761D02*
X169619047Y-75772142D01*
X169619047Y-75772142D02*
X169666666Y-75676904D01*
X169666666Y-75676904D02*
X169666666Y-75486428D01*
X169666666Y-75486428D02*
X169619047Y-75391190D01*
X169619047Y-75391190D02*
X169571428Y-75343571D01*
X169571428Y-75343571D02*
X169476190Y-75295952D01*
X198333333Y-86727380D02*
X198000000Y-86251190D01*
X197761905Y-86727380D02*
X197761905Y-85727380D01*
X197761905Y-85727380D02*
X198142857Y-85727380D01*
X198142857Y-85727380D02*
X198238095Y-85775000D01*
X198238095Y-85775000D02*
X198285714Y-85822619D01*
X198285714Y-85822619D02*
X198333333Y-85917857D01*
X198333333Y-85917857D02*
X198333333Y-86060714D01*
X198333333Y-86060714D02*
X198285714Y-86155952D01*
X198285714Y-86155952D02*
X198238095Y-86203571D01*
X198238095Y-86203571D02*
X198142857Y-86251190D01*
X198142857Y-86251190D02*
X197761905Y-86251190D01*
X198666667Y-85727380D02*
X199285714Y-85727380D01*
X199285714Y-85727380D02*
X198952381Y-86108333D01*
X198952381Y-86108333D02*
X199095238Y-86108333D01*
X199095238Y-86108333D02*
X199190476Y-86155952D01*
X199190476Y-86155952D02*
X199238095Y-86203571D01*
X199238095Y-86203571D02*
X199285714Y-86298809D01*
X199285714Y-86298809D02*
X199285714Y-86536904D01*
X199285714Y-86536904D02*
X199238095Y-86632142D01*
X199238095Y-86632142D02*
X199190476Y-86679761D01*
X199190476Y-86679761D02*
X199095238Y-86727380D01*
X199095238Y-86727380D02*
X198809524Y-86727380D01*
X198809524Y-86727380D02*
X198714286Y-86679761D01*
X198714286Y-86679761D02*
X198666667Y-86632142D01*
X174102142Y-59361666D02*
X174149761Y-59409285D01*
X174149761Y-59409285D02*
X174197380Y-59552142D01*
X174197380Y-59552142D02*
X174197380Y-59647380D01*
X174197380Y-59647380D02*
X174149761Y-59790237D01*
X174149761Y-59790237D02*
X174054523Y-59885475D01*
X174054523Y-59885475D02*
X173959285Y-59933094D01*
X173959285Y-59933094D02*
X173768809Y-59980713D01*
X173768809Y-59980713D02*
X173625952Y-59980713D01*
X173625952Y-59980713D02*
X173435476Y-59933094D01*
X173435476Y-59933094D02*
X173340238Y-59885475D01*
X173340238Y-59885475D02*
X173245000Y-59790237D01*
X173245000Y-59790237D02*
X173197380Y-59647380D01*
X173197380Y-59647380D02*
X173197380Y-59552142D01*
X173197380Y-59552142D02*
X173245000Y-59409285D01*
X173245000Y-59409285D02*
X173292619Y-59361666D01*
X173530714Y-58504523D02*
X174197380Y-58504523D01*
X173149761Y-58742618D02*
X173864047Y-58980713D01*
X173864047Y-58980713D02*
X173864047Y-58361666D01*
X139857142Y-57272142D02*
X139809523Y-57319761D01*
X139809523Y-57319761D02*
X139666666Y-57367380D01*
X139666666Y-57367380D02*
X139571428Y-57367380D01*
X139571428Y-57367380D02*
X139428571Y-57319761D01*
X139428571Y-57319761D02*
X139333333Y-57224523D01*
X139333333Y-57224523D02*
X139285714Y-57129285D01*
X139285714Y-57129285D02*
X139238095Y-56938809D01*
X139238095Y-56938809D02*
X139238095Y-56795952D01*
X139238095Y-56795952D02*
X139285714Y-56605476D01*
X139285714Y-56605476D02*
X139333333Y-56510238D01*
X139333333Y-56510238D02*
X139428571Y-56415000D01*
X139428571Y-56415000D02*
X139571428Y-56367380D01*
X139571428Y-56367380D02*
X139666666Y-56367380D01*
X139666666Y-56367380D02*
X139809523Y-56415000D01*
X139809523Y-56415000D02*
X139857142Y-56462619D01*
X140809523Y-57367380D02*
X140238095Y-57367380D01*
X140523809Y-57367380D02*
X140523809Y-56367380D01*
X140523809Y-56367380D02*
X140428571Y-56510238D01*
X140428571Y-56510238D02*
X140333333Y-56605476D01*
X140333333Y-56605476D02*
X140238095Y-56653095D01*
X141761904Y-57367380D02*
X141190476Y-57367380D01*
X141476190Y-57367380D02*
X141476190Y-56367380D01*
X141476190Y-56367380D02*
X141380952Y-56510238D01*
X141380952Y-56510238D02*
X141285714Y-56605476D01*
X141285714Y-56605476D02*
X141190476Y-56653095D01*
X171778333Y-44562142D02*
X171730714Y-44609761D01*
X171730714Y-44609761D02*
X171587857Y-44657380D01*
X171587857Y-44657380D02*
X171492619Y-44657380D01*
X171492619Y-44657380D02*
X171349762Y-44609761D01*
X171349762Y-44609761D02*
X171254524Y-44514523D01*
X171254524Y-44514523D02*
X171206905Y-44419285D01*
X171206905Y-44419285D02*
X171159286Y-44228809D01*
X171159286Y-44228809D02*
X171159286Y-44085952D01*
X171159286Y-44085952D02*
X171206905Y-43895476D01*
X171206905Y-43895476D02*
X171254524Y-43800238D01*
X171254524Y-43800238D02*
X171349762Y-43705000D01*
X171349762Y-43705000D02*
X171492619Y-43657380D01*
X171492619Y-43657380D02*
X171587857Y-43657380D01*
X171587857Y-43657380D02*
X171730714Y-43705000D01*
X171730714Y-43705000D02*
X171778333Y-43752619D01*
X172683095Y-43657380D02*
X172206905Y-43657380D01*
X172206905Y-43657380D02*
X172159286Y-44133571D01*
X172159286Y-44133571D02*
X172206905Y-44085952D01*
X172206905Y-44085952D02*
X172302143Y-44038333D01*
X172302143Y-44038333D02*
X172540238Y-44038333D01*
X172540238Y-44038333D02*
X172635476Y-44085952D01*
X172635476Y-44085952D02*
X172683095Y-44133571D01*
X172683095Y-44133571D02*
X172730714Y-44228809D01*
X172730714Y-44228809D02*
X172730714Y-44466904D01*
X172730714Y-44466904D02*
X172683095Y-44562142D01*
X172683095Y-44562142D02*
X172635476Y-44609761D01*
X172635476Y-44609761D02*
X172540238Y-44657380D01*
X172540238Y-44657380D02*
X172302143Y-44657380D01*
X172302143Y-44657380D02*
X172206905Y-44609761D01*
X172206905Y-44609761D02*
X172159286Y-44562142D01*
X162357142Y-43937380D02*
X162023809Y-43461190D01*
X161785714Y-43937380D02*
X161785714Y-42937380D01*
X161785714Y-42937380D02*
X162166666Y-42937380D01*
X162166666Y-42937380D02*
X162261904Y-42985000D01*
X162261904Y-42985000D02*
X162309523Y-43032619D01*
X162309523Y-43032619D02*
X162357142Y-43127857D01*
X162357142Y-43127857D02*
X162357142Y-43270714D01*
X162357142Y-43270714D02*
X162309523Y-43365952D01*
X162309523Y-43365952D02*
X162261904Y-43413571D01*
X162261904Y-43413571D02*
X162166666Y-43461190D01*
X162166666Y-43461190D02*
X161785714Y-43461190D01*
X163309523Y-43937380D02*
X162738095Y-43937380D01*
X163023809Y-43937380D02*
X163023809Y-42937380D01*
X163023809Y-42937380D02*
X162928571Y-43080238D01*
X162928571Y-43080238D02*
X162833333Y-43175476D01*
X162833333Y-43175476D02*
X162738095Y-43223095D01*
X164214285Y-42937380D02*
X163738095Y-42937380D01*
X163738095Y-42937380D02*
X163690476Y-43413571D01*
X163690476Y-43413571D02*
X163738095Y-43365952D01*
X163738095Y-43365952D02*
X163833333Y-43318333D01*
X163833333Y-43318333D02*
X164071428Y-43318333D01*
X164071428Y-43318333D02*
X164166666Y-43365952D01*
X164166666Y-43365952D02*
X164214285Y-43413571D01*
X164214285Y-43413571D02*
X164261904Y-43508809D01*
X164261904Y-43508809D02*
X164261904Y-43746904D01*
X164261904Y-43746904D02*
X164214285Y-43842142D01*
X164214285Y-43842142D02*
X164166666Y-43889761D01*
X164166666Y-43889761D02*
X164071428Y-43937380D01*
X164071428Y-43937380D02*
X163833333Y-43937380D01*
X163833333Y-43937380D02*
X163738095Y-43889761D01*
X163738095Y-43889761D02*
X163690476Y-43842142D01*
X142612142Y-39146666D02*
X142659761Y-39194285D01*
X142659761Y-39194285D02*
X142707380Y-39337142D01*
X142707380Y-39337142D02*
X142707380Y-39432380D01*
X142707380Y-39432380D02*
X142659761Y-39575237D01*
X142659761Y-39575237D02*
X142564523Y-39670475D01*
X142564523Y-39670475D02*
X142469285Y-39718094D01*
X142469285Y-39718094D02*
X142278809Y-39765713D01*
X142278809Y-39765713D02*
X142135952Y-39765713D01*
X142135952Y-39765713D02*
X141945476Y-39718094D01*
X141945476Y-39718094D02*
X141850238Y-39670475D01*
X141850238Y-39670475D02*
X141755000Y-39575237D01*
X141755000Y-39575237D02*
X141707380Y-39432380D01*
X141707380Y-39432380D02*
X141707380Y-39337142D01*
X141707380Y-39337142D02*
X141755000Y-39194285D01*
X141755000Y-39194285D02*
X141802619Y-39146666D01*
X142707380Y-38670475D02*
X142707380Y-38479999D01*
X142707380Y-38479999D02*
X142659761Y-38384761D01*
X142659761Y-38384761D02*
X142612142Y-38337142D01*
X142612142Y-38337142D02*
X142469285Y-38241904D01*
X142469285Y-38241904D02*
X142278809Y-38194285D01*
X142278809Y-38194285D02*
X141897857Y-38194285D01*
X141897857Y-38194285D02*
X141802619Y-38241904D01*
X141802619Y-38241904D02*
X141755000Y-38289523D01*
X141755000Y-38289523D02*
X141707380Y-38384761D01*
X141707380Y-38384761D02*
X141707380Y-38575237D01*
X141707380Y-38575237D02*
X141755000Y-38670475D01*
X141755000Y-38670475D02*
X141802619Y-38718094D01*
X141802619Y-38718094D02*
X141897857Y-38765713D01*
X141897857Y-38765713D02*
X142135952Y-38765713D01*
X142135952Y-38765713D02*
X142231190Y-38718094D01*
X142231190Y-38718094D02*
X142278809Y-38670475D01*
X142278809Y-38670475D02*
X142326428Y-38575237D01*
X142326428Y-38575237D02*
X142326428Y-38384761D01*
X142326428Y-38384761D02*
X142278809Y-38289523D01*
X142278809Y-38289523D02*
X142231190Y-38241904D01*
X142231190Y-38241904D02*
X142135952Y-38194285D01*
X224364761Y-73232619D02*
X224269523Y-73185000D01*
X224269523Y-73185000D02*
X224174285Y-73089761D01*
X224174285Y-73089761D02*
X224031428Y-72946904D01*
X224031428Y-72946904D02*
X223936190Y-72899285D01*
X223936190Y-72899285D02*
X223840952Y-72899285D01*
X223888571Y-73137380D02*
X223793333Y-73089761D01*
X223793333Y-73089761D02*
X223698095Y-72994523D01*
X223698095Y-72994523D02*
X223650476Y-72804047D01*
X223650476Y-72804047D02*
X223650476Y-72470714D01*
X223650476Y-72470714D02*
X223698095Y-72280238D01*
X223698095Y-72280238D02*
X223793333Y-72185000D01*
X223793333Y-72185000D02*
X223888571Y-72137380D01*
X223888571Y-72137380D02*
X224079047Y-72137380D01*
X224079047Y-72137380D02*
X224174285Y-72185000D01*
X224174285Y-72185000D02*
X224269523Y-72280238D01*
X224269523Y-72280238D02*
X224317142Y-72470714D01*
X224317142Y-72470714D02*
X224317142Y-72804047D01*
X224317142Y-72804047D02*
X224269523Y-72994523D01*
X224269523Y-72994523D02*
X224174285Y-73089761D01*
X224174285Y-73089761D02*
X224079047Y-73137380D01*
X224079047Y-73137380D02*
X223888571Y-73137380D01*
X224698095Y-72232619D02*
X224745714Y-72185000D01*
X224745714Y-72185000D02*
X224840952Y-72137380D01*
X224840952Y-72137380D02*
X225079047Y-72137380D01*
X225079047Y-72137380D02*
X225174285Y-72185000D01*
X225174285Y-72185000D02*
X225221904Y-72232619D01*
X225221904Y-72232619D02*
X225269523Y-72327857D01*
X225269523Y-72327857D02*
X225269523Y-72423095D01*
X225269523Y-72423095D02*
X225221904Y-72565952D01*
X225221904Y-72565952D02*
X224650476Y-73137380D01*
X224650476Y-73137380D02*
X225269523Y-73137380D01*
D11*
X158578809Y-85616573D02*
X157974047Y-85616573D01*
X157974047Y-85616573D02*
X157974047Y-84346573D01*
X159002142Y-84951335D02*
X159425476Y-84951335D01*
X159606904Y-85616573D02*
X159002142Y-85616573D01*
X159002142Y-85616573D02*
X159002142Y-84346573D01*
X159002142Y-84346573D02*
X159606904Y-84346573D01*
X160151190Y-85616573D02*
X160151190Y-84346573D01*
X160151190Y-84346573D02*
X160453571Y-84346573D01*
X160453571Y-84346573D02*
X160635000Y-84407050D01*
X160635000Y-84407050D02*
X160755952Y-84528002D01*
X160755952Y-84528002D02*
X160816429Y-84648954D01*
X160816429Y-84648954D02*
X160876905Y-84890859D01*
X160876905Y-84890859D02*
X160876905Y-85072288D01*
X160876905Y-85072288D02*
X160816429Y-85314192D01*
X160816429Y-85314192D02*
X160755952Y-85435145D01*
X160755952Y-85435145D02*
X160635000Y-85556097D01*
X160635000Y-85556097D02*
X160453571Y-85616573D01*
X160453571Y-85616573D02*
X160151190Y-85616573D01*
X161965476Y-84769907D02*
X161965476Y-85616573D01*
X161663095Y-84286097D02*
X161360714Y-85193240D01*
X161360714Y-85193240D02*
X162146905Y-85193240D01*
D10*
X172553333Y-66247380D02*
X172220000Y-65771190D01*
X171981905Y-66247380D02*
X171981905Y-65247380D01*
X171981905Y-65247380D02*
X172362857Y-65247380D01*
X172362857Y-65247380D02*
X172458095Y-65295000D01*
X172458095Y-65295000D02*
X172505714Y-65342619D01*
X172505714Y-65342619D02*
X172553333Y-65437857D01*
X172553333Y-65437857D02*
X172553333Y-65580714D01*
X172553333Y-65580714D02*
X172505714Y-65675952D01*
X172505714Y-65675952D02*
X172458095Y-65723571D01*
X172458095Y-65723571D02*
X172362857Y-65771190D01*
X172362857Y-65771190D02*
X171981905Y-65771190D01*
X172886667Y-65247380D02*
X173553333Y-65247380D01*
X173553333Y-65247380D02*
X173124762Y-66247380D01*
X180483095Y-70607380D02*
X180483095Y-71416904D01*
X180483095Y-71416904D02*
X180530714Y-71512142D01*
X180530714Y-71512142D02*
X180578333Y-71559761D01*
X180578333Y-71559761D02*
X180673571Y-71607380D01*
X180673571Y-71607380D02*
X180864047Y-71607380D01*
X180864047Y-71607380D02*
X180959285Y-71559761D01*
X180959285Y-71559761D02*
X181006904Y-71512142D01*
X181006904Y-71512142D02*
X181054523Y-71416904D01*
X181054523Y-71416904D02*
X181054523Y-70607380D01*
X181435476Y-70607380D02*
X182054523Y-70607380D01*
X182054523Y-70607380D02*
X181721190Y-70988333D01*
X181721190Y-70988333D02*
X181864047Y-70988333D01*
X181864047Y-70988333D02*
X181959285Y-71035952D01*
X181959285Y-71035952D02*
X182006904Y-71083571D01*
X182006904Y-71083571D02*
X182054523Y-71178809D01*
X182054523Y-71178809D02*
X182054523Y-71416904D01*
X182054523Y-71416904D02*
X182006904Y-71512142D01*
X182006904Y-71512142D02*
X181959285Y-71559761D01*
X181959285Y-71559761D02*
X181864047Y-71607380D01*
X181864047Y-71607380D02*
X181578333Y-71607380D01*
X181578333Y-71607380D02*
X181483095Y-71559761D01*
X181483095Y-71559761D02*
X181435476Y-71512142D01*
X181586667Y-85457380D02*
X181586667Y-84457380D01*
X181586667Y-84457380D02*
X181920000Y-85171666D01*
X181920000Y-85171666D02*
X182253333Y-84457380D01*
X182253333Y-84457380D02*
X182253333Y-85457380D01*
X182920000Y-84457380D02*
X183110476Y-84457380D01*
X183110476Y-84457380D02*
X183205714Y-84505000D01*
X183205714Y-84505000D02*
X183300952Y-84600238D01*
X183300952Y-84600238D02*
X183348571Y-84790714D01*
X183348571Y-84790714D02*
X183348571Y-85124047D01*
X183348571Y-85124047D02*
X183300952Y-85314523D01*
X183300952Y-85314523D02*
X183205714Y-85409761D01*
X183205714Y-85409761D02*
X183110476Y-85457380D01*
X183110476Y-85457380D02*
X182920000Y-85457380D01*
X182920000Y-85457380D02*
X182824762Y-85409761D01*
X182824762Y-85409761D02*
X182729524Y-85314523D01*
X182729524Y-85314523D02*
X182681905Y-85124047D01*
X182681905Y-85124047D02*
X182681905Y-84790714D01*
X182681905Y-84790714D02*
X182729524Y-84600238D01*
X182729524Y-84600238D02*
X182824762Y-84505000D01*
X182824762Y-84505000D02*
X182920000Y-84457380D01*
X184348571Y-85362142D02*
X184300952Y-85409761D01*
X184300952Y-85409761D02*
X184158095Y-85457380D01*
X184158095Y-85457380D02*
X184062857Y-85457380D01*
X184062857Y-85457380D02*
X183920000Y-85409761D01*
X183920000Y-85409761D02*
X183824762Y-85314523D01*
X183824762Y-85314523D02*
X183777143Y-85219285D01*
X183777143Y-85219285D02*
X183729524Y-85028809D01*
X183729524Y-85028809D02*
X183729524Y-84885952D01*
X183729524Y-84885952D02*
X183777143Y-84695476D01*
X183777143Y-84695476D02*
X183824762Y-84600238D01*
X183824762Y-84600238D02*
X183920000Y-84505000D01*
X183920000Y-84505000D02*
X184062857Y-84457380D01*
X184062857Y-84457380D02*
X184158095Y-84457380D01*
X184158095Y-84457380D02*
X184300952Y-84505000D01*
X184300952Y-84505000D02*
X184348571Y-84552619D01*
X184681905Y-84457380D02*
X185300952Y-84457380D01*
X185300952Y-84457380D02*
X184967619Y-84838333D01*
X184967619Y-84838333D02*
X185110476Y-84838333D01*
X185110476Y-84838333D02*
X185205714Y-84885952D01*
X185205714Y-84885952D02*
X185253333Y-84933571D01*
X185253333Y-84933571D02*
X185300952Y-85028809D01*
X185300952Y-85028809D02*
X185300952Y-85266904D01*
X185300952Y-85266904D02*
X185253333Y-85362142D01*
X185253333Y-85362142D02*
X185205714Y-85409761D01*
X185205714Y-85409761D02*
X185110476Y-85457380D01*
X185110476Y-85457380D02*
X184824762Y-85457380D01*
X184824762Y-85457380D02*
X184729524Y-85409761D01*
X184729524Y-85409761D02*
X184681905Y-85362142D01*
X185920000Y-84457380D02*
X186015238Y-84457380D01*
X186015238Y-84457380D02*
X186110476Y-84505000D01*
X186110476Y-84505000D02*
X186158095Y-84552619D01*
X186158095Y-84552619D02*
X186205714Y-84647857D01*
X186205714Y-84647857D02*
X186253333Y-84838333D01*
X186253333Y-84838333D02*
X186253333Y-85076428D01*
X186253333Y-85076428D02*
X186205714Y-85266904D01*
X186205714Y-85266904D02*
X186158095Y-85362142D01*
X186158095Y-85362142D02*
X186110476Y-85409761D01*
X186110476Y-85409761D02*
X186015238Y-85457380D01*
X186015238Y-85457380D02*
X185920000Y-85457380D01*
X185920000Y-85457380D02*
X185824762Y-85409761D01*
X185824762Y-85409761D02*
X185777143Y-85362142D01*
X185777143Y-85362142D02*
X185729524Y-85266904D01*
X185729524Y-85266904D02*
X185681905Y-85076428D01*
X185681905Y-85076428D02*
X185681905Y-84838333D01*
X185681905Y-84838333D02*
X185729524Y-84647857D01*
X185729524Y-84647857D02*
X185777143Y-84552619D01*
X185777143Y-84552619D02*
X185824762Y-84505000D01*
X185824762Y-84505000D02*
X185920000Y-84457380D01*
X186634286Y-84552619D02*
X186681905Y-84505000D01*
X186681905Y-84505000D02*
X186777143Y-84457380D01*
X186777143Y-84457380D02*
X187015238Y-84457380D01*
X187015238Y-84457380D02*
X187110476Y-84505000D01*
X187110476Y-84505000D02*
X187158095Y-84552619D01*
X187158095Y-84552619D02*
X187205714Y-84647857D01*
X187205714Y-84647857D02*
X187205714Y-84743095D01*
X187205714Y-84743095D02*
X187158095Y-84885952D01*
X187158095Y-84885952D02*
X186586667Y-85457380D01*
X186586667Y-85457380D02*
X187205714Y-85457380D01*
X188158095Y-85457380D02*
X187586667Y-85457380D01*
X187872381Y-85457380D02*
X187872381Y-84457380D01*
X187872381Y-84457380D02*
X187777143Y-84600238D01*
X187777143Y-84600238D02*
X187681905Y-84695476D01*
X187681905Y-84695476D02*
X187586667Y-84743095D01*
X188586667Y-85457380D02*
X188586667Y-84457380D01*
X188586667Y-84457380D02*
X188920000Y-85171666D01*
X188920000Y-85171666D02*
X189253333Y-84457380D01*
X189253333Y-84457380D02*
X189253333Y-85457380D01*
X208833333Y-64272142D02*
X208785714Y-64319761D01*
X208785714Y-64319761D02*
X208642857Y-64367380D01*
X208642857Y-64367380D02*
X208547619Y-64367380D01*
X208547619Y-64367380D02*
X208404762Y-64319761D01*
X208404762Y-64319761D02*
X208309524Y-64224523D01*
X208309524Y-64224523D02*
X208261905Y-64129285D01*
X208261905Y-64129285D02*
X208214286Y-63938809D01*
X208214286Y-63938809D02*
X208214286Y-63795952D01*
X208214286Y-63795952D02*
X208261905Y-63605476D01*
X208261905Y-63605476D02*
X208309524Y-63510238D01*
X208309524Y-63510238D02*
X208404762Y-63415000D01*
X208404762Y-63415000D02*
X208547619Y-63367380D01*
X208547619Y-63367380D02*
X208642857Y-63367380D01*
X208642857Y-63367380D02*
X208785714Y-63415000D01*
X208785714Y-63415000D02*
X208833333Y-63462619D01*
X209166667Y-63367380D02*
X209785714Y-63367380D01*
X209785714Y-63367380D02*
X209452381Y-63748333D01*
X209452381Y-63748333D02*
X209595238Y-63748333D01*
X209595238Y-63748333D02*
X209690476Y-63795952D01*
X209690476Y-63795952D02*
X209738095Y-63843571D01*
X209738095Y-63843571D02*
X209785714Y-63938809D01*
X209785714Y-63938809D02*
X209785714Y-64176904D01*
X209785714Y-64176904D02*
X209738095Y-64272142D01*
X209738095Y-64272142D02*
X209690476Y-64319761D01*
X209690476Y-64319761D02*
X209595238Y-64367380D01*
X209595238Y-64367380D02*
X209309524Y-64367380D01*
X209309524Y-64367380D02*
X209214286Y-64319761D01*
X209214286Y-64319761D02*
X209166667Y-64272142D01*
X204547619Y-63462619D02*
X204595238Y-63415000D01*
X204595238Y-63415000D02*
X204690476Y-63367380D01*
X204690476Y-63367380D02*
X204928571Y-63367380D01*
X204928571Y-63367380D02*
X205023809Y-63415000D01*
X205023809Y-63415000D02*
X205071428Y-63462619D01*
X205071428Y-63462619D02*
X205119047Y-63557857D01*
X205119047Y-63557857D02*
X205119047Y-63653095D01*
X205119047Y-63653095D02*
X205071428Y-63795952D01*
X205071428Y-63795952D02*
X204500000Y-64367380D01*
X204500000Y-64367380D02*
X205119047Y-64367380D01*
X205547619Y-64272142D02*
X205595238Y-64319761D01*
X205595238Y-64319761D02*
X205547619Y-64367380D01*
X205547619Y-64367380D02*
X205500000Y-64319761D01*
X205500000Y-64319761D02*
X205547619Y-64272142D01*
X205547619Y-64272142D02*
X205547619Y-64367380D01*
X205976190Y-63462619D02*
X206023809Y-63415000D01*
X206023809Y-63415000D02*
X206119047Y-63367380D01*
X206119047Y-63367380D02*
X206357142Y-63367380D01*
X206357142Y-63367380D02*
X206452380Y-63415000D01*
X206452380Y-63415000D02*
X206499999Y-63462619D01*
X206499999Y-63462619D02*
X206547618Y-63557857D01*
X206547618Y-63557857D02*
X206547618Y-63653095D01*
X206547618Y-63653095D02*
X206499999Y-63795952D01*
X206499999Y-63795952D02*
X205928571Y-64367380D01*
X205928571Y-64367380D02*
X206547618Y-64367380D01*
X207404761Y-63700714D02*
X207404761Y-64367380D01*
X206976190Y-63700714D02*
X206976190Y-64224523D01*
X206976190Y-64224523D02*
X207023809Y-64319761D01*
X207023809Y-64319761D02*
X207119047Y-64367380D01*
X207119047Y-64367380D02*
X207261904Y-64367380D01*
X207261904Y-64367380D02*
X207357142Y-64319761D01*
X207357142Y-64319761D02*
X207404761Y-64272142D01*
X208343500Y-59057380D02*
X208343500Y-59295476D01*
X208105405Y-59200238D02*
X208343500Y-59295476D01*
X208343500Y-59295476D02*
X208581595Y-59200238D01*
X208200643Y-59485952D02*
X208343500Y-59295476D01*
X208343500Y-59295476D02*
X208486357Y-59485952D01*
X204303333Y-88097380D02*
X203970000Y-87621190D01*
X203731905Y-88097380D02*
X203731905Y-87097380D01*
X203731905Y-87097380D02*
X204112857Y-87097380D01*
X204112857Y-87097380D02*
X204208095Y-87145000D01*
X204208095Y-87145000D02*
X204255714Y-87192619D01*
X204255714Y-87192619D02*
X204303333Y-87287857D01*
X204303333Y-87287857D02*
X204303333Y-87430714D01*
X204303333Y-87430714D02*
X204255714Y-87525952D01*
X204255714Y-87525952D02*
X204208095Y-87573571D01*
X204208095Y-87573571D02*
X204112857Y-87621190D01*
X204112857Y-87621190D02*
X203731905Y-87621190D01*
X205255714Y-88097380D02*
X204684286Y-88097380D01*
X204970000Y-88097380D02*
X204970000Y-87097380D01*
X204970000Y-87097380D02*
X204874762Y-87240238D01*
X204874762Y-87240238D02*
X204779524Y-87335476D01*
X204779524Y-87335476D02*
X204684286Y-87383095D01*
D11*
X209487526Y-85680952D02*
X209427050Y-85801904D01*
X209427050Y-85801904D02*
X209306097Y-85922857D01*
X209306097Y-85922857D02*
X209124669Y-86104285D01*
X209124669Y-86104285D02*
X209064192Y-86225238D01*
X209064192Y-86225238D02*
X209064192Y-86346190D01*
X209366573Y-86285714D02*
X209306097Y-86406666D01*
X209306097Y-86406666D02*
X209185145Y-86527619D01*
X209185145Y-86527619D02*
X208943240Y-86588095D01*
X208943240Y-86588095D02*
X208519907Y-86588095D01*
X208519907Y-86588095D02*
X208278002Y-86527619D01*
X208278002Y-86527619D02*
X208157050Y-86406666D01*
X208157050Y-86406666D02*
X208096573Y-86285714D01*
X208096573Y-86285714D02*
X208096573Y-86043809D01*
X208096573Y-86043809D02*
X208157050Y-85922857D01*
X208157050Y-85922857D02*
X208278002Y-85801904D01*
X208278002Y-85801904D02*
X208519907Y-85741428D01*
X208519907Y-85741428D02*
X208943240Y-85741428D01*
X208943240Y-85741428D02*
X209185145Y-85801904D01*
X209185145Y-85801904D02*
X209306097Y-85922857D01*
X209306097Y-85922857D02*
X209366573Y-86043809D01*
X209366573Y-86043809D02*
X209366573Y-86285714D01*
X209366573Y-84531904D02*
X209366573Y-85257619D01*
X209366573Y-84894762D02*
X208096573Y-84894762D01*
X208096573Y-84894762D02*
X208278002Y-85015714D01*
X208278002Y-85015714D02*
X208398954Y-85136666D01*
X208398954Y-85136666D02*
X208459430Y-85257619D01*
D10*
X133238095Y-87667380D02*
X133238095Y-86667380D01*
X133238095Y-87143571D02*
X133809523Y-87143571D01*
X133809523Y-87667380D02*
X133809523Y-86667380D01*
X134190476Y-86667380D02*
X134809523Y-86667380D01*
X134809523Y-86667380D02*
X134476190Y-87048333D01*
X134476190Y-87048333D02*
X134619047Y-87048333D01*
X134619047Y-87048333D02*
X134714285Y-87095952D01*
X134714285Y-87095952D02*
X134761904Y-87143571D01*
X134761904Y-87143571D02*
X134809523Y-87238809D01*
X134809523Y-87238809D02*
X134809523Y-87476904D01*
X134809523Y-87476904D02*
X134761904Y-87572142D01*
X134761904Y-87572142D02*
X134714285Y-87619761D01*
X134714285Y-87619761D02*
X134619047Y-87667380D01*
X134619047Y-87667380D02*
X134333333Y-87667380D01*
X134333333Y-87667380D02*
X134238095Y-87619761D01*
X134238095Y-87619761D02*
X134190476Y-87572142D01*
X157112142Y-45122857D02*
X157159761Y-45170476D01*
X157159761Y-45170476D02*
X157207380Y-45313333D01*
X157207380Y-45313333D02*
X157207380Y-45408571D01*
X157207380Y-45408571D02*
X157159761Y-45551428D01*
X157159761Y-45551428D02*
X157064523Y-45646666D01*
X157064523Y-45646666D02*
X156969285Y-45694285D01*
X156969285Y-45694285D02*
X156778809Y-45741904D01*
X156778809Y-45741904D02*
X156635952Y-45741904D01*
X156635952Y-45741904D02*
X156445476Y-45694285D01*
X156445476Y-45694285D02*
X156350238Y-45646666D01*
X156350238Y-45646666D02*
X156255000Y-45551428D01*
X156255000Y-45551428D02*
X156207380Y-45408571D01*
X156207380Y-45408571D02*
X156207380Y-45313333D01*
X156207380Y-45313333D02*
X156255000Y-45170476D01*
X156255000Y-45170476D02*
X156302619Y-45122857D01*
X157207380Y-44170476D02*
X157207380Y-44741904D01*
X157207380Y-44456190D02*
X156207380Y-44456190D01*
X156207380Y-44456190D02*
X156350238Y-44551428D01*
X156350238Y-44551428D02*
X156445476Y-44646666D01*
X156445476Y-44646666D02*
X156493095Y-44741904D01*
X156540714Y-43313333D02*
X157207380Y-43313333D01*
X156159761Y-43551428D02*
X156874047Y-43789523D01*
X156874047Y-43789523D02*
X156874047Y-43170476D01*
X167847380Y-51442857D02*
X167371190Y-51776190D01*
X167847380Y-52014285D02*
X166847380Y-52014285D01*
X166847380Y-52014285D02*
X166847380Y-51633333D01*
X166847380Y-51633333D02*
X166895000Y-51538095D01*
X166895000Y-51538095D02*
X166942619Y-51490476D01*
X166942619Y-51490476D02*
X167037857Y-51442857D01*
X167037857Y-51442857D02*
X167180714Y-51442857D01*
X167180714Y-51442857D02*
X167275952Y-51490476D01*
X167275952Y-51490476D02*
X167323571Y-51538095D01*
X167323571Y-51538095D02*
X167371190Y-51633333D01*
X167371190Y-51633333D02*
X167371190Y-52014285D01*
X167847380Y-50490476D02*
X167847380Y-51061904D01*
X167847380Y-50776190D02*
X166847380Y-50776190D01*
X166847380Y-50776190D02*
X166990238Y-50871428D01*
X166990238Y-50871428D02*
X167085476Y-50966666D01*
X167085476Y-50966666D02*
X167133095Y-51061904D01*
X167180714Y-49633333D02*
X167847380Y-49633333D01*
X166799761Y-49871428D02*
X167514047Y-50109523D01*
X167514047Y-50109523D02*
X167514047Y-49490476D01*
X137857142Y-66272142D02*
X137809523Y-66319761D01*
X137809523Y-66319761D02*
X137666666Y-66367380D01*
X137666666Y-66367380D02*
X137571428Y-66367380D01*
X137571428Y-66367380D02*
X137428571Y-66319761D01*
X137428571Y-66319761D02*
X137333333Y-66224523D01*
X137333333Y-66224523D02*
X137285714Y-66129285D01*
X137285714Y-66129285D02*
X137238095Y-65938809D01*
X137238095Y-65938809D02*
X137238095Y-65795952D01*
X137238095Y-65795952D02*
X137285714Y-65605476D01*
X137285714Y-65605476D02*
X137333333Y-65510238D01*
X137333333Y-65510238D02*
X137428571Y-65415000D01*
X137428571Y-65415000D02*
X137571428Y-65367380D01*
X137571428Y-65367380D02*
X137666666Y-65367380D01*
X137666666Y-65367380D02*
X137809523Y-65415000D01*
X137809523Y-65415000D02*
X137857142Y-65462619D01*
X138809523Y-66367380D02*
X138238095Y-66367380D01*
X138523809Y-66367380D02*
X138523809Y-65367380D01*
X138523809Y-65367380D02*
X138428571Y-65510238D01*
X138428571Y-65510238D02*
X138333333Y-65605476D01*
X138333333Y-65605476D02*
X138238095Y-65653095D01*
X139190476Y-65462619D02*
X139238095Y-65415000D01*
X139238095Y-65415000D02*
X139333333Y-65367380D01*
X139333333Y-65367380D02*
X139571428Y-65367380D01*
X139571428Y-65367380D02*
X139666666Y-65415000D01*
X139666666Y-65415000D02*
X139714285Y-65462619D01*
X139714285Y-65462619D02*
X139761904Y-65557857D01*
X139761904Y-65557857D02*
X139761904Y-65653095D01*
X139761904Y-65653095D02*
X139714285Y-65795952D01*
X139714285Y-65795952D02*
X139142857Y-66367380D01*
X139142857Y-66367380D02*
X139761904Y-66367380D01*
X213868095Y-89227380D02*
X214439523Y-89227380D01*
X214153809Y-90227380D02*
X214153809Y-89227380D01*
X214772857Y-90227380D02*
X214772857Y-89227380D01*
X214772857Y-89227380D02*
X215153809Y-89227380D01*
X215153809Y-89227380D02*
X215249047Y-89275000D01*
X215249047Y-89275000D02*
X215296666Y-89322619D01*
X215296666Y-89322619D02*
X215344285Y-89417857D01*
X215344285Y-89417857D02*
X215344285Y-89560714D01*
X215344285Y-89560714D02*
X215296666Y-89655952D01*
X215296666Y-89655952D02*
X215249047Y-89703571D01*
X215249047Y-89703571D02*
X215153809Y-89751190D01*
X215153809Y-89751190D02*
X214772857Y-89751190D01*
X216201428Y-89560714D02*
X216201428Y-90227380D01*
X215963333Y-89179761D02*
X215725238Y-89894047D01*
X215725238Y-89894047D02*
X216344285Y-89894047D01*
X155247380Y-61833333D02*
X155961666Y-61833333D01*
X155961666Y-61833333D02*
X156104523Y-61880952D01*
X156104523Y-61880952D02*
X156199761Y-61976190D01*
X156199761Y-61976190D02*
X156247380Y-62119047D01*
X156247380Y-62119047D02*
X156247380Y-62214285D01*
X155580714Y-60928571D02*
X156247380Y-60928571D01*
X155199761Y-61166666D02*
X155914047Y-61404761D01*
X155914047Y-61404761D02*
X155914047Y-60785714D01*
X148432142Y-38642857D02*
X148479761Y-38690476D01*
X148479761Y-38690476D02*
X148527380Y-38833333D01*
X148527380Y-38833333D02*
X148527380Y-38928571D01*
X148527380Y-38928571D02*
X148479761Y-39071428D01*
X148479761Y-39071428D02*
X148384523Y-39166666D01*
X148384523Y-39166666D02*
X148289285Y-39214285D01*
X148289285Y-39214285D02*
X148098809Y-39261904D01*
X148098809Y-39261904D02*
X147955952Y-39261904D01*
X147955952Y-39261904D02*
X147765476Y-39214285D01*
X147765476Y-39214285D02*
X147670238Y-39166666D01*
X147670238Y-39166666D02*
X147575000Y-39071428D01*
X147575000Y-39071428D02*
X147527380Y-38928571D01*
X147527380Y-38928571D02*
X147527380Y-38833333D01*
X147527380Y-38833333D02*
X147575000Y-38690476D01*
X147575000Y-38690476D02*
X147622619Y-38642857D01*
X148527380Y-37690476D02*
X148527380Y-38261904D01*
X148527380Y-37976190D02*
X147527380Y-37976190D01*
X147527380Y-37976190D02*
X147670238Y-38071428D01*
X147670238Y-38071428D02*
X147765476Y-38166666D01*
X147765476Y-38166666D02*
X147813095Y-38261904D01*
X147527380Y-37071428D02*
X147527380Y-36976190D01*
X147527380Y-36976190D02*
X147575000Y-36880952D01*
X147575000Y-36880952D02*
X147622619Y-36833333D01*
X147622619Y-36833333D02*
X147717857Y-36785714D01*
X147717857Y-36785714D02*
X147908333Y-36738095D01*
X147908333Y-36738095D02*
X148146428Y-36738095D01*
X148146428Y-36738095D02*
X148336904Y-36785714D01*
X148336904Y-36785714D02*
X148432142Y-36833333D01*
X148432142Y-36833333D02*
X148479761Y-36880952D01*
X148479761Y-36880952D02*
X148527380Y-36976190D01*
X148527380Y-36976190D02*
X148527380Y-37071428D01*
X148527380Y-37071428D02*
X148479761Y-37166666D01*
X148479761Y-37166666D02*
X148432142Y-37214285D01*
X148432142Y-37214285D02*
X148336904Y-37261904D01*
X148336904Y-37261904D02*
X148146428Y-37309523D01*
X148146428Y-37309523D02*
X147908333Y-37309523D01*
X147908333Y-37309523D02*
X147717857Y-37261904D01*
X147717857Y-37261904D02*
X147622619Y-37214285D01*
X147622619Y-37214285D02*
X147575000Y-37166666D01*
X147575000Y-37166666D02*
X147527380Y-37071428D01*
X184158095Y-72366980D02*
X184729523Y-72366980D01*
X184443809Y-73366980D02*
X184443809Y-72366980D01*
X185062857Y-73366980D02*
X185062857Y-72366980D01*
X185062857Y-72366980D02*
X185443809Y-72366980D01*
X185443809Y-72366980D02*
X185539047Y-72414600D01*
X185539047Y-72414600D02*
X185586666Y-72462219D01*
X185586666Y-72462219D02*
X185634285Y-72557457D01*
X185634285Y-72557457D02*
X185634285Y-72700314D01*
X185634285Y-72700314D02*
X185586666Y-72795552D01*
X185586666Y-72795552D02*
X185539047Y-72843171D01*
X185539047Y-72843171D02*
X185443809Y-72890790D01*
X185443809Y-72890790D02*
X185062857Y-72890790D01*
X186586666Y-73366980D02*
X186015238Y-73366980D01*
X186300952Y-73366980D02*
X186300952Y-72366980D01*
X186300952Y-72366980D02*
X186205714Y-72509838D01*
X186205714Y-72509838D02*
X186110476Y-72605076D01*
X186110476Y-72605076D02*
X186015238Y-72652695D01*
X198747142Y-75137380D02*
X198413809Y-74661190D01*
X198175714Y-75137380D02*
X198175714Y-74137380D01*
X198175714Y-74137380D02*
X198556666Y-74137380D01*
X198556666Y-74137380D02*
X198651904Y-74185000D01*
X198651904Y-74185000D02*
X198699523Y-74232619D01*
X198699523Y-74232619D02*
X198747142Y-74327857D01*
X198747142Y-74327857D02*
X198747142Y-74470714D01*
X198747142Y-74470714D02*
X198699523Y-74565952D01*
X198699523Y-74565952D02*
X198651904Y-74613571D01*
X198651904Y-74613571D02*
X198556666Y-74661190D01*
X198556666Y-74661190D02*
X198175714Y-74661190D01*
X199699523Y-75137380D02*
X199128095Y-75137380D01*
X199413809Y-75137380D02*
X199413809Y-74137380D01*
X199413809Y-74137380D02*
X199318571Y-74280238D01*
X199318571Y-74280238D02*
X199223333Y-74375476D01*
X199223333Y-74375476D02*
X199128095Y-74423095D01*
X200318571Y-74137380D02*
X200413809Y-74137380D01*
X200413809Y-74137380D02*
X200509047Y-74185000D01*
X200509047Y-74185000D02*
X200556666Y-74232619D01*
X200556666Y-74232619D02*
X200604285Y-74327857D01*
X200604285Y-74327857D02*
X200651904Y-74518333D01*
X200651904Y-74518333D02*
X200651904Y-74756428D01*
X200651904Y-74756428D02*
X200604285Y-74946904D01*
X200604285Y-74946904D02*
X200556666Y-75042142D01*
X200556666Y-75042142D02*
X200509047Y-75089761D01*
X200509047Y-75089761D02*
X200413809Y-75137380D01*
X200413809Y-75137380D02*
X200318571Y-75137380D01*
X200318571Y-75137380D02*
X200223333Y-75089761D01*
X200223333Y-75089761D02*
X200175714Y-75042142D01*
X200175714Y-75042142D02*
X200128095Y-74946904D01*
X200128095Y-74946904D02*
X200080476Y-74756428D01*
X200080476Y-74756428D02*
X200080476Y-74518333D01*
X200080476Y-74518333D02*
X200128095Y-74327857D01*
X200128095Y-74327857D02*
X200175714Y-74232619D01*
X200175714Y-74232619D02*
X200223333Y-74185000D01*
X200223333Y-74185000D02*
X200318571Y-74137380D01*
X164319761Y-59458332D02*
X164367380Y-59315475D01*
X164367380Y-59315475D02*
X164367380Y-59077380D01*
X164367380Y-59077380D02*
X164319761Y-58982142D01*
X164319761Y-58982142D02*
X164272142Y-58934523D01*
X164272142Y-58934523D02*
X164176904Y-58886904D01*
X164176904Y-58886904D02*
X164081666Y-58886904D01*
X164081666Y-58886904D02*
X163986428Y-58934523D01*
X163986428Y-58934523D02*
X163938809Y-58982142D01*
X163938809Y-58982142D02*
X163891190Y-59077380D01*
X163891190Y-59077380D02*
X163843571Y-59267856D01*
X163843571Y-59267856D02*
X163795952Y-59363094D01*
X163795952Y-59363094D02*
X163748333Y-59410713D01*
X163748333Y-59410713D02*
X163653095Y-59458332D01*
X163653095Y-59458332D02*
X163557857Y-59458332D01*
X163557857Y-59458332D02*
X163462619Y-59410713D01*
X163462619Y-59410713D02*
X163415000Y-59363094D01*
X163415000Y-59363094D02*
X163367380Y-59267856D01*
X163367380Y-59267856D02*
X163367380Y-59029761D01*
X163367380Y-59029761D02*
X163415000Y-58886904D01*
X163367380Y-58553570D02*
X164367380Y-58315475D01*
X164367380Y-58315475D02*
X163653095Y-58124999D01*
X163653095Y-58124999D02*
X164367380Y-57934523D01*
X164367380Y-57934523D02*
X163367380Y-57696428D01*
X164367380Y-56791666D02*
X164367380Y-57363094D01*
X164367380Y-57077380D02*
X163367380Y-57077380D01*
X163367380Y-57077380D02*
X163510238Y-57172618D01*
X163510238Y-57172618D02*
X163605476Y-57267856D01*
X163605476Y-57267856D02*
X163653095Y-57363094D01*
X224166666Y-49807380D02*
X224166666Y-50521666D01*
X224166666Y-50521666D02*
X224119047Y-50664523D01*
X224119047Y-50664523D02*
X224023809Y-50759761D01*
X224023809Y-50759761D02*
X223880952Y-50807380D01*
X223880952Y-50807380D02*
X223785714Y-50807380D01*
X225166666Y-50807380D02*
X224595238Y-50807380D01*
X224880952Y-50807380D02*
X224880952Y-49807380D01*
X224880952Y-49807380D02*
X224785714Y-49950238D01*
X224785714Y-49950238D02*
X224690476Y-50045476D01*
X224690476Y-50045476D02*
X224595238Y-50093095D01*
X184738094Y-62632619D02*
X184738094Y-63632619D01*
X184738094Y-63632619D02*
X184499999Y-63632619D01*
X184499999Y-63632619D02*
X184357142Y-63585000D01*
X184357142Y-63585000D02*
X184261904Y-63489761D01*
X184261904Y-63489761D02*
X184214285Y-63394523D01*
X184214285Y-63394523D02*
X184166666Y-63204047D01*
X184166666Y-63204047D02*
X184166666Y-63061190D01*
X184166666Y-63061190D02*
X184214285Y-62870714D01*
X184214285Y-62870714D02*
X184261904Y-62775476D01*
X184261904Y-62775476D02*
X184357142Y-62680238D01*
X184357142Y-62680238D02*
X184499999Y-62632619D01*
X184499999Y-62632619D02*
X184738094Y-62632619D01*
X183261904Y-63632619D02*
X183738094Y-63632619D01*
X183738094Y-63632619D02*
X183785713Y-63156428D01*
X183785713Y-63156428D02*
X183738094Y-63204047D01*
X183738094Y-63204047D02*
X183642856Y-63251666D01*
X183642856Y-63251666D02*
X183404761Y-63251666D01*
X183404761Y-63251666D02*
X183309523Y-63204047D01*
X183309523Y-63204047D02*
X183261904Y-63156428D01*
X183261904Y-63156428D02*
X183214285Y-63061190D01*
X183214285Y-63061190D02*
X183214285Y-62823095D01*
X183214285Y-62823095D02*
X183261904Y-62727857D01*
X183261904Y-62727857D02*
X183309523Y-62680238D01*
X183309523Y-62680238D02*
X183404761Y-62632619D01*
X183404761Y-62632619D02*
X183642856Y-62632619D01*
X183642856Y-62632619D02*
X183738094Y-62680238D01*
X183738094Y-62680238D02*
X183785713Y-62727857D01*
X183488333Y-68692142D02*
X183440714Y-68739761D01*
X183440714Y-68739761D02*
X183297857Y-68787380D01*
X183297857Y-68787380D02*
X183202619Y-68787380D01*
X183202619Y-68787380D02*
X183059762Y-68739761D01*
X183059762Y-68739761D02*
X182964524Y-68644523D01*
X182964524Y-68644523D02*
X182916905Y-68549285D01*
X182916905Y-68549285D02*
X182869286Y-68358809D01*
X182869286Y-68358809D02*
X182869286Y-68215952D01*
X182869286Y-68215952D02*
X182916905Y-68025476D01*
X182916905Y-68025476D02*
X182964524Y-67930238D01*
X182964524Y-67930238D02*
X183059762Y-67835000D01*
X183059762Y-67835000D02*
X183202619Y-67787380D01*
X183202619Y-67787380D02*
X183297857Y-67787380D01*
X183297857Y-67787380D02*
X183440714Y-67835000D01*
X183440714Y-67835000D02*
X183488333Y-67882619D01*
X183821667Y-67787380D02*
X184488333Y-67787380D01*
X184488333Y-67787380D02*
X184059762Y-68787380D01*
D11*
X136378809Y-85316573D02*
X135774047Y-85316573D01*
X135774047Y-85316573D02*
X135774047Y-84046573D01*
X136802142Y-84651335D02*
X137225476Y-84651335D01*
X137406904Y-85316573D02*
X136802142Y-85316573D01*
X136802142Y-85316573D02*
X136802142Y-84046573D01*
X136802142Y-84046573D02*
X137406904Y-84046573D01*
X137951190Y-85316573D02*
X137951190Y-84046573D01*
X137951190Y-84046573D02*
X138253571Y-84046573D01*
X138253571Y-84046573D02*
X138435000Y-84107050D01*
X138435000Y-84107050D02*
X138555952Y-84228002D01*
X138555952Y-84228002D02*
X138616429Y-84348954D01*
X138616429Y-84348954D02*
X138676905Y-84590859D01*
X138676905Y-84590859D02*
X138676905Y-84772288D01*
X138676905Y-84772288D02*
X138616429Y-85014192D01*
X138616429Y-85014192D02*
X138555952Y-85135145D01*
X138555952Y-85135145D02*
X138435000Y-85256097D01*
X138435000Y-85256097D02*
X138253571Y-85316573D01*
X138253571Y-85316573D02*
X137951190Y-85316573D01*
X139100238Y-84046573D02*
X139886429Y-84046573D01*
X139886429Y-84046573D02*
X139463095Y-84530383D01*
X139463095Y-84530383D02*
X139644524Y-84530383D01*
X139644524Y-84530383D02*
X139765476Y-84590859D01*
X139765476Y-84590859D02*
X139825952Y-84651335D01*
X139825952Y-84651335D02*
X139886429Y-84772288D01*
X139886429Y-84772288D02*
X139886429Y-85074669D01*
X139886429Y-85074669D02*
X139825952Y-85195621D01*
X139825952Y-85195621D02*
X139765476Y-85256097D01*
X139765476Y-85256097D02*
X139644524Y-85316573D01*
X139644524Y-85316573D02*
X139281667Y-85316573D01*
X139281667Y-85316573D02*
X139160714Y-85256097D01*
X139160714Y-85256097D02*
X139100238Y-85195621D01*
D10*
X203867380Y-81238094D02*
X202867380Y-81238094D01*
X202867380Y-81238094D02*
X202867380Y-80999999D01*
X202867380Y-80999999D02*
X202915000Y-80857142D01*
X202915000Y-80857142D02*
X203010238Y-80761904D01*
X203010238Y-80761904D02*
X203105476Y-80714285D01*
X203105476Y-80714285D02*
X203295952Y-80666666D01*
X203295952Y-80666666D02*
X203438809Y-80666666D01*
X203438809Y-80666666D02*
X203629285Y-80714285D01*
X203629285Y-80714285D02*
X203724523Y-80761904D01*
X203724523Y-80761904D02*
X203819761Y-80857142D01*
X203819761Y-80857142D02*
X203867380Y-80999999D01*
X203867380Y-80999999D02*
X203867380Y-81238094D01*
X202867380Y-80333332D02*
X202867380Y-79714285D01*
X202867380Y-79714285D02*
X203248333Y-80047618D01*
X203248333Y-80047618D02*
X203248333Y-79904761D01*
X203248333Y-79904761D02*
X203295952Y-79809523D01*
X203295952Y-79809523D02*
X203343571Y-79761904D01*
X203343571Y-79761904D02*
X203438809Y-79714285D01*
X203438809Y-79714285D02*
X203676904Y-79714285D01*
X203676904Y-79714285D02*
X203772142Y-79761904D01*
X203772142Y-79761904D02*
X203819761Y-79809523D01*
X203819761Y-79809523D02*
X203867380Y-79904761D01*
X203867380Y-79904761D02*
X203867380Y-80190475D01*
X203867380Y-80190475D02*
X203819761Y-80285713D01*
X203819761Y-80285713D02*
X203772142Y-80333332D01*
D12*
X178689000Y-62680850D02*
X179451000Y-62680850D01*
X179070000Y-62299850D02*
X179070000Y-63061850D01*
X176695100Y-61588650D02*
X177289460Y-61588650D01*
X180850540Y-61588650D02*
X181444900Y-61588650D01*
X181444900Y-61588650D02*
X181444900Y-53740050D01*
X176695100Y-53740050D02*
X176695100Y-61588650D01*
X177289460Y-53740050D02*
X176695100Y-53740050D01*
X181444900Y-53740050D02*
X180850540Y-53740050D01*
D13*
X166450000Y-42900000D02*
X167650000Y-42900000D01*
D12*
X131475000Y-69685000D02*
X131475000Y-63435000D01*
X136525000Y-69685000D02*
X136525000Y-63435000D01*
X131475000Y-69685000D02*
G75*
G03*
X136525000Y-69685000I2525000J0D01*
G01*
X136525000Y-63435000D02*
G75*
G03*
X131475000Y-63435000I-2525000J0D01*
G01*
D13*
X200800000Y-61540000D02*
X198950000Y-61540000D01*
X198600000Y-62040000D02*
X195100000Y-62040000D01*
X198600000Y-57340000D02*
X198600000Y-62040000D01*
X195100000Y-62040000D02*
X195100000Y-57340000D01*
X195100000Y-57340000D02*
X198600000Y-57340000D01*
D12*
X185065580Y-89410000D02*
X184784420Y-89410000D01*
X185065580Y-88390000D02*
X184784420Y-88390000D01*
X174087742Y-70477500D02*
X174562258Y-70477500D01*
X174087742Y-71522500D02*
X174562258Y-71522500D01*
D13*
X216900000Y-54000000D02*
X210000000Y-54000000D01*
X210000000Y-56000000D02*
X200000000Y-56000000D01*
X210000000Y-52000000D02*
X210000000Y-56000000D01*
X200000000Y-56000000D02*
X200000000Y-52000000D01*
X200000000Y-54000000D02*
X193100000Y-54000000D01*
X200000000Y-52000000D02*
X210000000Y-52000000D01*
D12*
X193930000Y-66695000D02*
X204850000Y-66695000D01*
X204850000Y-66695000D02*
X204850000Y-72695000D01*
X204850000Y-72695000D02*
X193930000Y-72695000D01*
X193930000Y-72695000D02*
X193930000Y-66695000D01*
X145160000Y-43970000D02*
X145160000Y-79650000D01*
X145160000Y-79650000D02*
X150460000Y-79650000D01*
X146810000Y-43970000D02*
X145160000Y-43970000D01*
X150460000Y-43970000D02*
X148810000Y-43970000D01*
X150460000Y-79650000D02*
X150460000Y-43970000D01*
X146810000Y-43970000D02*
G75*
G03*
X148810000Y-43970000I1000000J0D01*
G01*
D14*
X175800000Y-35300000D02*
X175800000Y-35300000D01*
X175700000Y-35300000D02*
X175700000Y-35300000D01*
X175700000Y-35300000D02*
G75*
G03*
X175800000Y-35300000I50000J0D01*
G01*
X175800000Y-35300000D02*
G75*
G03*
X175700000Y-35300000I-50000J0D01*
G01*
D15*
X131770000Y-97270000D02*
X176770000Y-97270000D01*
X131770000Y-98470000D02*
X131770000Y-97270000D01*
X132770000Y-98470000D02*
X131770000Y-98470000D01*
X132770000Y-98470000D02*
X132770000Y-112270000D01*
X132770000Y-112270000D02*
X148770000Y-112270000D01*
X148770000Y-98470000D02*
X132770000Y-98470000D01*
X148770000Y-98470000D02*
X148770000Y-112270000D01*
X159770000Y-98470000D02*
X148770000Y-98470000D01*
X159770000Y-98470000D02*
X159770000Y-112270000D01*
X159770000Y-112270000D02*
X175770000Y-112270000D01*
X175770000Y-98470000D02*
X159770000Y-98470000D01*
X175770000Y-98470000D02*
X175770000Y-112270000D01*
X176770000Y-97270000D02*
X176770000Y-98470000D01*
X176770000Y-98470000D02*
X175770000Y-98470000D01*
D12*
X178000000Y-51860000D02*
X180000000Y-51860000D01*
X178000000Y-51860000D02*
X178000000Y-47850000D01*
X180000000Y-51860000D02*
X180000000Y-47850000D01*
X208789999Y-76305001D02*
X209490000Y-75605000D01*
X208789999Y-80605000D02*
X208789999Y-76305001D01*
X208789999Y-80605000D02*
X210590001Y-80605000D01*
X209490000Y-75605000D02*
X210590001Y-75605000D01*
X210590001Y-80605000D02*
X210590001Y-75605000D01*
X164045000Y-29567500D02*
X163045000Y-29567500D01*
X163045000Y-29567500D02*
X163545000Y-30567500D01*
X163545000Y-30567500D02*
X164045000Y-29567500D01*
X168755000Y-30957500D02*
X168755000Y-40077500D01*
X163055000Y-30957500D02*
X163055000Y-32267500D01*
X153255000Y-30957500D02*
X168755000Y-30957500D01*
X167455000Y-32267500D02*
X167455000Y-38767500D01*
X163055000Y-32267500D02*
X167455000Y-32267500D01*
X158955000Y-32267500D02*
X158955000Y-30957500D01*
X158955000Y-32267500D02*
X158955000Y-32267500D01*
X154555000Y-32267500D02*
X158955000Y-32267500D01*
X167455000Y-38767500D02*
X154555000Y-38767500D01*
X154555000Y-38767500D02*
X154555000Y-32267500D01*
X168755000Y-40077500D02*
X153255000Y-40077500D01*
X153255000Y-40077500D02*
X153255000Y-30957500D01*
X140477500Y-42062258D02*
X140477500Y-41587742D01*
X141522500Y-42062258D02*
X141522500Y-41587742D01*
X211342500Y-91232258D02*
X211342500Y-90757742D01*
X210297500Y-91232258D02*
X210297500Y-90757742D01*
X140265000Y-63211252D02*
X140265000Y-62688748D01*
X141735000Y-63211252D02*
X141735000Y-62688748D01*
X212317064Y-71855000D02*
X211862936Y-71855000D01*
X212317064Y-70385000D02*
X211862936Y-70385000D01*
X147522500Y-34587742D02*
X147522500Y-35062258D01*
X146477500Y-34587742D02*
X146477500Y-35062258D01*
X204992500Y-92027742D02*
X204992500Y-92502258D01*
X203947500Y-92027742D02*
X203947500Y-92502258D01*
X206275000Y-90855436D02*
X206275000Y-91309564D01*
X207745000Y-90855436D02*
X207745000Y-91309564D01*
D16*
X206245250Y-95440500D02*
X204371150Y-95440500D01*
X204371150Y-97599500D02*
X206245250Y-97599500D01*
D12*
X180500000Y-43180000D02*
G75*
G03*
X180500000Y-43180000I-2700000J0D01*
G01*
X197360000Y-81139420D02*
X197360000Y-81420580D01*
X196340000Y-81139420D02*
X196340000Y-81420580D01*
D16*
X194068700Y-89700100D02*
X194068700Y-89461340D01*
X194068700Y-88338660D02*
X194068700Y-88099900D01*
X194068700Y-88099900D02*
X192011300Y-88099900D01*
X192011300Y-89700100D02*
X194068700Y-89700100D01*
X192011300Y-89461340D02*
X192011300Y-89700100D01*
X192011300Y-88099900D02*
X192011300Y-88338660D01*
D12*
X200312000Y-97231200D02*
G75*
G03*
X200312000Y-97231200I-2700000J0D01*
G01*
D14*
X139800000Y-34000000D02*
X139800000Y-34000000D01*
X139900000Y-34000000D02*
X139900000Y-34000000D01*
X139900000Y-34000000D02*
G75*
G03*
X139800000Y-34000000I-50000J0D01*
G01*
X139800000Y-34000000D02*
G75*
G03*
X139900000Y-34000000I50000J0D01*
G01*
D12*
X193468258Y-92724500D02*
X192993742Y-92724500D01*
X193468258Y-91679500D02*
X192993742Y-91679500D01*
X172957258Y-64022500D02*
X172482742Y-64022500D01*
X172957258Y-62977500D02*
X172482742Y-62977500D01*
X192802742Y-75677500D02*
X193277258Y-75677500D01*
X192802742Y-76722500D02*
X193277258Y-76722500D01*
X149477500Y-35062258D02*
X149477500Y-34587742D01*
X150522500Y-35062258D02*
X150522500Y-34587742D01*
X220940000Y-75940000D02*
X220940000Y-76745000D01*
X220940000Y-75940000D02*
X226060000Y-75940000D01*
X220940000Y-80255000D02*
X220940000Y-81060000D01*
X220940000Y-81060000D02*
X226060000Y-81060000D01*
X223180000Y-79071000D02*
X223180000Y-79071000D01*
X223741000Y-78511000D02*
X223208000Y-79043000D01*
X223791000Y-77957000D02*
X223259000Y-78489000D01*
X223820000Y-77928000D02*
X223820000Y-77928000D01*
X226060000Y-75940000D02*
X226060000Y-76745000D01*
X226060000Y-80255000D02*
X226060000Y-81060000D01*
X224740000Y-76854001D02*
G75*
G03*
X222259554Y-76854337I-1240000J-1645999D01*
G01*
X222259000Y-80145000D02*
G75*
G03*
X223534842Y-80560313I1241000J1645000D01*
G01*
X223500000Y-80559999D02*
G75*
G03*
X224739738Y-80145188I0J2059999D01*
G01*
X190964800Y-60960000D02*
G75*
G03*
X190964800Y-60960000I-2700000J0D01*
G01*
X170700000Y-72000000D02*
G75*
G03*
X170700000Y-72000000I-2700000J0D01*
G01*
X199182258Y-89422500D02*
X198707742Y-89422500D01*
X199182258Y-88377500D02*
X198707742Y-88377500D01*
X174750000Y-59335580D02*
X174750000Y-59054420D01*
X175770000Y-59335580D02*
X175770000Y-59054420D01*
X140140000Y-58607836D02*
X140140000Y-58392164D01*
X140860000Y-58607836D02*
X140860000Y-58392164D01*
X171804420Y-45210000D02*
X172085580Y-45210000D01*
X171804420Y-46230000D02*
X172085580Y-46230000D01*
X162762742Y-44477500D02*
X163237258Y-44477500D01*
X162762742Y-45522500D02*
X163237258Y-45522500D01*
X143140000Y-39087836D02*
X143140000Y-38872164D01*
X143860000Y-39087836D02*
X143860000Y-38872164D01*
X229580000Y-71770000D02*
X229580000Y-67129000D01*
X229580000Y-71770000D02*
X219340000Y-71770000D01*
X229580000Y-70260000D02*
X219340000Y-70260000D01*
X229580000Y-67129000D02*
X219340000Y-67129000D01*
X226310000Y-71770000D02*
X226310000Y-70260000D01*
X222609000Y-71770000D02*
X222609000Y-70260000D01*
X219340000Y-71770000D02*
X219340000Y-67129000D01*
D14*
X162000000Y-82650000D02*
X162000000Y-82650000D01*
X161900000Y-82650000D02*
X161900000Y-82650000D01*
X161900000Y-82650000D02*
G75*
G03*
X162000000Y-82650000I50000J0D01*
G01*
X162000000Y-82650000D02*
G75*
G03*
X161900000Y-82650000I-50000J0D01*
G01*
D12*
X172482742Y-66787500D02*
X172957258Y-66787500D01*
X172482742Y-67832500D02*
X172957258Y-67832500D01*
X182499000Y-74168000D02*
X182499000Y-75130450D01*
X182499000Y-77269550D02*
X182499000Y-78101146D01*
X182499000Y-79378854D02*
X182499000Y-80641146D01*
X182499000Y-81918854D02*
X182499000Y-83312000D01*
X182499000Y-83312000D02*
X188341000Y-83312000D01*
X188341000Y-74168000D02*
X182499000Y-74168000D01*
X188341000Y-75561146D02*
X188341000Y-74168000D01*
X188341000Y-78101146D02*
X188341000Y-76838854D01*
X188341000Y-80641146D02*
X188341000Y-79378854D01*
X188341000Y-83312000D02*
X188341000Y-81918854D01*
X209382150Y-56807100D02*
X207304850Y-56807100D01*
X207304850Y-62572900D02*
X209382150Y-62572900D01*
X212864700Y-59690000D02*
G75*
G03*
X212864700Y-59690000I-76200J0D01*
G01*
X204316359Y-89280000D02*
X204623641Y-89280000D01*
X204316359Y-88520000D02*
X204623641Y-88520000D01*
D14*
X209550000Y-83560000D02*
G75*
G03*
X209550000Y-83660000I0J-50000D01*
G01*
X209550000Y-83660000D02*
G75*
G03*
X209550000Y-83560000I0J50000D01*
G01*
X209550000Y-83660000D02*
X209550000Y-83660000D01*
X209550000Y-83560000D02*
X209550000Y-83560000D01*
D12*
X157640000Y-44587836D02*
X157640000Y-44372164D01*
X158360000Y-44587836D02*
X158360000Y-44372164D01*
X168387500Y-51037258D02*
X168387500Y-50562742D01*
X169432500Y-51037258D02*
X169432500Y-50562742D01*
X137765000Y-63211252D02*
X137765000Y-62688748D01*
X139235000Y-63211252D02*
X139235000Y-62688748D01*
X217330000Y-86360000D02*
G75*
G03*
X217330000Y-86360000I-2700000J0D01*
G01*
X158000000Y-65710000D02*
X162000000Y-65710000D01*
X156970000Y-65420000D02*
X162990000Y-65420000D01*
X162990000Y-65420000D02*
X162990000Y-57580000D01*
X156970000Y-64840000D02*
X157570000Y-64840000D01*
X157570000Y-64840000D02*
X157570000Y-63240000D01*
X161990000Y-64040000D02*
X161460000Y-63790000D01*
X161990000Y-64040000D02*
X161990000Y-58960000D01*
X162990000Y-64040000D02*
X161990000Y-64040000D01*
X161460000Y-63790000D02*
X161460000Y-59210000D01*
X162990000Y-63790000D02*
X161990000Y-63790000D01*
X157570000Y-63240000D02*
X156970000Y-63240000D01*
X156970000Y-62300000D02*
X157570000Y-62300000D01*
X157570000Y-62300000D02*
X157570000Y-60700000D01*
X157570000Y-60700000D02*
X156970000Y-60700000D01*
X156970000Y-59760000D02*
X157570000Y-59760000D01*
X157570000Y-59760000D02*
X157570000Y-58160000D01*
X161460000Y-59210000D02*
X161990000Y-58960000D01*
X162990000Y-59210000D02*
X161990000Y-59210000D01*
X161990000Y-58960000D02*
X162990000Y-58960000D01*
X157570000Y-58160000D02*
X156970000Y-58160000D01*
X156970000Y-57580000D02*
X156970000Y-65420000D01*
X162990000Y-57580000D02*
X156970000Y-57580000D01*
X147360000Y-37892164D02*
X147360000Y-38107836D01*
X146640000Y-37892164D02*
X146640000Y-38107836D01*
X191930000Y-71120000D02*
G75*
G03*
X191930000Y-71120000I-2700000J0D01*
G01*
X199152742Y-75677500D02*
X199627258Y-75677500D01*
X199152742Y-76722500D02*
X199627258Y-76722500D01*
X164880000Y-59745000D02*
X164980000Y-59745000D01*
X164880000Y-59745000D02*
X164880000Y-56505000D01*
X167020000Y-59745000D02*
X167120000Y-59745000D01*
X167120000Y-59745000D02*
X167120000Y-56505000D01*
X164880000Y-56505000D02*
X164980000Y-56505000D01*
X167020000Y-56505000D02*
X167120000Y-56505000D01*
X221940000Y-51440000D02*
X221940000Y-52245000D01*
X221940000Y-51440000D02*
X227060000Y-51440000D01*
X221940000Y-55755000D02*
X221940000Y-56560000D01*
X221940000Y-56560000D02*
X227060000Y-56560000D01*
X224180000Y-54571000D02*
X224180000Y-54571000D01*
X224741000Y-54011000D02*
X224208000Y-54543000D01*
X224791000Y-53457000D02*
X224259000Y-53989000D01*
X224820000Y-53428000D02*
X224820000Y-53428000D01*
X227060000Y-51440000D02*
X227060000Y-52245000D01*
X227060000Y-55755000D02*
X227060000Y-56560000D01*
X225740000Y-52354001D02*
G75*
G03*
X223259554Y-52354337I-1240000J-1645999D01*
G01*
X223259000Y-55645000D02*
G75*
G03*
X224534842Y-56060313I1241000J1645000D01*
G01*
X224500000Y-56059999D02*
G75*
G03*
X225739738Y-55645188I0J2059999D01*
G01*
D16*
X181749700Y-67589400D02*
X187693300Y-67589400D01*
X187693300Y-64490600D02*
X181749700Y-64490600D01*
X188074300Y-66040000D02*
X189344300Y-66040000D01*
X188328300Y-66675000D02*
X188328300Y-65405000D01*
X189090300Y-66040000D02*
X188328300Y-65405000D01*
X189090300Y-66040000D02*
X188328300Y-65532000D01*
X189090300Y-66040000D02*
X188328300Y-65659000D01*
X189090300Y-66040000D02*
X188328300Y-65786000D01*
X189090300Y-66040000D02*
X188328300Y-65913000D01*
X189090300Y-66040000D02*
X188328300Y-66167000D01*
X189090300Y-66040000D02*
X188328300Y-66294000D01*
X189090300Y-66040000D02*
X188328300Y-66421000D01*
X189090300Y-66040000D02*
X188328300Y-66548000D01*
X189090300Y-66040000D02*
X188328300Y-66675000D01*
X189090300Y-66675000D02*
X189090300Y-65405000D01*
D12*
X183514420Y-69340000D02*
X183795580Y-69340000D01*
X183514420Y-70360000D02*
X183795580Y-70360000D01*
D14*
X139800000Y-82000000D02*
X139800000Y-82000000D01*
X139700000Y-82000000D02*
X139700000Y-82000000D01*
X139700000Y-82000000D02*
G75*
G03*
X139800000Y-82000000I50000J0D01*
G01*
X139800000Y-82000000D02*
G75*
G03*
X139700000Y-82000000I-50000J0D01*
G01*
D16*
X202552300Y-78460600D02*
X202237340Y-78460600D01*
X200809860Y-78460600D02*
X200494900Y-78460600D01*
X200494900Y-78460600D02*
X200494900Y-81559400D01*
X202552300Y-81559400D02*
X202552300Y-78460600D01*
X202237340Y-81559400D02*
X202552300Y-81559400D01*
X200494900Y-81559400D02*
X200809860Y-81559400D01*
M02*
