G04 #@! TF.GenerationSoftware,KiCad,Pcbnew,(7.0.0)*
G04 #@! TF.CreationDate,2023-03-08T04:37:20-06:00*
G04 #@! TF.ProjectId,445,3434352e-6b69-4636-9164-5f7063625858,rev?*
G04 #@! TF.SameCoordinates,Original*
G04 #@! TF.FileFunction,Soldermask,Bot*
G04 #@! TF.FilePolarity,Negative*
%FSLAX46Y46*%
G04 Gerber Fmt 4.6, Leading zero omitted, Abs format (unit mm)*
G04 Created by KiCad (PCBNEW (7.0.0)) date 2023-03-08 04:37:20*
%MOMM*%
%LPD*%
G01*
G04 APERTURE LIST*
G04 Aperture macros list*
%AMRoundRect*
0 Rectangle with rounded corners*
0 $1 Rounding radius*
0 $2 $3 $4 $5 $6 $7 $8 $9 X,Y pos of 4 corners*
0 Add a 4 corners polygon primitive as box body*
4,1,4,$2,$3,$4,$5,$6,$7,$8,$9,$2,$3,0*
0 Add four circle primitives for the rounded corners*
1,1,$1+$1,$2,$3*
1,1,$1+$1,$4,$5*
1,1,$1+$1,$6,$7*
1,1,$1+$1,$8,$9*
0 Add four rect primitives between the rounded corners*
20,1,$1+$1,$2,$3,$4,$5,0*
20,1,$1+$1,$4,$5,$6,$7,0*
20,1,$1+$1,$6,$7,$8,$9,0*
20,1,$1+$1,$8,$9,$2,$3,0*%
G04 Aperture macros list end*
%ADD10C,3.200000*%
%ADD11C,1.500000*%
%ADD12R,1.600000X1.600000*%
%ADD13O,1.600000X1.600000*%
%ADD14C,1.530000*%
%ADD15RoundRect,0.250000X-0.600000X0.600000X-0.600000X-0.600000X0.600000X-0.600000X0.600000X0.600000X0*%
%ADD16C,1.700000*%
%ADD17C,4.800000*%
%ADD18C,3.000000*%
%ADD19R,1.905000X2.000000*%
%ADD20O,1.905000X2.000000*%
%ADD21R,1.524000X1.524000*%
%ADD22C,1.524000*%
%ADD23RoundRect,0.250000X0.845000X-0.620000X0.845000X0.620000X-0.845000X0.620000X-0.845000X-0.620000X0*%
%ADD24O,2.190000X1.740000*%
G04 APERTURE END LIST*
D10*
X135000000Y-36000000D03*
D11*
X134000000Y-69000000D03*
X134000000Y-64120000D03*
X218000000Y-54000000D03*
X192000000Y-54000000D03*
D10*
X224000000Y-36000000D03*
D12*
X143999999Y-45299999D03*
D13*
X143999999Y-47839999D03*
X143999999Y-50379999D03*
X143999999Y-52919999D03*
X143999999Y-55459999D03*
X143999999Y-57999999D03*
X143999999Y-60539999D03*
X143999999Y-63079999D03*
X143999999Y-65619999D03*
X143999999Y-68159999D03*
X143999999Y-70699999D03*
X143999999Y-73239999D03*
X143999999Y-75779999D03*
X143999999Y-78319999D03*
X151619999Y-78319999D03*
X151619999Y-75779999D03*
X151619999Y-73239999D03*
X151619999Y-70699999D03*
X151619999Y-68159999D03*
X151619999Y-65619999D03*
X151619999Y-63079999D03*
X151619999Y-60539999D03*
X151619999Y-57999999D03*
X151619999Y-55459999D03*
X151619999Y-52919999D03*
X151619999Y-50379999D03*
X151619999Y-47839999D03*
X151619999Y-45299999D03*
D14*
X150460000Y-93000000D03*
X153000000Y-93000000D03*
X155540000Y-93000000D03*
X158080000Y-93000000D03*
D15*
X163545000Y-34247500D03*
D16*
X163545000Y-36787500D03*
X161005000Y-34247500D03*
X161005000Y-36787500D03*
X158465000Y-34247500D03*
X158465000Y-36787500D03*
D17*
X177800000Y-43180000D03*
X197612000Y-97231200D03*
D10*
X225000000Y-93000000D03*
D18*
X221500000Y-78500000D03*
X225500000Y-78500000D03*
D17*
X188264800Y-60960000D03*
X168000000Y-72000000D03*
D19*
X226999999Y-68499999D03*
D20*
X224459999Y-68499999D03*
X221919999Y-68499999D03*
D21*
X181609999Y-76199999D03*
D22*
X181610000Y-78740000D03*
X181610000Y-81280000D03*
X189230000Y-81280000D03*
X189230000Y-78740000D03*
X189230000Y-76200000D03*
D10*
X134000000Y-91500000D03*
D17*
X214630000Y-86360000D03*
D23*
X160000000Y-64040000D03*
D24*
X159999999Y-61499999D03*
X159999999Y-58959999D03*
D17*
X189230000Y-71120000D03*
D18*
X222500000Y-54000000D03*
X226500000Y-54000000D03*
M02*
